%TF.GenerationSoftware,KiCad,Pcbnew,9.0.7*%
%TF.CreationDate,2026-03-17T16:13:23+01:00*%
%TF.ProjectId,power_logger,706f7765-725f-46c6-9f67-6765722e6b69,rev?*%
%TF.SameCoordinates,Original*%
%TF.FileFunction,Soldermask,Bot*%
%TF.FilePolarity,Negative*%
%FSLAX46Y46*%
G04 Gerber Fmt 4.6, Leading zero omitted, Abs format (unit mm)*
G04 Created by KiCad (PCBNEW 9.0.7) date 2026-03-17 16:13:23*
%MOMM*%
%LPD*%
G01*
G04 APERTURE LIST*
G04 Aperture macros list*
%AMRoundRect*
0 Rectangle with rounded corners*
0 $1 Rounding radius*
0 $2 $3 $4 $5 $6 $7 $8 $9 X,Y pos of 4 corners*
0 Add a 4 corners polygon primitive as box body*
4,1,4,$2,$3,$4,$5,$6,$7,$8,$9,$2,$3,0*
0 Add four circle primitives for the rounded corners*
1,1,$1+$1,$2,$3*
1,1,$1+$1,$4,$5*
1,1,$1+$1,$6,$7*
1,1,$1+$1,$8,$9*
0 Add four rect primitives between the rounded corners*
20,1,$1+$1,$2,$3,$4,$5,0*
20,1,$1+$1,$4,$5,$6,$7,0*
20,1,$1+$1,$6,$7,$8,$9,0*
20,1,$1+$1,$8,$9,$2,$3,0*%
G04 Aperture macros list end*
%ADD10RoundRect,0.250000X-0.350000X-0.625000X0.350000X-0.625000X0.350000X0.625000X-0.350000X0.625000X0*%
%ADD11O,1.200000X1.750000*%
%ADD12RoundRect,0.250000X0.350000X0.625000X-0.350000X0.625000X-0.350000X-0.625000X0.350000X-0.625000X0*%
%ADD13RoundRect,0.250000X-0.625000X0.350000X-0.625000X-0.350000X0.625000X-0.350000X0.625000X0.350000X0*%
%ADD14O,1.750000X1.200000*%
%ADD15C,0.650000*%
%ADD16O,2.100000X1.000000*%
%ADD17O,1.800000X1.000000*%
%ADD18RoundRect,0.250001X-1.149999X1.149999X-1.149999X-1.149999X1.149999X-1.149999X1.149999X1.149999X0*%
%ADD19C,2.800000*%
%ADD20C,3.200000*%
%ADD21RoundRect,0.250000X0.625000X-0.350000X0.625000X0.350000X-0.625000X0.350000X-0.625000X-0.350000X0*%
%ADD22RoundRect,0.237500X-0.300000X-0.237500X0.300000X-0.237500X0.300000X0.237500X-0.300000X0.237500X0*%
%ADD23RoundRect,0.237500X-0.237500X0.300000X-0.237500X-0.300000X0.237500X-0.300000X0.237500X0.300000X0*%
%ADD24RoundRect,0.237500X0.250000X0.237500X-0.250000X0.237500X-0.250000X-0.237500X0.250000X-0.237500X0*%
%ADD25RoundRect,0.237500X0.237500X-0.250000X0.237500X0.250000X-0.237500X0.250000X-0.237500X-0.250000X0*%
%ADD26RoundRect,0.249999X-1.425001X0.450001X-1.425001X-0.450001X1.425001X-0.450001X1.425001X0.450001X0*%
%ADD27RoundRect,0.237500X0.300000X0.237500X-0.300000X0.237500X-0.300000X-0.237500X0.300000X-0.237500X0*%
%ADD28RoundRect,0.237500X-0.250000X-0.237500X0.250000X-0.237500X0.250000X0.237500X-0.250000X0.237500X0*%
%ADD29R,7.450000X1.850000*%
%ADD30RoundRect,0.237500X0.237500X-0.300000X0.237500X0.300000X-0.237500X0.300000X-0.237500X-0.300000X0*%
%ADD31RoundRect,0.249999X1.425001X-0.450001X1.425001X0.450001X-1.425001X0.450001X-1.425001X-0.450001X0*%
%ADD32RoundRect,0.150000X-0.512500X-0.150000X0.512500X-0.150000X0.512500X0.150000X-0.512500X0.150000X0*%
%ADD33RoundRect,0.225000X0.225000X0.375000X-0.225000X0.375000X-0.225000X-0.375000X0.225000X-0.375000X0*%
G04 APERTURE END LIST*
D10*
%TO.C,J9*%
X152300000Y-93900000D03*
D11*
X154300000Y-93900000D03*
X156300000Y-93900000D03*
X158300000Y-93900000D03*
%TD*%
D12*
%TO.C,J1*%
X154400000Y-80600000D03*
D11*
X152400000Y-80600000D03*
%TD*%
D13*
%TO.C,TH1*%
X121100000Y-59250000D03*
D14*
X121100000Y-61250000D03*
%TD*%
D15*
%TO.C,J10*%
X124580000Y-87930000D03*
X124580000Y-93710000D03*
D16*
X125100000Y-86500000D03*
D17*
X120900000Y-86500000D03*
D16*
X125100000Y-95140000D03*
D17*
X120900000Y-95140000D03*
%TD*%
D18*
%TO.C,J4*%
X188032500Y-63450000D03*
D19*
X188032500Y-68450000D03*
X188032500Y-73450000D03*
X188032500Y-78450000D03*
X188032500Y-83450000D03*
X188032500Y-88450000D03*
X188032500Y-93450000D03*
X188032500Y-98450000D03*
%TD*%
D13*
%TO.C,TH4*%
X121100000Y-80550000D03*
D14*
X121100000Y-82550000D03*
%TD*%
D13*
%TO.C,TH2*%
X121100000Y-66350000D03*
D14*
X121100000Y-68350000D03*
%TD*%
D10*
%TO.C,J14*%
X137300000Y-93900000D03*
D11*
X139300000Y-93900000D03*
X141300000Y-93900000D03*
X143300000Y-93900000D03*
X145300000Y-93900000D03*
X147300000Y-93900000D03*
%TD*%
D13*
%TO.C,TH3*%
X121100000Y-73450000D03*
D14*
X121100000Y-75450000D03*
%TD*%
D10*
%TO.C,J7*%
X151170000Y-108050000D03*
D11*
X153170000Y-108050000D03*
%TD*%
D12*
%TO.C,J13*%
X168932500Y-80000000D03*
D11*
X166932500Y-80000000D03*
%TD*%
D12*
%TO.C,SW1*%
X136000000Y-80300000D03*
D11*
X134000000Y-80300000D03*
%TD*%
D20*
%TO.C,H2*%
X121100000Y-108600000D03*
%TD*%
%TO.C,H4*%
X189100000Y-53200000D03*
%TD*%
D21*
%TO.C,J12*%
X163000000Y-64700000D03*
D14*
X163000000Y-62700000D03*
X163000000Y-60700000D03*
X163000000Y-58700000D03*
X163000000Y-56700000D03*
X163000000Y-54700000D03*
%TD*%
D13*
%TO.C,J2*%
X121100000Y-100400000D03*
D14*
X121100000Y-102400000D03*
%TD*%
D20*
%TO.C,H3*%
X189100000Y-108600000D03*
%TD*%
D12*
%TO.C,J5*%
X144200000Y-80300000D03*
D11*
X142200000Y-80300000D03*
%TD*%
D20*
%TO.C,H1*%
X121100000Y-53200000D03*
%TD*%
D12*
%TO.C,J15*%
X171200000Y-56950000D03*
D11*
X169200000Y-56950000D03*
%TD*%
D12*
%TO.C,J6*%
X130150000Y-62050000D03*
D11*
X128150000Y-62050000D03*
%TD*%
D10*
%TO.C,J11*%
X152300000Y-87700000D03*
D11*
X154300000Y-87700000D03*
X156300000Y-87700000D03*
X158300000Y-87700000D03*
%TD*%
D22*
%TO.C,C16*%
X168370000Y-91250000D03*
X170095000Y-91250000D03*
%TD*%
D23*
%TO.C,C7*%
X141600000Y-52937500D03*
X141600000Y-54662500D03*
%TD*%
D22*
%TO.C,C4*%
X128237500Y-77200000D03*
X129962500Y-77200000D03*
%TD*%
%TO.C,C2*%
X128250000Y-80200000D03*
X129975000Y-80200000D03*
%TD*%
%TO.C,C6*%
X133337500Y-68400000D03*
X135062500Y-68400000D03*
%TD*%
D24*
%TO.C,R19*%
X170145000Y-89750000D03*
X168320000Y-89750000D03*
%TD*%
D22*
%TO.C,C17*%
X168370000Y-71250000D03*
X170095000Y-71250000D03*
%TD*%
D25*
%TO.C,R24*%
X139500000Y-103125000D03*
X139500000Y-101300000D03*
%TD*%
D22*
%TO.C,C1*%
X128287500Y-81750000D03*
X130012500Y-81750000D03*
%TD*%
D25*
%TO.C,R22*%
X143100000Y-103125000D03*
X143100000Y-101300000D03*
%TD*%
D26*
%TO.C,R44*%
X178730000Y-55950000D03*
X178730000Y-62050000D03*
%TD*%
D24*
%TO.C,R32*%
X152112500Y-83100000D03*
X150287500Y-83100000D03*
%TD*%
%TO.C,R3*%
X130512500Y-85500000D03*
X128687500Y-85500000D03*
%TD*%
D22*
%TO.C,C8*%
X132137500Y-99700000D03*
X133862500Y-99700000D03*
%TD*%
D25*
%TO.C,R23*%
X141012500Y-103125000D03*
X141012500Y-101300000D03*
%TD*%
D27*
%TO.C,C9*%
X128400000Y-68400000D03*
X126675000Y-68400000D03*
%TD*%
D22*
%TO.C,C3*%
X128237500Y-78700000D03*
X129962500Y-78700000D03*
%TD*%
D25*
%TO.C,R10*%
X133700000Y-55750000D03*
X133700000Y-53925000D03*
%TD*%
D24*
%TO.C,R18*%
X170145000Y-69750000D03*
X168320000Y-69750000D03*
%TD*%
D23*
%TO.C,C12*%
X130900000Y-70037500D03*
X130900000Y-71762500D03*
%TD*%
%TO.C,C23*%
X139700000Y-65675000D03*
X139700000Y-67400000D03*
%TD*%
D25*
%TO.C,R20*%
X146100000Y-103125000D03*
X146100000Y-101300000D03*
%TD*%
%TO.C,R21*%
X144600000Y-103125000D03*
X144600000Y-101300000D03*
%TD*%
D28*
%TO.C,R11*%
X160287500Y-78000000D03*
X162112500Y-78000000D03*
%TD*%
D29*
%TO.C,R12*%
X178700000Y-91400000D03*
X178700000Y-85600000D03*
%TD*%
D30*
%TO.C,C14*%
X135400000Y-55700000D03*
X135400000Y-53975000D03*
%TD*%
D29*
%TO.C,R15*%
X178750000Y-71350000D03*
X178750000Y-65550000D03*
%TD*%
D31*
%TO.C,R42*%
X178700000Y-101050000D03*
X178700000Y-94950000D03*
%TD*%
%TO.C,R46*%
X181000000Y-80050000D03*
X181000000Y-73950000D03*
%TD*%
D30*
%TO.C,C5*%
X136400000Y-103062500D03*
X136400000Y-101337500D03*
%TD*%
%TO.C,C15*%
X151720000Y-102662500D03*
X151720000Y-100937500D03*
%TD*%
D28*
%TO.C,R34*%
X150287500Y-84700000D03*
X152112500Y-84700000D03*
%TD*%
D26*
%TO.C,R41*%
X176500000Y-76950000D03*
X176500000Y-83050000D03*
%TD*%
D32*
%TO.C,U4*%
X132262500Y-103150000D03*
X132262500Y-102200000D03*
X132262500Y-101250000D03*
X134537500Y-101250000D03*
X134537500Y-103150000D03*
%TD*%
D22*
%TO.C,C20*%
X160337500Y-76400000D03*
X162062500Y-76400000D03*
%TD*%
D33*
%TO.C,D2*%
X131950000Y-87500000D03*
X128650000Y-87500000D03*
%TD*%
D22*
%TO.C,C11*%
X133300000Y-73400000D03*
X135025000Y-73400000D03*
%TD*%
D25*
%TO.C,R25*%
X137997500Y-103125000D03*
X137997500Y-101300000D03*
%TD*%
D27*
%TO.C,C10*%
X128462500Y-73400000D03*
X126737500Y-73400000D03*
%TD*%
M02*
