%TF.GenerationSoftware,KiCad,Pcbnew,9.0.7*%
%TF.CreationDate,2026-03-17T16:13:23+01:00*%
%TF.ProjectId,power_logger,706f7765-725f-46c6-9f67-6765722e6b69,rev?*%
%TF.SameCoordinates,Original*%
%TF.FileFunction,Legend,Top*%
%TF.FilePolarity,Positive*%
%FSLAX46Y46*%
G04 Gerber Fmt 4.6, Leading zero omitted, Abs format (unit mm)*
G04 Created by KiCad (PCBNEW 9.0.7) date 2026-03-17 16:13:23*
%MOMM*%
%LPD*%
G01*
G04 APERTURE LIST*
%ADD10C,0.083820*%
%ADD11C,0.150000*%
%ADD12C,0.254000*%
%ADD13C,0.120000*%
G04 APERTURE END LIST*
D10*
X156300000Y-103500000D02*
X186300000Y-103500000D01*
X186300000Y-111000000D02*
X156300000Y-111000000D01*
X186300000Y-103500000D02*
X186300000Y-111000000D01*
X156300000Y-111000000D02*
X156300000Y-103500000D01*
D11*
X159692857Y-82181009D02*
X159835714Y-82228628D01*
X159835714Y-82228628D02*
X159883333Y-82276247D01*
X159883333Y-82276247D02*
X159930952Y-82371485D01*
X159930952Y-82371485D02*
X159930952Y-82514342D01*
X159930952Y-82514342D02*
X159883333Y-82609580D01*
X159883333Y-82609580D02*
X159835714Y-82657200D01*
X159835714Y-82657200D02*
X159740476Y-82704819D01*
X159740476Y-82704819D02*
X159359524Y-82704819D01*
X159359524Y-82704819D02*
X159359524Y-81704819D01*
X159359524Y-81704819D02*
X159692857Y-81704819D01*
X159692857Y-81704819D02*
X159788095Y-81752438D01*
X159788095Y-81752438D02*
X159835714Y-81800057D01*
X159835714Y-81800057D02*
X159883333Y-81895295D01*
X159883333Y-81895295D02*
X159883333Y-81990533D01*
X159883333Y-81990533D02*
X159835714Y-82085771D01*
X159835714Y-82085771D02*
X159788095Y-82133390D01*
X159788095Y-82133390D02*
X159692857Y-82181009D01*
X159692857Y-82181009D02*
X159359524Y-82181009D01*
X160550000Y-81704819D02*
X160740476Y-81704819D01*
X160740476Y-81704819D02*
X160835714Y-81752438D01*
X160835714Y-81752438D02*
X160930952Y-81847676D01*
X160930952Y-81847676D02*
X160978571Y-82038152D01*
X160978571Y-82038152D02*
X160978571Y-82371485D01*
X160978571Y-82371485D02*
X160930952Y-82561961D01*
X160930952Y-82561961D02*
X160835714Y-82657200D01*
X160835714Y-82657200D02*
X160740476Y-82704819D01*
X160740476Y-82704819D02*
X160550000Y-82704819D01*
X160550000Y-82704819D02*
X160454762Y-82657200D01*
X160454762Y-82657200D02*
X160359524Y-82561961D01*
X160359524Y-82561961D02*
X160311905Y-82371485D01*
X160311905Y-82371485D02*
X160311905Y-82038152D01*
X160311905Y-82038152D02*
X160359524Y-81847676D01*
X160359524Y-81847676D02*
X160454762Y-81752438D01*
X160454762Y-81752438D02*
X160550000Y-81704819D01*
X161597619Y-81704819D02*
X161788095Y-81704819D01*
X161788095Y-81704819D02*
X161883333Y-81752438D01*
X161883333Y-81752438D02*
X161978571Y-81847676D01*
X161978571Y-81847676D02*
X162026190Y-82038152D01*
X162026190Y-82038152D02*
X162026190Y-82371485D01*
X162026190Y-82371485D02*
X161978571Y-82561961D01*
X161978571Y-82561961D02*
X161883333Y-82657200D01*
X161883333Y-82657200D02*
X161788095Y-82704819D01*
X161788095Y-82704819D02*
X161597619Y-82704819D01*
X161597619Y-82704819D02*
X161502381Y-82657200D01*
X161502381Y-82657200D02*
X161407143Y-82561961D01*
X161407143Y-82561961D02*
X161359524Y-82371485D01*
X161359524Y-82371485D02*
X161359524Y-82038152D01*
X161359524Y-82038152D02*
X161407143Y-81847676D01*
X161407143Y-81847676D02*
X161502381Y-81752438D01*
X161502381Y-81752438D02*
X161597619Y-81704819D01*
X162311905Y-81704819D02*
X162883333Y-81704819D01*
X162597619Y-82704819D02*
X162597619Y-81704819D01*
X166836779Y-52846009D02*
X167170112Y-52846009D01*
X167312969Y-53369819D02*
X166836779Y-53369819D01*
X166836779Y-53369819D02*
X166836779Y-52369819D01*
X166836779Y-52369819D02*
X167312969Y-52369819D01*
X167646303Y-53369819D02*
X168170112Y-52703152D01*
X167646303Y-52703152D02*
X168170112Y-53369819D01*
X168408208Y-52703152D02*
X168789160Y-52703152D01*
X168551065Y-52369819D02*
X168551065Y-53226961D01*
X168551065Y-53226961D02*
X168598684Y-53322200D01*
X168598684Y-53322200D02*
X168693922Y-53369819D01*
X168693922Y-53369819D02*
X168789160Y-53369819D01*
X168884399Y-53465057D02*
X169646303Y-53465057D01*
X169836780Y-53322200D02*
X169932018Y-53369819D01*
X169932018Y-53369819D02*
X170122494Y-53369819D01*
X170122494Y-53369819D02*
X170217732Y-53322200D01*
X170217732Y-53322200D02*
X170265351Y-53226961D01*
X170265351Y-53226961D02*
X170265351Y-53179342D01*
X170265351Y-53179342D02*
X170217732Y-53084104D01*
X170217732Y-53084104D02*
X170122494Y-53036485D01*
X170122494Y-53036485D02*
X169979637Y-53036485D01*
X169979637Y-53036485D02*
X169884399Y-52988866D01*
X169884399Y-52988866D02*
X169836780Y-52893628D01*
X169836780Y-52893628D02*
X169836780Y-52846009D01*
X169836780Y-52846009D02*
X169884399Y-52750771D01*
X169884399Y-52750771D02*
X169979637Y-52703152D01*
X169979637Y-52703152D02*
X170122494Y-52703152D01*
X170122494Y-52703152D02*
X170217732Y-52750771D01*
X171074875Y-53322200D02*
X170979637Y-53369819D01*
X170979637Y-53369819D02*
X170789161Y-53369819D01*
X170789161Y-53369819D02*
X170693923Y-53322200D01*
X170693923Y-53322200D02*
X170646304Y-53226961D01*
X170646304Y-53226961D02*
X170646304Y-52846009D01*
X170646304Y-52846009D02*
X170693923Y-52750771D01*
X170693923Y-52750771D02*
X170789161Y-52703152D01*
X170789161Y-52703152D02*
X170979637Y-52703152D01*
X170979637Y-52703152D02*
X171074875Y-52750771D01*
X171074875Y-52750771D02*
X171122494Y-52846009D01*
X171122494Y-52846009D02*
X171122494Y-52941247D01*
X171122494Y-52941247D02*
X170646304Y-53036485D01*
X171551066Y-52703152D02*
X171551066Y-53369819D01*
X171551066Y-52798390D02*
X171598685Y-52750771D01*
X171598685Y-52750771D02*
X171693923Y-52703152D01*
X171693923Y-52703152D02*
X171836780Y-52703152D01*
X171836780Y-52703152D02*
X171932018Y-52750771D01*
X171932018Y-52750771D02*
X171979637Y-52846009D01*
X171979637Y-52846009D02*
X171979637Y-53369819D01*
X172408209Y-53322200D02*
X172503447Y-53369819D01*
X172503447Y-53369819D02*
X172693923Y-53369819D01*
X172693923Y-53369819D02*
X172789161Y-53322200D01*
X172789161Y-53322200D02*
X172836780Y-53226961D01*
X172836780Y-53226961D02*
X172836780Y-53179342D01*
X172836780Y-53179342D02*
X172789161Y-53084104D01*
X172789161Y-53084104D02*
X172693923Y-53036485D01*
X172693923Y-53036485D02*
X172551066Y-53036485D01*
X172551066Y-53036485D02*
X172455828Y-52988866D01*
X172455828Y-52988866D02*
X172408209Y-52893628D01*
X172408209Y-52893628D02*
X172408209Y-52846009D01*
X172408209Y-52846009D02*
X172455828Y-52750771D01*
X172455828Y-52750771D02*
X172551066Y-52703152D01*
X172551066Y-52703152D02*
X172693923Y-52703152D01*
X172693923Y-52703152D02*
X172789161Y-52750771D01*
X173646304Y-53322200D02*
X173551066Y-53369819D01*
X173551066Y-53369819D02*
X173360590Y-53369819D01*
X173360590Y-53369819D02*
X173265352Y-53322200D01*
X173265352Y-53322200D02*
X173217733Y-53226961D01*
X173217733Y-53226961D02*
X173217733Y-52846009D01*
X173217733Y-52846009D02*
X173265352Y-52750771D01*
X173265352Y-52750771D02*
X173360590Y-52703152D01*
X173360590Y-52703152D02*
X173551066Y-52703152D01*
X173551066Y-52703152D02*
X173646304Y-52750771D01*
X173646304Y-52750771D02*
X173693923Y-52846009D01*
X173693923Y-52846009D02*
X173693923Y-52941247D01*
X173693923Y-52941247D02*
X173217733Y-53036485D01*
X161173810Y-88404819D02*
X161173810Y-87404819D01*
X161602381Y-87500057D02*
X161650000Y-87452438D01*
X161650000Y-87452438D02*
X161745238Y-87404819D01*
X161745238Y-87404819D02*
X161983333Y-87404819D01*
X161983333Y-87404819D02*
X162078571Y-87452438D01*
X162078571Y-87452438D02*
X162126190Y-87500057D01*
X162126190Y-87500057D02*
X162173809Y-87595295D01*
X162173809Y-87595295D02*
X162173809Y-87690533D01*
X162173809Y-87690533D02*
X162126190Y-87833390D01*
X162126190Y-87833390D02*
X161554762Y-88404819D01*
X161554762Y-88404819D02*
X162173809Y-88404819D01*
X163173809Y-88309580D02*
X163126190Y-88357200D01*
X163126190Y-88357200D02*
X162983333Y-88404819D01*
X162983333Y-88404819D02*
X162888095Y-88404819D01*
X162888095Y-88404819D02*
X162745238Y-88357200D01*
X162745238Y-88357200D02*
X162650000Y-88261961D01*
X162650000Y-88261961D02*
X162602381Y-88166723D01*
X162602381Y-88166723D02*
X162554762Y-87976247D01*
X162554762Y-87976247D02*
X162554762Y-87833390D01*
X162554762Y-87833390D02*
X162602381Y-87642914D01*
X162602381Y-87642914D02*
X162650000Y-87547676D01*
X162650000Y-87547676D02*
X162745238Y-87452438D01*
X162745238Y-87452438D02*
X162888095Y-87404819D01*
X162888095Y-87404819D02*
X162983333Y-87404819D01*
X162983333Y-87404819D02*
X163126190Y-87452438D01*
X163126190Y-87452438D02*
X163173809Y-87500057D01*
X145812969Y-74669819D02*
X145336779Y-74669819D01*
X145336779Y-74669819D02*
X145336779Y-73669819D01*
X146289160Y-74669819D02*
X146193922Y-74622200D01*
X146193922Y-74622200D02*
X146146303Y-74574580D01*
X146146303Y-74574580D02*
X146098684Y-74479342D01*
X146098684Y-74479342D02*
X146098684Y-74193628D01*
X146098684Y-74193628D02*
X146146303Y-74098390D01*
X146146303Y-74098390D02*
X146193922Y-74050771D01*
X146193922Y-74050771D02*
X146289160Y-74003152D01*
X146289160Y-74003152D02*
X146432017Y-74003152D01*
X146432017Y-74003152D02*
X146527255Y-74050771D01*
X146527255Y-74050771D02*
X146574874Y-74098390D01*
X146574874Y-74098390D02*
X146622493Y-74193628D01*
X146622493Y-74193628D02*
X146622493Y-74479342D01*
X146622493Y-74479342D02*
X146574874Y-74574580D01*
X146574874Y-74574580D02*
X146527255Y-74622200D01*
X146527255Y-74622200D02*
X146432017Y-74669819D01*
X146432017Y-74669819D02*
X146289160Y-74669819D01*
X147479636Y-74003152D02*
X147479636Y-74812676D01*
X147479636Y-74812676D02*
X147432017Y-74907914D01*
X147432017Y-74907914D02*
X147384398Y-74955533D01*
X147384398Y-74955533D02*
X147289160Y-75003152D01*
X147289160Y-75003152D02*
X147146303Y-75003152D01*
X147146303Y-75003152D02*
X147051065Y-74955533D01*
X147479636Y-74622200D02*
X147384398Y-74669819D01*
X147384398Y-74669819D02*
X147193922Y-74669819D01*
X147193922Y-74669819D02*
X147098684Y-74622200D01*
X147098684Y-74622200D02*
X147051065Y-74574580D01*
X147051065Y-74574580D02*
X147003446Y-74479342D01*
X147003446Y-74479342D02*
X147003446Y-74193628D01*
X147003446Y-74193628D02*
X147051065Y-74098390D01*
X147051065Y-74098390D02*
X147098684Y-74050771D01*
X147098684Y-74050771D02*
X147193922Y-74003152D01*
X147193922Y-74003152D02*
X147384398Y-74003152D01*
X147384398Y-74003152D02*
X147479636Y-74050771D01*
X151789160Y-84022200D02*
X151932017Y-84069819D01*
X151932017Y-84069819D02*
X152170112Y-84069819D01*
X152170112Y-84069819D02*
X152265350Y-84022200D01*
X152265350Y-84022200D02*
X152312969Y-83974580D01*
X152312969Y-83974580D02*
X152360588Y-83879342D01*
X152360588Y-83879342D02*
X152360588Y-83784104D01*
X152360588Y-83784104D02*
X152312969Y-83688866D01*
X152312969Y-83688866D02*
X152265350Y-83641247D01*
X152265350Y-83641247D02*
X152170112Y-83593628D01*
X152170112Y-83593628D02*
X151979636Y-83546009D01*
X151979636Y-83546009D02*
X151884398Y-83498390D01*
X151884398Y-83498390D02*
X151836779Y-83450771D01*
X151836779Y-83450771D02*
X151789160Y-83355533D01*
X151789160Y-83355533D02*
X151789160Y-83260295D01*
X151789160Y-83260295D02*
X151836779Y-83165057D01*
X151836779Y-83165057D02*
X151884398Y-83117438D01*
X151884398Y-83117438D02*
X151979636Y-83069819D01*
X151979636Y-83069819D02*
X152217731Y-83069819D01*
X152217731Y-83069819D02*
X152360588Y-83117438D01*
X152646303Y-83403152D02*
X153027255Y-83403152D01*
X152789160Y-83069819D02*
X152789160Y-83926961D01*
X152789160Y-83926961D02*
X152836779Y-84022200D01*
X152836779Y-84022200D02*
X152932017Y-84069819D01*
X152932017Y-84069819D02*
X153027255Y-84069819D01*
X153789160Y-84069819D02*
X153789160Y-83546009D01*
X153789160Y-83546009D02*
X153741541Y-83450771D01*
X153741541Y-83450771D02*
X153646303Y-83403152D01*
X153646303Y-83403152D02*
X153455827Y-83403152D01*
X153455827Y-83403152D02*
X153360589Y-83450771D01*
X153789160Y-84022200D02*
X153693922Y-84069819D01*
X153693922Y-84069819D02*
X153455827Y-84069819D01*
X153455827Y-84069819D02*
X153360589Y-84022200D01*
X153360589Y-84022200D02*
X153312970Y-83926961D01*
X153312970Y-83926961D02*
X153312970Y-83831723D01*
X153312970Y-83831723D02*
X153360589Y-83736485D01*
X153360589Y-83736485D02*
X153455827Y-83688866D01*
X153455827Y-83688866D02*
X153693922Y-83688866D01*
X153693922Y-83688866D02*
X153789160Y-83641247D01*
X154265351Y-84069819D02*
X154265351Y-83403152D01*
X154265351Y-83593628D02*
X154312970Y-83498390D01*
X154312970Y-83498390D02*
X154360589Y-83450771D01*
X154360589Y-83450771D02*
X154455827Y-83403152D01*
X154455827Y-83403152D02*
X154551065Y-83403152D01*
X154741542Y-83403152D02*
X155122494Y-83403152D01*
X154884399Y-83069819D02*
X154884399Y-83926961D01*
X154884399Y-83926961D02*
X154932018Y-84022200D01*
X154932018Y-84022200D02*
X155027256Y-84069819D01*
X155027256Y-84069819D02*
X155122494Y-84069819D01*
X132627255Y-82769819D02*
X132817731Y-82769819D01*
X132817731Y-82769819D02*
X132912969Y-82817438D01*
X132912969Y-82817438D02*
X133008207Y-82912676D01*
X133008207Y-82912676D02*
X133055826Y-83103152D01*
X133055826Y-83103152D02*
X133055826Y-83436485D01*
X133055826Y-83436485D02*
X133008207Y-83626961D01*
X133008207Y-83626961D02*
X132912969Y-83722200D01*
X132912969Y-83722200D02*
X132817731Y-83769819D01*
X132817731Y-83769819D02*
X132627255Y-83769819D01*
X132627255Y-83769819D02*
X132532017Y-83722200D01*
X132532017Y-83722200D02*
X132436779Y-83626961D01*
X132436779Y-83626961D02*
X132389160Y-83436485D01*
X132389160Y-83436485D02*
X132389160Y-83103152D01*
X132389160Y-83103152D02*
X132436779Y-82912676D01*
X132436779Y-82912676D02*
X132532017Y-82817438D01*
X132532017Y-82817438D02*
X132627255Y-82769819D01*
X133484398Y-83769819D02*
X133484398Y-82769819D01*
X133484398Y-82769819D02*
X134055826Y-83769819D01*
X134055826Y-83769819D02*
X134055826Y-82769819D01*
X135246302Y-82722200D02*
X134389160Y-84007914D01*
X135770112Y-82769819D02*
X135960588Y-82769819D01*
X135960588Y-82769819D02*
X136055826Y-82817438D01*
X136055826Y-82817438D02*
X136151064Y-82912676D01*
X136151064Y-82912676D02*
X136198683Y-83103152D01*
X136198683Y-83103152D02*
X136198683Y-83436485D01*
X136198683Y-83436485D02*
X136151064Y-83626961D01*
X136151064Y-83626961D02*
X136055826Y-83722200D01*
X136055826Y-83722200D02*
X135960588Y-83769819D01*
X135960588Y-83769819D02*
X135770112Y-83769819D01*
X135770112Y-83769819D02*
X135674874Y-83722200D01*
X135674874Y-83722200D02*
X135579636Y-83626961D01*
X135579636Y-83626961D02*
X135532017Y-83436485D01*
X135532017Y-83436485D02*
X135532017Y-83103152D01*
X135532017Y-83103152D02*
X135579636Y-82912676D01*
X135579636Y-82912676D02*
X135674874Y-82817438D01*
X135674874Y-82817438D02*
X135770112Y-82769819D01*
X136960588Y-83246009D02*
X136627255Y-83246009D01*
X136627255Y-83769819D02*
X136627255Y-82769819D01*
X136627255Y-82769819D02*
X137103445Y-82769819D01*
X137817731Y-83246009D02*
X137484398Y-83246009D01*
X137484398Y-83769819D02*
X137484398Y-82769819D01*
X137484398Y-82769819D02*
X137960588Y-82769819D01*
X141012969Y-83719819D02*
X140536779Y-83719819D01*
X140536779Y-83719819D02*
X140536779Y-82719819D01*
X141489160Y-83719819D02*
X141393922Y-83672200D01*
X141393922Y-83672200D02*
X141346303Y-83624580D01*
X141346303Y-83624580D02*
X141298684Y-83529342D01*
X141298684Y-83529342D02*
X141298684Y-83243628D01*
X141298684Y-83243628D02*
X141346303Y-83148390D01*
X141346303Y-83148390D02*
X141393922Y-83100771D01*
X141393922Y-83100771D02*
X141489160Y-83053152D01*
X141489160Y-83053152D02*
X141632017Y-83053152D01*
X141632017Y-83053152D02*
X141727255Y-83100771D01*
X141727255Y-83100771D02*
X141774874Y-83148390D01*
X141774874Y-83148390D02*
X141822493Y-83243628D01*
X141822493Y-83243628D02*
X141822493Y-83529342D01*
X141822493Y-83529342D02*
X141774874Y-83624580D01*
X141774874Y-83624580D02*
X141727255Y-83672200D01*
X141727255Y-83672200D02*
X141632017Y-83719819D01*
X141632017Y-83719819D02*
X141489160Y-83719819D01*
X142679636Y-83053152D02*
X142679636Y-83862676D01*
X142679636Y-83862676D02*
X142632017Y-83957914D01*
X142632017Y-83957914D02*
X142584398Y-84005533D01*
X142584398Y-84005533D02*
X142489160Y-84053152D01*
X142489160Y-84053152D02*
X142346303Y-84053152D01*
X142346303Y-84053152D02*
X142251065Y-84005533D01*
X142679636Y-83672200D02*
X142584398Y-83719819D01*
X142584398Y-83719819D02*
X142393922Y-83719819D01*
X142393922Y-83719819D02*
X142298684Y-83672200D01*
X142298684Y-83672200D02*
X142251065Y-83624580D01*
X142251065Y-83624580D02*
X142203446Y-83529342D01*
X142203446Y-83529342D02*
X142203446Y-83243628D01*
X142203446Y-83243628D02*
X142251065Y-83148390D01*
X142251065Y-83148390D02*
X142298684Y-83100771D01*
X142298684Y-83100771D02*
X142393922Y-83053152D01*
X142393922Y-83053152D02*
X142584398Y-83053152D01*
X142584398Y-83053152D02*
X142679636Y-83100771D01*
X144060589Y-83719819D02*
X143965351Y-83672200D01*
X143965351Y-83672200D02*
X143917732Y-83576961D01*
X143917732Y-83576961D02*
X143917732Y-82719819D01*
X144822494Y-83672200D02*
X144727256Y-83719819D01*
X144727256Y-83719819D02*
X144536780Y-83719819D01*
X144536780Y-83719819D02*
X144441542Y-83672200D01*
X144441542Y-83672200D02*
X144393923Y-83576961D01*
X144393923Y-83576961D02*
X144393923Y-83196009D01*
X144393923Y-83196009D02*
X144441542Y-83100771D01*
X144441542Y-83100771D02*
X144536780Y-83053152D01*
X144536780Y-83053152D02*
X144727256Y-83053152D01*
X144727256Y-83053152D02*
X144822494Y-83100771D01*
X144822494Y-83100771D02*
X144870113Y-83196009D01*
X144870113Y-83196009D02*
X144870113Y-83291247D01*
X144870113Y-83291247D02*
X144393923Y-83386485D01*
X145727256Y-83719819D02*
X145727256Y-82719819D01*
X145727256Y-83672200D02*
X145632018Y-83719819D01*
X145632018Y-83719819D02*
X145441542Y-83719819D01*
X145441542Y-83719819D02*
X145346304Y-83672200D01*
X145346304Y-83672200D02*
X145298685Y-83624580D01*
X145298685Y-83624580D02*
X145251066Y-83529342D01*
X145251066Y-83529342D02*
X145251066Y-83243628D01*
X145251066Y-83243628D02*
X145298685Y-83148390D01*
X145298685Y-83148390D02*
X145346304Y-83100771D01*
X145346304Y-83100771D02*
X145441542Y-83053152D01*
X145441542Y-83053152D02*
X145632018Y-83053152D01*
X145632018Y-83053152D02*
X145727256Y-83100771D01*
X124554819Y-69042856D02*
X123554819Y-69042856D01*
X123554819Y-69042856D02*
X124554819Y-68471428D01*
X124554819Y-68471428D02*
X123554819Y-68471428D01*
X123554819Y-68138094D02*
X123554819Y-67566666D01*
X124554819Y-67852380D02*
X123554819Y-67852380D01*
X124459580Y-66661904D02*
X124507200Y-66709523D01*
X124507200Y-66709523D02*
X124554819Y-66852380D01*
X124554819Y-66852380D02*
X124554819Y-66947618D01*
X124554819Y-66947618D02*
X124507200Y-67090475D01*
X124507200Y-67090475D02*
X124411961Y-67185713D01*
X124411961Y-67185713D02*
X124316723Y-67233332D01*
X124316723Y-67233332D02*
X124126247Y-67280951D01*
X124126247Y-67280951D02*
X123983390Y-67280951D01*
X123983390Y-67280951D02*
X123792914Y-67233332D01*
X123792914Y-67233332D02*
X123697676Y-67185713D01*
X123697676Y-67185713D02*
X123602438Y-67090475D01*
X123602438Y-67090475D02*
X123554819Y-66947618D01*
X123554819Y-66947618D02*
X123554819Y-66852380D01*
X123554819Y-66852380D02*
X123602438Y-66709523D01*
X123602438Y-66709523D02*
X123650057Y-66661904D01*
X123650057Y-66280951D02*
X123602438Y-66233332D01*
X123602438Y-66233332D02*
X123554819Y-66138094D01*
X123554819Y-66138094D02*
X123554819Y-65899999D01*
X123554819Y-65899999D02*
X123602438Y-65804761D01*
X123602438Y-65804761D02*
X123650057Y-65757142D01*
X123650057Y-65757142D02*
X123745295Y-65709523D01*
X123745295Y-65709523D02*
X123840533Y-65709523D01*
X123840533Y-65709523D02*
X123983390Y-65757142D01*
X123983390Y-65757142D02*
X124554819Y-66328570D01*
X124554819Y-66328570D02*
X124554819Y-65709523D01*
X124554819Y-83142856D02*
X123554819Y-83142856D01*
X123554819Y-83142856D02*
X124554819Y-82571428D01*
X124554819Y-82571428D02*
X123554819Y-82571428D01*
X123554819Y-82238094D02*
X123554819Y-81666666D01*
X124554819Y-81952380D02*
X123554819Y-81952380D01*
X124459580Y-80761904D02*
X124507200Y-80809523D01*
X124507200Y-80809523D02*
X124554819Y-80952380D01*
X124554819Y-80952380D02*
X124554819Y-81047618D01*
X124554819Y-81047618D02*
X124507200Y-81190475D01*
X124507200Y-81190475D02*
X124411961Y-81285713D01*
X124411961Y-81285713D02*
X124316723Y-81333332D01*
X124316723Y-81333332D02*
X124126247Y-81380951D01*
X124126247Y-81380951D02*
X123983390Y-81380951D01*
X123983390Y-81380951D02*
X123792914Y-81333332D01*
X123792914Y-81333332D02*
X123697676Y-81285713D01*
X123697676Y-81285713D02*
X123602438Y-81190475D01*
X123602438Y-81190475D02*
X123554819Y-81047618D01*
X123554819Y-81047618D02*
X123554819Y-80952380D01*
X123554819Y-80952380D02*
X123602438Y-80809523D01*
X123602438Y-80809523D02*
X123650057Y-80761904D01*
X123888152Y-79904761D02*
X124554819Y-79904761D01*
X123507200Y-80142856D02*
X124221485Y-80380951D01*
X124221485Y-80380951D02*
X124221485Y-79761904D01*
X124554819Y-62242856D02*
X123554819Y-62242856D01*
X123554819Y-62242856D02*
X124554819Y-61671428D01*
X124554819Y-61671428D02*
X123554819Y-61671428D01*
X123554819Y-61338094D02*
X123554819Y-60766666D01*
X124554819Y-61052380D02*
X123554819Y-61052380D01*
X124459580Y-59861904D02*
X124507200Y-59909523D01*
X124507200Y-59909523D02*
X124554819Y-60052380D01*
X124554819Y-60052380D02*
X124554819Y-60147618D01*
X124554819Y-60147618D02*
X124507200Y-60290475D01*
X124507200Y-60290475D02*
X124411961Y-60385713D01*
X124411961Y-60385713D02*
X124316723Y-60433332D01*
X124316723Y-60433332D02*
X124126247Y-60480951D01*
X124126247Y-60480951D02*
X123983390Y-60480951D01*
X123983390Y-60480951D02*
X123792914Y-60433332D01*
X123792914Y-60433332D02*
X123697676Y-60385713D01*
X123697676Y-60385713D02*
X123602438Y-60290475D01*
X123602438Y-60290475D02*
X123554819Y-60147618D01*
X123554819Y-60147618D02*
X123554819Y-60052380D01*
X123554819Y-60052380D02*
X123602438Y-59909523D01*
X123602438Y-59909523D02*
X123650057Y-59861904D01*
X124554819Y-58909523D02*
X124554819Y-59480951D01*
X124554819Y-59195237D02*
X123554819Y-59195237D01*
X123554819Y-59195237D02*
X123697676Y-59290475D01*
X123697676Y-59290475D02*
X123792914Y-59385713D01*
X123792914Y-59385713D02*
X123840533Y-59480951D01*
X134002380Y-51754819D02*
X133669047Y-51278628D01*
X133430952Y-51754819D02*
X133430952Y-50754819D01*
X133430952Y-50754819D02*
X133811904Y-50754819D01*
X133811904Y-50754819D02*
X133907142Y-50802438D01*
X133907142Y-50802438D02*
X133954761Y-50850057D01*
X133954761Y-50850057D02*
X134002380Y-50945295D01*
X134002380Y-50945295D02*
X134002380Y-51088152D01*
X134002380Y-51088152D02*
X133954761Y-51183390D01*
X133954761Y-51183390D02*
X133907142Y-51231009D01*
X133907142Y-51231009D02*
X133811904Y-51278628D01*
X133811904Y-51278628D02*
X133430952Y-51278628D01*
X134383333Y-51707200D02*
X134526190Y-51754819D01*
X134526190Y-51754819D02*
X134764285Y-51754819D01*
X134764285Y-51754819D02*
X134859523Y-51707200D01*
X134859523Y-51707200D02*
X134907142Y-51659580D01*
X134907142Y-51659580D02*
X134954761Y-51564342D01*
X134954761Y-51564342D02*
X134954761Y-51469104D01*
X134954761Y-51469104D02*
X134907142Y-51373866D01*
X134907142Y-51373866D02*
X134859523Y-51326247D01*
X134859523Y-51326247D02*
X134764285Y-51278628D01*
X134764285Y-51278628D02*
X134573809Y-51231009D01*
X134573809Y-51231009D02*
X134478571Y-51183390D01*
X134478571Y-51183390D02*
X134430952Y-51135771D01*
X134430952Y-51135771D02*
X134383333Y-51040533D01*
X134383333Y-51040533D02*
X134383333Y-50945295D01*
X134383333Y-50945295D02*
X134430952Y-50850057D01*
X134430952Y-50850057D02*
X134478571Y-50802438D01*
X134478571Y-50802438D02*
X134573809Y-50754819D01*
X134573809Y-50754819D02*
X134811904Y-50754819D01*
X134811904Y-50754819D02*
X134954761Y-50802438D01*
X135240476Y-50754819D02*
X135811904Y-50754819D01*
X135526190Y-51754819D02*
X135526190Y-50754819D01*
X161173810Y-94654819D02*
X161173810Y-93654819D01*
X161602381Y-93750057D02*
X161650000Y-93702438D01*
X161650000Y-93702438D02*
X161745238Y-93654819D01*
X161745238Y-93654819D02*
X161983333Y-93654819D01*
X161983333Y-93654819D02*
X162078571Y-93702438D01*
X162078571Y-93702438D02*
X162126190Y-93750057D01*
X162126190Y-93750057D02*
X162173809Y-93845295D01*
X162173809Y-93845295D02*
X162173809Y-93940533D01*
X162173809Y-93940533D02*
X162126190Y-94083390D01*
X162126190Y-94083390D02*
X161554762Y-94654819D01*
X161554762Y-94654819D02*
X162173809Y-94654819D01*
X163173809Y-94559580D02*
X163126190Y-94607200D01*
X163126190Y-94607200D02*
X162983333Y-94654819D01*
X162983333Y-94654819D02*
X162888095Y-94654819D01*
X162888095Y-94654819D02*
X162745238Y-94607200D01*
X162745238Y-94607200D02*
X162650000Y-94511961D01*
X162650000Y-94511961D02*
X162602381Y-94416723D01*
X162602381Y-94416723D02*
X162554762Y-94226247D01*
X162554762Y-94226247D02*
X162554762Y-94083390D01*
X162554762Y-94083390D02*
X162602381Y-93892914D01*
X162602381Y-93892914D02*
X162650000Y-93797676D01*
X162650000Y-93797676D02*
X162745238Y-93702438D01*
X162745238Y-93702438D02*
X162888095Y-93654819D01*
X162888095Y-93654819D02*
X162983333Y-93654819D01*
X162983333Y-93654819D02*
X163126190Y-93702438D01*
X163126190Y-93702438D02*
X163173809Y-93750057D01*
X141476191Y-91407200D02*
X141619048Y-91454819D01*
X141619048Y-91454819D02*
X141857143Y-91454819D01*
X141857143Y-91454819D02*
X141952381Y-91407200D01*
X141952381Y-91407200D02*
X142000000Y-91359580D01*
X142000000Y-91359580D02*
X142047619Y-91264342D01*
X142047619Y-91264342D02*
X142047619Y-91169104D01*
X142047619Y-91169104D02*
X142000000Y-91073866D01*
X142000000Y-91073866D02*
X141952381Y-91026247D01*
X141952381Y-91026247D02*
X141857143Y-90978628D01*
X141857143Y-90978628D02*
X141666667Y-90931009D01*
X141666667Y-90931009D02*
X141571429Y-90883390D01*
X141571429Y-90883390D02*
X141523810Y-90835771D01*
X141523810Y-90835771D02*
X141476191Y-90740533D01*
X141476191Y-90740533D02*
X141476191Y-90645295D01*
X141476191Y-90645295D02*
X141523810Y-90550057D01*
X141523810Y-90550057D02*
X141571429Y-90502438D01*
X141571429Y-90502438D02*
X141666667Y-90454819D01*
X141666667Y-90454819D02*
X141904762Y-90454819D01*
X141904762Y-90454819D02*
X142047619Y-90502438D01*
X142476191Y-91454819D02*
X142476191Y-90454819D01*
X142476191Y-90454819D02*
X142857143Y-90454819D01*
X142857143Y-90454819D02*
X142952381Y-90502438D01*
X142952381Y-90502438D02*
X143000000Y-90550057D01*
X143000000Y-90550057D02*
X143047619Y-90645295D01*
X143047619Y-90645295D02*
X143047619Y-90788152D01*
X143047619Y-90788152D02*
X143000000Y-90883390D01*
X143000000Y-90883390D02*
X142952381Y-90931009D01*
X142952381Y-90931009D02*
X142857143Y-90978628D01*
X142857143Y-90978628D02*
X142476191Y-90978628D01*
X143476191Y-91454819D02*
X143476191Y-90454819D01*
X132939160Y-62122200D02*
X133082017Y-62169819D01*
X133082017Y-62169819D02*
X133320112Y-62169819D01*
X133320112Y-62169819D02*
X133415350Y-62122200D01*
X133415350Y-62122200D02*
X133462969Y-62074580D01*
X133462969Y-62074580D02*
X133510588Y-61979342D01*
X133510588Y-61979342D02*
X133510588Y-61884104D01*
X133510588Y-61884104D02*
X133462969Y-61788866D01*
X133462969Y-61788866D02*
X133415350Y-61741247D01*
X133415350Y-61741247D02*
X133320112Y-61693628D01*
X133320112Y-61693628D02*
X133129636Y-61646009D01*
X133129636Y-61646009D02*
X133034398Y-61598390D01*
X133034398Y-61598390D02*
X132986779Y-61550771D01*
X132986779Y-61550771D02*
X132939160Y-61455533D01*
X132939160Y-61455533D02*
X132939160Y-61360295D01*
X132939160Y-61360295D02*
X132986779Y-61265057D01*
X132986779Y-61265057D02*
X133034398Y-61217438D01*
X133034398Y-61217438D02*
X133129636Y-61169819D01*
X133129636Y-61169819D02*
X133367731Y-61169819D01*
X133367731Y-61169819D02*
X133510588Y-61217438D01*
X133796303Y-61503152D02*
X134177255Y-61503152D01*
X133939160Y-61169819D02*
X133939160Y-62026961D01*
X133939160Y-62026961D02*
X133986779Y-62122200D01*
X133986779Y-62122200D02*
X134082017Y-62169819D01*
X134082017Y-62169819D02*
X134177255Y-62169819D01*
X134653446Y-62169819D02*
X134558208Y-62122200D01*
X134558208Y-62122200D02*
X134510589Y-62074580D01*
X134510589Y-62074580D02*
X134462970Y-61979342D01*
X134462970Y-61979342D02*
X134462970Y-61693628D01*
X134462970Y-61693628D02*
X134510589Y-61598390D01*
X134510589Y-61598390D02*
X134558208Y-61550771D01*
X134558208Y-61550771D02*
X134653446Y-61503152D01*
X134653446Y-61503152D02*
X134796303Y-61503152D01*
X134796303Y-61503152D02*
X134891541Y-61550771D01*
X134891541Y-61550771D02*
X134939160Y-61598390D01*
X134939160Y-61598390D02*
X134986779Y-61693628D01*
X134986779Y-61693628D02*
X134986779Y-61979342D01*
X134986779Y-61979342D02*
X134939160Y-62074580D01*
X134939160Y-62074580D02*
X134891541Y-62122200D01*
X134891541Y-62122200D02*
X134796303Y-62169819D01*
X134796303Y-62169819D02*
X134653446Y-62169819D01*
X135415351Y-61503152D02*
X135415351Y-62503152D01*
X135415351Y-61550771D02*
X135510589Y-61503152D01*
X135510589Y-61503152D02*
X135701065Y-61503152D01*
X135701065Y-61503152D02*
X135796303Y-61550771D01*
X135796303Y-61550771D02*
X135843922Y-61598390D01*
X135843922Y-61598390D02*
X135891541Y-61693628D01*
X135891541Y-61693628D02*
X135891541Y-61979342D01*
X135891541Y-61979342D02*
X135843922Y-62074580D01*
X135843922Y-62074580D02*
X135796303Y-62122200D01*
X135796303Y-62122200D02*
X135701065Y-62169819D01*
X135701065Y-62169819D02*
X135510589Y-62169819D01*
X135510589Y-62169819D02*
X135415351Y-62122200D01*
X164636779Y-75846009D02*
X164970112Y-75846009D01*
X165112969Y-76369819D02*
X164636779Y-76369819D01*
X164636779Y-76369819D02*
X164636779Y-75369819D01*
X164636779Y-75369819D02*
X165112969Y-75369819D01*
X165446303Y-76369819D02*
X165970112Y-75703152D01*
X165446303Y-75703152D02*
X165970112Y-76369819D01*
X166208208Y-75703152D02*
X166589160Y-75703152D01*
X166351065Y-75369819D02*
X166351065Y-76226961D01*
X166351065Y-76226961D02*
X166398684Y-76322200D01*
X166398684Y-76322200D02*
X166493922Y-76369819D01*
X166493922Y-76369819D02*
X166589160Y-76369819D01*
X166684399Y-76465057D02*
X167446303Y-76465057D01*
X167636780Y-76322200D02*
X167732018Y-76369819D01*
X167732018Y-76369819D02*
X167922494Y-76369819D01*
X167922494Y-76369819D02*
X168017732Y-76322200D01*
X168017732Y-76322200D02*
X168065351Y-76226961D01*
X168065351Y-76226961D02*
X168065351Y-76179342D01*
X168065351Y-76179342D02*
X168017732Y-76084104D01*
X168017732Y-76084104D02*
X167922494Y-76036485D01*
X167922494Y-76036485D02*
X167779637Y-76036485D01*
X167779637Y-76036485D02*
X167684399Y-75988866D01*
X167684399Y-75988866D02*
X167636780Y-75893628D01*
X167636780Y-75893628D02*
X167636780Y-75846009D01*
X167636780Y-75846009D02*
X167684399Y-75750771D01*
X167684399Y-75750771D02*
X167779637Y-75703152D01*
X167779637Y-75703152D02*
X167922494Y-75703152D01*
X167922494Y-75703152D02*
X168017732Y-75750771D01*
X168874875Y-76322200D02*
X168779637Y-76369819D01*
X168779637Y-76369819D02*
X168589161Y-76369819D01*
X168589161Y-76369819D02*
X168493923Y-76322200D01*
X168493923Y-76322200D02*
X168446304Y-76226961D01*
X168446304Y-76226961D02*
X168446304Y-75846009D01*
X168446304Y-75846009D02*
X168493923Y-75750771D01*
X168493923Y-75750771D02*
X168589161Y-75703152D01*
X168589161Y-75703152D02*
X168779637Y-75703152D01*
X168779637Y-75703152D02*
X168874875Y-75750771D01*
X168874875Y-75750771D02*
X168922494Y-75846009D01*
X168922494Y-75846009D02*
X168922494Y-75941247D01*
X168922494Y-75941247D02*
X168446304Y-76036485D01*
X169351066Y-75703152D02*
X169351066Y-76369819D01*
X169351066Y-75798390D02*
X169398685Y-75750771D01*
X169398685Y-75750771D02*
X169493923Y-75703152D01*
X169493923Y-75703152D02*
X169636780Y-75703152D01*
X169636780Y-75703152D02*
X169732018Y-75750771D01*
X169732018Y-75750771D02*
X169779637Y-75846009D01*
X169779637Y-75846009D02*
X169779637Y-76369819D01*
X170208209Y-76322200D02*
X170303447Y-76369819D01*
X170303447Y-76369819D02*
X170493923Y-76369819D01*
X170493923Y-76369819D02*
X170589161Y-76322200D01*
X170589161Y-76322200D02*
X170636780Y-76226961D01*
X170636780Y-76226961D02*
X170636780Y-76179342D01*
X170636780Y-76179342D02*
X170589161Y-76084104D01*
X170589161Y-76084104D02*
X170493923Y-76036485D01*
X170493923Y-76036485D02*
X170351066Y-76036485D01*
X170351066Y-76036485D02*
X170255828Y-75988866D01*
X170255828Y-75988866D02*
X170208209Y-75893628D01*
X170208209Y-75893628D02*
X170208209Y-75846009D01*
X170208209Y-75846009D02*
X170255828Y-75750771D01*
X170255828Y-75750771D02*
X170351066Y-75703152D01*
X170351066Y-75703152D02*
X170493923Y-75703152D01*
X170493923Y-75703152D02*
X170589161Y-75750771D01*
X171446304Y-76322200D02*
X171351066Y-76369819D01*
X171351066Y-76369819D02*
X171160590Y-76369819D01*
X171160590Y-76369819D02*
X171065352Y-76322200D01*
X171065352Y-76322200D02*
X171017733Y-76226961D01*
X171017733Y-76226961D02*
X171017733Y-75846009D01*
X171017733Y-75846009D02*
X171065352Y-75750771D01*
X171065352Y-75750771D02*
X171160590Y-75703152D01*
X171160590Y-75703152D02*
X171351066Y-75703152D01*
X171351066Y-75703152D02*
X171446304Y-75750771D01*
X171446304Y-75750771D02*
X171493923Y-75846009D01*
X171493923Y-75846009D02*
X171493923Y-75941247D01*
X171493923Y-75941247D02*
X171017733Y-76036485D01*
X124554819Y-76142856D02*
X123554819Y-76142856D01*
X123554819Y-76142856D02*
X124554819Y-75571428D01*
X124554819Y-75571428D02*
X123554819Y-75571428D01*
X123554819Y-75238094D02*
X123554819Y-74666666D01*
X124554819Y-74952380D02*
X123554819Y-74952380D01*
X124459580Y-73761904D02*
X124507200Y-73809523D01*
X124507200Y-73809523D02*
X124554819Y-73952380D01*
X124554819Y-73952380D02*
X124554819Y-74047618D01*
X124554819Y-74047618D02*
X124507200Y-74190475D01*
X124507200Y-74190475D02*
X124411961Y-74285713D01*
X124411961Y-74285713D02*
X124316723Y-74333332D01*
X124316723Y-74333332D02*
X124126247Y-74380951D01*
X124126247Y-74380951D02*
X123983390Y-74380951D01*
X123983390Y-74380951D02*
X123792914Y-74333332D01*
X123792914Y-74333332D02*
X123697676Y-74285713D01*
X123697676Y-74285713D02*
X123602438Y-74190475D01*
X123602438Y-74190475D02*
X123554819Y-74047618D01*
X123554819Y-74047618D02*
X123554819Y-73952380D01*
X123554819Y-73952380D02*
X123602438Y-73809523D01*
X123602438Y-73809523D02*
X123650057Y-73761904D01*
X123554819Y-73428570D02*
X123554819Y-72809523D01*
X123554819Y-72809523D02*
X123935771Y-73142856D01*
X123935771Y-73142856D02*
X123935771Y-72999999D01*
X123935771Y-72999999D02*
X123983390Y-72904761D01*
X123983390Y-72904761D02*
X124031009Y-72857142D01*
X124031009Y-72857142D02*
X124126247Y-72809523D01*
X124126247Y-72809523D02*
X124364342Y-72809523D01*
X124364342Y-72809523D02*
X124459580Y-72857142D01*
X124459580Y-72857142D02*
X124507200Y-72904761D01*
X124507200Y-72904761D02*
X124554819Y-72999999D01*
X124554819Y-72999999D02*
X124554819Y-73285713D01*
X124554819Y-73285713D02*
X124507200Y-73380951D01*
X124507200Y-73380951D02*
X124459580Y-73428570D01*
X172189642Y-84604819D02*
X171856309Y-84128628D01*
X171618214Y-84604819D02*
X171618214Y-83604819D01*
X171618214Y-83604819D02*
X171999166Y-83604819D01*
X171999166Y-83604819D02*
X172094404Y-83652438D01*
X172094404Y-83652438D02*
X172142023Y-83700057D01*
X172142023Y-83700057D02*
X172189642Y-83795295D01*
X172189642Y-83795295D02*
X172189642Y-83938152D01*
X172189642Y-83938152D02*
X172142023Y-84033390D01*
X172142023Y-84033390D02*
X172094404Y-84081009D01*
X172094404Y-84081009D02*
X171999166Y-84128628D01*
X171999166Y-84128628D02*
X171618214Y-84128628D01*
X173142023Y-84604819D02*
X172570595Y-84604819D01*
X172856309Y-84604819D02*
X172856309Y-83604819D01*
X172856309Y-83604819D02*
X172761071Y-83747676D01*
X172761071Y-83747676D02*
X172665833Y-83842914D01*
X172665833Y-83842914D02*
X172570595Y-83890533D01*
X173475357Y-83604819D02*
X174094404Y-83604819D01*
X174094404Y-83604819D02*
X173761071Y-83985771D01*
X173761071Y-83985771D02*
X173903928Y-83985771D01*
X173903928Y-83985771D02*
X173999166Y-84033390D01*
X173999166Y-84033390D02*
X174046785Y-84081009D01*
X174046785Y-84081009D02*
X174094404Y-84176247D01*
X174094404Y-84176247D02*
X174094404Y-84414342D01*
X174094404Y-84414342D02*
X174046785Y-84509580D01*
X174046785Y-84509580D02*
X173999166Y-84557200D01*
X173999166Y-84557200D02*
X173903928Y-84604819D01*
X173903928Y-84604819D02*
X173618214Y-84604819D01*
X173618214Y-84604819D02*
X173522976Y-84557200D01*
X173522976Y-84557200D02*
X173475357Y-84509580D01*
X129533333Y-100654819D02*
X129200000Y-100178628D01*
X128961905Y-100654819D02*
X128961905Y-99654819D01*
X128961905Y-99654819D02*
X129342857Y-99654819D01*
X129342857Y-99654819D02*
X129438095Y-99702438D01*
X129438095Y-99702438D02*
X129485714Y-99750057D01*
X129485714Y-99750057D02*
X129533333Y-99845295D01*
X129533333Y-99845295D02*
X129533333Y-99988152D01*
X129533333Y-99988152D02*
X129485714Y-100083390D01*
X129485714Y-100083390D02*
X129438095Y-100131009D01*
X129438095Y-100131009D02*
X129342857Y-100178628D01*
X129342857Y-100178628D02*
X128961905Y-100178628D01*
X129914286Y-99750057D02*
X129961905Y-99702438D01*
X129961905Y-99702438D02*
X130057143Y-99654819D01*
X130057143Y-99654819D02*
X130295238Y-99654819D01*
X130295238Y-99654819D02*
X130390476Y-99702438D01*
X130390476Y-99702438D02*
X130438095Y-99750057D01*
X130438095Y-99750057D02*
X130485714Y-99845295D01*
X130485714Y-99845295D02*
X130485714Y-99940533D01*
X130485714Y-99940533D02*
X130438095Y-100083390D01*
X130438095Y-100083390D02*
X129866667Y-100654819D01*
X129866667Y-100654819D02*
X130485714Y-100654819D01*
X126809580Y-54292857D02*
X126857200Y-54340476D01*
X126857200Y-54340476D02*
X126904819Y-54483333D01*
X126904819Y-54483333D02*
X126904819Y-54578571D01*
X126904819Y-54578571D02*
X126857200Y-54721428D01*
X126857200Y-54721428D02*
X126761961Y-54816666D01*
X126761961Y-54816666D02*
X126666723Y-54864285D01*
X126666723Y-54864285D02*
X126476247Y-54911904D01*
X126476247Y-54911904D02*
X126333390Y-54911904D01*
X126333390Y-54911904D02*
X126142914Y-54864285D01*
X126142914Y-54864285D02*
X126047676Y-54816666D01*
X126047676Y-54816666D02*
X125952438Y-54721428D01*
X125952438Y-54721428D02*
X125904819Y-54578571D01*
X125904819Y-54578571D02*
X125904819Y-54483333D01*
X125904819Y-54483333D02*
X125952438Y-54340476D01*
X125952438Y-54340476D02*
X126000057Y-54292857D01*
X126000057Y-53911904D02*
X125952438Y-53864285D01*
X125952438Y-53864285D02*
X125904819Y-53769047D01*
X125904819Y-53769047D02*
X125904819Y-53530952D01*
X125904819Y-53530952D02*
X125952438Y-53435714D01*
X125952438Y-53435714D02*
X126000057Y-53388095D01*
X126000057Y-53388095D02*
X126095295Y-53340476D01*
X126095295Y-53340476D02*
X126190533Y-53340476D01*
X126190533Y-53340476D02*
X126333390Y-53388095D01*
X126333390Y-53388095D02*
X126904819Y-53959523D01*
X126904819Y-53959523D02*
X126904819Y-53340476D01*
X126904819Y-52388095D02*
X126904819Y-52959523D01*
X126904819Y-52673809D02*
X125904819Y-52673809D01*
X125904819Y-52673809D02*
X126047676Y-52769047D01*
X126047676Y-52769047D02*
X126142914Y-52864285D01*
X126142914Y-52864285D02*
X126190533Y-52959523D01*
X128404819Y-54342857D02*
X127928628Y-54676190D01*
X128404819Y-54914285D02*
X127404819Y-54914285D01*
X127404819Y-54914285D02*
X127404819Y-54533333D01*
X127404819Y-54533333D02*
X127452438Y-54438095D01*
X127452438Y-54438095D02*
X127500057Y-54390476D01*
X127500057Y-54390476D02*
X127595295Y-54342857D01*
X127595295Y-54342857D02*
X127738152Y-54342857D01*
X127738152Y-54342857D02*
X127833390Y-54390476D01*
X127833390Y-54390476D02*
X127881009Y-54438095D01*
X127881009Y-54438095D02*
X127928628Y-54533333D01*
X127928628Y-54533333D02*
X127928628Y-54914285D01*
X127404819Y-54009523D02*
X127404819Y-53390476D01*
X127404819Y-53390476D02*
X127785771Y-53723809D01*
X127785771Y-53723809D02*
X127785771Y-53580952D01*
X127785771Y-53580952D02*
X127833390Y-53485714D01*
X127833390Y-53485714D02*
X127881009Y-53438095D01*
X127881009Y-53438095D02*
X127976247Y-53390476D01*
X127976247Y-53390476D02*
X128214342Y-53390476D01*
X128214342Y-53390476D02*
X128309580Y-53438095D01*
X128309580Y-53438095D02*
X128357200Y-53485714D01*
X128357200Y-53485714D02*
X128404819Y-53580952D01*
X128404819Y-53580952D02*
X128404819Y-53866666D01*
X128404819Y-53866666D02*
X128357200Y-53961904D01*
X128357200Y-53961904D02*
X128309580Y-54009523D01*
X127404819Y-53057142D02*
X127404819Y-52390476D01*
X127404819Y-52390476D02*
X128404819Y-52819047D01*
X173792080Y-69092857D02*
X173839700Y-69140476D01*
X173839700Y-69140476D02*
X173887319Y-69283333D01*
X173887319Y-69283333D02*
X173887319Y-69378571D01*
X173887319Y-69378571D02*
X173839700Y-69521428D01*
X173839700Y-69521428D02*
X173744461Y-69616666D01*
X173744461Y-69616666D02*
X173649223Y-69664285D01*
X173649223Y-69664285D02*
X173458747Y-69711904D01*
X173458747Y-69711904D02*
X173315890Y-69711904D01*
X173315890Y-69711904D02*
X173125414Y-69664285D01*
X173125414Y-69664285D02*
X173030176Y-69616666D01*
X173030176Y-69616666D02*
X172934938Y-69521428D01*
X172934938Y-69521428D02*
X172887319Y-69378571D01*
X172887319Y-69378571D02*
X172887319Y-69283333D01*
X172887319Y-69283333D02*
X172934938Y-69140476D01*
X172934938Y-69140476D02*
X172982557Y-69092857D01*
X173887319Y-68140476D02*
X173887319Y-68711904D01*
X173887319Y-68426190D02*
X172887319Y-68426190D01*
X172887319Y-68426190D02*
X173030176Y-68521428D01*
X173030176Y-68521428D02*
X173125414Y-68616666D01*
X173125414Y-68616666D02*
X173173033Y-68711904D01*
X173887319Y-67664285D02*
X173887319Y-67473809D01*
X173887319Y-67473809D02*
X173839700Y-67378571D01*
X173839700Y-67378571D02*
X173792080Y-67330952D01*
X173792080Y-67330952D02*
X173649223Y-67235714D01*
X173649223Y-67235714D02*
X173458747Y-67188095D01*
X173458747Y-67188095D02*
X173077795Y-67188095D01*
X173077795Y-67188095D02*
X172982557Y-67235714D01*
X172982557Y-67235714D02*
X172934938Y-67283333D01*
X172934938Y-67283333D02*
X172887319Y-67378571D01*
X172887319Y-67378571D02*
X172887319Y-67569047D01*
X172887319Y-67569047D02*
X172934938Y-67664285D01*
X172934938Y-67664285D02*
X172982557Y-67711904D01*
X172982557Y-67711904D02*
X173077795Y-67759523D01*
X173077795Y-67759523D02*
X173315890Y-67759523D01*
X173315890Y-67759523D02*
X173411128Y-67711904D01*
X173411128Y-67711904D02*
X173458747Y-67664285D01*
X173458747Y-67664285D02*
X173506366Y-67569047D01*
X173506366Y-67569047D02*
X173506366Y-67378571D01*
X173506366Y-67378571D02*
X173458747Y-67283333D01*
X173458747Y-67283333D02*
X173411128Y-67235714D01*
X173411128Y-67235714D02*
X173315890Y-67188095D01*
X128969642Y-107959580D02*
X128922023Y-108007200D01*
X128922023Y-108007200D02*
X128779166Y-108054819D01*
X128779166Y-108054819D02*
X128683928Y-108054819D01*
X128683928Y-108054819D02*
X128541071Y-108007200D01*
X128541071Y-108007200D02*
X128445833Y-107911961D01*
X128445833Y-107911961D02*
X128398214Y-107816723D01*
X128398214Y-107816723D02*
X128350595Y-107626247D01*
X128350595Y-107626247D02*
X128350595Y-107483390D01*
X128350595Y-107483390D02*
X128398214Y-107292914D01*
X128398214Y-107292914D02*
X128445833Y-107197676D01*
X128445833Y-107197676D02*
X128541071Y-107102438D01*
X128541071Y-107102438D02*
X128683928Y-107054819D01*
X128683928Y-107054819D02*
X128779166Y-107054819D01*
X128779166Y-107054819D02*
X128922023Y-107102438D01*
X128922023Y-107102438D02*
X128969642Y-107150057D01*
X129350595Y-107150057D02*
X129398214Y-107102438D01*
X129398214Y-107102438D02*
X129493452Y-107054819D01*
X129493452Y-107054819D02*
X129731547Y-107054819D01*
X129731547Y-107054819D02*
X129826785Y-107102438D01*
X129826785Y-107102438D02*
X129874404Y-107150057D01*
X129874404Y-107150057D02*
X129922023Y-107245295D01*
X129922023Y-107245295D02*
X129922023Y-107340533D01*
X129922023Y-107340533D02*
X129874404Y-107483390D01*
X129874404Y-107483390D02*
X129302976Y-108054819D01*
X129302976Y-108054819D02*
X129922023Y-108054819D01*
X130302976Y-107150057D02*
X130350595Y-107102438D01*
X130350595Y-107102438D02*
X130445833Y-107054819D01*
X130445833Y-107054819D02*
X130683928Y-107054819D01*
X130683928Y-107054819D02*
X130779166Y-107102438D01*
X130779166Y-107102438D02*
X130826785Y-107150057D01*
X130826785Y-107150057D02*
X130874404Y-107245295D01*
X130874404Y-107245295D02*
X130874404Y-107340533D01*
X130874404Y-107340533D02*
X130826785Y-107483390D01*
X130826785Y-107483390D02*
X130255357Y-108054819D01*
X130255357Y-108054819D02*
X130874404Y-108054819D01*
X129238095Y-102354819D02*
X129238095Y-103164342D01*
X129238095Y-103164342D02*
X129285714Y-103259580D01*
X129285714Y-103259580D02*
X129333333Y-103307200D01*
X129333333Y-103307200D02*
X129428571Y-103354819D01*
X129428571Y-103354819D02*
X129619047Y-103354819D01*
X129619047Y-103354819D02*
X129714285Y-103307200D01*
X129714285Y-103307200D02*
X129761904Y-103259580D01*
X129761904Y-103259580D02*
X129809523Y-103164342D01*
X129809523Y-103164342D02*
X129809523Y-102354819D01*
X130190476Y-102354819D02*
X130809523Y-102354819D01*
X130809523Y-102354819D02*
X130476190Y-102735771D01*
X130476190Y-102735771D02*
X130619047Y-102735771D01*
X130619047Y-102735771D02*
X130714285Y-102783390D01*
X130714285Y-102783390D02*
X130761904Y-102831009D01*
X130761904Y-102831009D02*
X130809523Y-102926247D01*
X130809523Y-102926247D02*
X130809523Y-103164342D01*
X130809523Y-103164342D02*
X130761904Y-103259580D01*
X130761904Y-103259580D02*
X130714285Y-103307200D01*
X130714285Y-103307200D02*
X130619047Y-103354819D01*
X130619047Y-103354819D02*
X130333333Y-103354819D01*
X130333333Y-103354819D02*
X130238095Y-103307200D01*
X130238095Y-103307200D02*
X130190476Y-103259580D01*
X156133333Y-76854819D02*
X155800000Y-76378628D01*
X155561905Y-76854819D02*
X155561905Y-75854819D01*
X155561905Y-75854819D02*
X155942857Y-75854819D01*
X155942857Y-75854819D02*
X156038095Y-75902438D01*
X156038095Y-75902438D02*
X156085714Y-75950057D01*
X156085714Y-75950057D02*
X156133333Y-76045295D01*
X156133333Y-76045295D02*
X156133333Y-76188152D01*
X156133333Y-76188152D02*
X156085714Y-76283390D01*
X156085714Y-76283390D02*
X156038095Y-76331009D01*
X156038095Y-76331009D02*
X155942857Y-76378628D01*
X155942857Y-76378628D02*
X155561905Y-76378628D01*
X156609524Y-76854819D02*
X156800000Y-76854819D01*
X156800000Y-76854819D02*
X156895238Y-76807200D01*
X156895238Y-76807200D02*
X156942857Y-76759580D01*
X156942857Y-76759580D02*
X157038095Y-76616723D01*
X157038095Y-76616723D02*
X157085714Y-76426247D01*
X157085714Y-76426247D02*
X157085714Y-76045295D01*
X157085714Y-76045295D02*
X157038095Y-75950057D01*
X157038095Y-75950057D02*
X156990476Y-75902438D01*
X156990476Y-75902438D02*
X156895238Y-75854819D01*
X156895238Y-75854819D02*
X156704762Y-75854819D01*
X156704762Y-75854819D02*
X156609524Y-75902438D01*
X156609524Y-75902438D02*
X156561905Y-75950057D01*
X156561905Y-75950057D02*
X156514286Y-76045295D01*
X156514286Y-76045295D02*
X156514286Y-76283390D01*
X156514286Y-76283390D02*
X156561905Y-76378628D01*
X156561905Y-76378628D02*
X156609524Y-76426247D01*
X156609524Y-76426247D02*
X156704762Y-76473866D01*
X156704762Y-76473866D02*
X156895238Y-76473866D01*
X156895238Y-76473866D02*
X156990476Y-76426247D01*
X156990476Y-76426247D02*
X157038095Y-76378628D01*
X157038095Y-76378628D02*
X157085714Y-76283390D01*
X124490476Y-84154819D02*
X124490476Y-84869104D01*
X124490476Y-84869104D02*
X124442857Y-85011961D01*
X124442857Y-85011961D02*
X124347619Y-85107200D01*
X124347619Y-85107200D02*
X124204762Y-85154819D01*
X124204762Y-85154819D02*
X124109524Y-85154819D01*
X125490476Y-85154819D02*
X124919048Y-85154819D01*
X125204762Y-85154819D02*
X125204762Y-84154819D01*
X125204762Y-84154819D02*
X125109524Y-84297676D01*
X125109524Y-84297676D02*
X125014286Y-84392914D01*
X125014286Y-84392914D02*
X124919048Y-84440533D01*
X126109524Y-84154819D02*
X126204762Y-84154819D01*
X126204762Y-84154819D02*
X126300000Y-84202438D01*
X126300000Y-84202438D02*
X126347619Y-84250057D01*
X126347619Y-84250057D02*
X126395238Y-84345295D01*
X126395238Y-84345295D02*
X126442857Y-84535771D01*
X126442857Y-84535771D02*
X126442857Y-84773866D01*
X126442857Y-84773866D02*
X126395238Y-84964342D01*
X126395238Y-84964342D02*
X126347619Y-85059580D01*
X126347619Y-85059580D02*
X126300000Y-85107200D01*
X126300000Y-85107200D02*
X126204762Y-85154819D01*
X126204762Y-85154819D02*
X126109524Y-85154819D01*
X126109524Y-85154819D02*
X126014286Y-85107200D01*
X126014286Y-85107200D02*
X125966667Y-85059580D01*
X125966667Y-85059580D02*
X125919048Y-84964342D01*
X125919048Y-84964342D02*
X125871429Y-84773866D01*
X125871429Y-84773866D02*
X125871429Y-84535771D01*
X125871429Y-84535771D02*
X125919048Y-84345295D01*
X125919048Y-84345295D02*
X125966667Y-84250057D01*
X125966667Y-84250057D02*
X126014286Y-84202438D01*
X126014286Y-84202438D02*
X126109524Y-84154819D01*
X129069642Y-110154819D02*
X128736309Y-109678628D01*
X128498214Y-110154819D02*
X128498214Y-109154819D01*
X128498214Y-109154819D02*
X128879166Y-109154819D01*
X128879166Y-109154819D02*
X128974404Y-109202438D01*
X128974404Y-109202438D02*
X129022023Y-109250057D01*
X129022023Y-109250057D02*
X129069642Y-109345295D01*
X129069642Y-109345295D02*
X129069642Y-109488152D01*
X129069642Y-109488152D02*
X129022023Y-109583390D01*
X129022023Y-109583390D02*
X128974404Y-109631009D01*
X128974404Y-109631009D02*
X128879166Y-109678628D01*
X128879166Y-109678628D02*
X128498214Y-109678628D01*
X129450595Y-109250057D02*
X129498214Y-109202438D01*
X129498214Y-109202438D02*
X129593452Y-109154819D01*
X129593452Y-109154819D02*
X129831547Y-109154819D01*
X129831547Y-109154819D02*
X129926785Y-109202438D01*
X129926785Y-109202438D02*
X129974404Y-109250057D01*
X129974404Y-109250057D02*
X130022023Y-109345295D01*
X130022023Y-109345295D02*
X130022023Y-109440533D01*
X130022023Y-109440533D02*
X129974404Y-109583390D01*
X129974404Y-109583390D02*
X129402976Y-110154819D01*
X129402976Y-110154819D02*
X130022023Y-110154819D01*
X130879166Y-109154819D02*
X130688690Y-109154819D01*
X130688690Y-109154819D02*
X130593452Y-109202438D01*
X130593452Y-109202438D02*
X130545833Y-109250057D01*
X130545833Y-109250057D02*
X130450595Y-109392914D01*
X130450595Y-109392914D02*
X130402976Y-109583390D01*
X130402976Y-109583390D02*
X130402976Y-109964342D01*
X130402976Y-109964342D02*
X130450595Y-110059580D01*
X130450595Y-110059580D02*
X130498214Y-110107200D01*
X130498214Y-110107200D02*
X130593452Y-110154819D01*
X130593452Y-110154819D02*
X130783928Y-110154819D01*
X130783928Y-110154819D02*
X130879166Y-110107200D01*
X130879166Y-110107200D02*
X130926785Y-110059580D01*
X130926785Y-110059580D02*
X130974404Y-109964342D01*
X130974404Y-109964342D02*
X130974404Y-109726247D01*
X130974404Y-109726247D02*
X130926785Y-109631009D01*
X130926785Y-109631009D02*
X130879166Y-109583390D01*
X130879166Y-109583390D02*
X130783928Y-109535771D01*
X130783928Y-109535771D02*
X130593452Y-109535771D01*
X130593452Y-109535771D02*
X130498214Y-109583390D01*
X130498214Y-109583390D02*
X130450595Y-109631009D01*
X130450595Y-109631009D02*
X130402976Y-109726247D01*
X131857142Y-90454819D02*
X131523809Y-89978628D01*
X131285714Y-90454819D02*
X131285714Y-89454819D01*
X131285714Y-89454819D02*
X131666666Y-89454819D01*
X131666666Y-89454819D02*
X131761904Y-89502438D01*
X131761904Y-89502438D02*
X131809523Y-89550057D01*
X131809523Y-89550057D02*
X131857142Y-89645295D01*
X131857142Y-89645295D02*
X131857142Y-89788152D01*
X131857142Y-89788152D02*
X131809523Y-89883390D01*
X131809523Y-89883390D02*
X131761904Y-89931009D01*
X131761904Y-89931009D02*
X131666666Y-89978628D01*
X131666666Y-89978628D02*
X131285714Y-89978628D01*
X132190476Y-89454819D02*
X132809523Y-89454819D01*
X132809523Y-89454819D02*
X132476190Y-89835771D01*
X132476190Y-89835771D02*
X132619047Y-89835771D01*
X132619047Y-89835771D02*
X132714285Y-89883390D01*
X132714285Y-89883390D02*
X132761904Y-89931009D01*
X132761904Y-89931009D02*
X132809523Y-90026247D01*
X132809523Y-90026247D02*
X132809523Y-90264342D01*
X132809523Y-90264342D02*
X132761904Y-90359580D01*
X132761904Y-90359580D02*
X132714285Y-90407200D01*
X132714285Y-90407200D02*
X132619047Y-90454819D01*
X132619047Y-90454819D02*
X132333333Y-90454819D01*
X132333333Y-90454819D02*
X132238095Y-90407200D01*
X132238095Y-90407200D02*
X132190476Y-90359580D01*
X133428571Y-89454819D02*
X133523809Y-89454819D01*
X133523809Y-89454819D02*
X133619047Y-89502438D01*
X133619047Y-89502438D02*
X133666666Y-89550057D01*
X133666666Y-89550057D02*
X133714285Y-89645295D01*
X133714285Y-89645295D02*
X133761904Y-89835771D01*
X133761904Y-89835771D02*
X133761904Y-90073866D01*
X133761904Y-90073866D02*
X133714285Y-90264342D01*
X133714285Y-90264342D02*
X133666666Y-90359580D01*
X133666666Y-90359580D02*
X133619047Y-90407200D01*
X133619047Y-90407200D02*
X133523809Y-90454819D01*
X133523809Y-90454819D02*
X133428571Y-90454819D01*
X133428571Y-90454819D02*
X133333333Y-90407200D01*
X133333333Y-90407200D02*
X133285714Y-90359580D01*
X133285714Y-90359580D02*
X133238095Y-90264342D01*
X133238095Y-90264342D02*
X133190476Y-90073866D01*
X133190476Y-90073866D02*
X133190476Y-89835771D01*
X133190476Y-89835771D02*
X133238095Y-89645295D01*
X133238095Y-89645295D02*
X133285714Y-89550057D01*
X133285714Y-89550057D02*
X133333333Y-89502438D01*
X133333333Y-89502438D02*
X133428571Y-89454819D01*
X187699166Y-58704819D02*
X187699166Y-59419104D01*
X187699166Y-59419104D02*
X187651547Y-59561961D01*
X187651547Y-59561961D02*
X187556309Y-59657200D01*
X187556309Y-59657200D02*
X187413452Y-59704819D01*
X187413452Y-59704819D02*
X187318214Y-59704819D01*
X188603928Y-59038152D02*
X188603928Y-59704819D01*
X188365833Y-58657200D02*
X188127738Y-59371485D01*
X188127738Y-59371485D02*
X188746785Y-59371485D01*
X136033333Y-66854819D02*
X135700000Y-66378628D01*
X135461905Y-66854819D02*
X135461905Y-65854819D01*
X135461905Y-65854819D02*
X135842857Y-65854819D01*
X135842857Y-65854819D02*
X135938095Y-65902438D01*
X135938095Y-65902438D02*
X135985714Y-65950057D01*
X135985714Y-65950057D02*
X136033333Y-66045295D01*
X136033333Y-66045295D02*
X136033333Y-66188152D01*
X136033333Y-66188152D02*
X135985714Y-66283390D01*
X135985714Y-66283390D02*
X135938095Y-66331009D01*
X135938095Y-66331009D02*
X135842857Y-66378628D01*
X135842857Y-66378628D02*
X135461905Y-66378628D01*
X136890476Y-66188152D02*
X136890476Y-66854819D01*
X136652381Y-65807200D02*
X136414286Y-66521485D01*
X136414286Y-66521485D02*
X137033333Y-66521485D01*
X131857142Y-91954819D02*
X131523809Y-91478628D01*
X131285714Y-91954819D02*
X131285714Y-90954819D01*
X131285714Y-90954819D02*
X131666666Y-90954819D01*
X131666666Y-90954819D02*
X131761904Y-91002438D01*
X131761904Y-91002438D02*
X131809523Y-91050057D01*
X131809523Y-91050057D02*
X131857142Y-91145295D01*
X131857142Y-91145295D02*
X131857142Y-91288152D01*
X131857142Y-91288152D02*
X131809523Y-91383390D01*
X131809523Y-91383390D02*
X131761904Y-91431009D01*
X131761904Y-91431009D02*
X131666666Y-91478628D01*
X131666666Y-91478628D02*
X131285714Y-91478628D01*
X132190476Y-90954819D02*
X132809523Y-90954819D01*
X132809523Y-90954819D02*
X132476190Y-91335771D01*
X132476190Y-91335771D02*
X132619047Y-91335771D01*
X132619047Y-91335771D02*
X132714285Y-91383390D01*
X132714285Y-91383390D02*
X132761904Y-91431009D01*
X132761904Y-91431009D02*
X132809523Y-91526247D01*
X132809523Y-91526247D02*
X132809523Y-91764342D01*
X132809523Y-91764342D02*
X132761904Y-91859580D01*
X132761904Y-91859580D02*
X132714285Y-91907200D01*
X132714285Y-91907200D02*
X132619047Y-91954819D01*
X132619047Y-91954819D02*
X132333333Y-91954819D01*
X132333333Y-91954819D02*
X132238095Y-91907200D01*
X132238095Y-91907200D02*
X132190476Y-91859580D01*
X133761904Y-91954819D02*
X133190476Y-91954819D01*
X133476190Y-91954819D02*
X133476190Y-90954819D01*
X133476190Y-90954819D02*
X133380952Y-91097676D01*
X133380952Y-91097676D02*
X133285714Y-91192914D01*
X133285714Y-91192914D02*
X133190476Y-91240533D01*
X151966666Y-104654819D02*
X151966666Y-105369104D01*
X151966666Y-105369104D02*
X151919047Y-105511961D01*
X151919047Y-105511961D02*
X151823809Y-105607200D01*
X151823809Y-105607200D02*
X151680952Y-105654819D01*
X151680952Y-105654819D02*
X151585714Y-105654819D01*
X152347619Y-104654819D02*
X153014285Y-104654819D01*
X153014285Y-104654819D02*
X152585714Y-105654819D01*
X167099166Y-82404819D02*
X167099166Y-83119104D01*
X167099166Y-83119104D02*
X167051547Y-83261961D01*
X167051547Y-83261961D02*
X166956309Y-83357200D01*
X166956309Y-83357200D02*
X166813452Y-83404819D01*
X166813452Y-83404819D02*
X166718214Y-83404819D01*
X167575357Y-83404819D02*
X167575357Y-82404819D01*
X167575357Y-82404819D02*
X167956309Y-82404819D01*
X167956309Y-82404819D02*
X168051547Y-82452438D01*
X168051547Y-82452438D02*
X168099166Y-82500057D01*
X168099166Y-82500057D02*
X168146785Y-82595295D01*
X168146785Y-82595295D02*
X168146785Y-82738152D01*
X168146785Y-82738152D02*
X168099166Y-82833390D01*
X168099166Y-82833390D02*
X168051547Y-82881009D01*
X168051547Y-82881009D02*
X167956309Y-82928628D01*
X167956309Y-82928628D02*
X167575357Y-82928628D01*
X169099166Y-83404819D02*
X168527738Y-83404819D01*
X168813452Y-83404819D02*
X168813452Y-82404819D01*
X168813452Y-82404819D02*
X168718214Y-82547676D01*
X168718214Y-82547676D02*
X168622976Y-82642914D01*
X168622976Y-82642914D02*
X168527738Y-82690533D01*
X170199167Y-84204819D02*
X170818214Y-84204819D01*
X170818214Y-84204819D02*
X170484881Y-84585771D01*
X170484881Y-84585771D02*
X170627738Y-84585771D01*
X170627738Y-84585771D02*
X170722976Y-84633390D01*
X170722976Y-84633390D02*
X170770595Y-84681009D01*
X170770595Y-84681009D02*
X170818214Y-84776247D01*
X170818214Y-84776247D02*
X170818214Y-85014342D01*
X170818214Y-85014342D02*
X170770595Y-85109580D01*
X170770595Y-85109580D02*
X170722976Y-85157200D01*
X170722976Y-85157200D02*
X170627738Y-85204819D01*
X170627738Y-85204819D02*
X170342024Y-85204819D01*
X170342024Y-85204819D02*
X170246786Y-85157200D01*
X170246786Y-85157200D02*
X170199167Y-85109580D01*
X165618214Y-85204819D02*
X165046786Y-85204819D01*
X165332500Y-85204819D02*
X165332500Y-84204819D01*
X165332500Y-84204819D02*
X165237262Y-84347676D01*
X165237262Y-84347676D02*
X165142024Y-84442914D01*
X165142024Y-84442914D02*
X165046786Y-84490533D01*
X181454819Y-80642857D02*
X180978628Y-80976190D01*
X181454819Y-81214285D02*
X180454819Y-81214285D01*
X180454819Y-81214285D02*
X180454819Y-80833333D01*
X180454819Y-80833333D02*
X180502438Y-80738095D01*
X180502438Y-80738095D02*
X180550057Y-80690476D01*
X180550057Y-80690476D02*
X180645295Y-80642857D01*
X180645295Y-80642857D02*
X180788152Y-80642857D01*
X180788152Y-80642857D02*
X180883390Y-80690476D01*
X180883390Y-80690476D02*
X180931009Y-80738095D01*
X180931009Y-80738095D02*
X180978628Y-80833333D01*
X180978628Y-80833333D02*
X180978628Y-81214285D01*
X180788152Y-79785714D02*
X181454819Y-79785714D01*
X180407200Y-80023809D02*
X181121485Y-80261904D01*
X181121485Y-80261904D02*
X181121485Y-79642857D01*
X180454819Y-79357142D02*
X180454819Y-78690476D01*
X180454819Y-78690476D02*
X181454819Y-79119047D01*
X179187319Y-59642857D02*
X178711128Y-59976190D01*
X179187319Y-60214285D02*
X178187319Y-60214285D01*
X178187319Y-60214285D02*
X178187319Y-59833333D01*
X178187319Y-59833333D02*
X178234938Y-59738095D01*
X178234938Y-59738095D02*
X178282557Y-59690476D01*
X178282557Y-59690476D02*
X178377795Y-59642857D01*
X178377795Y-59642857D02*
X178520652Y-59642857D01*
X178520652Y-59642857D02*
X178615890Y-59690476D01*
X178615890Y-59690476D02*
X178663509Y-59738095D01*
X178663509Y-59738095D02*
X178711128Y-59833333D01*
X178711128Y-59833333D02*
X178711128Y-60214285D01*
X178520652Y-58785714D02*
X179187319Y-58785714D01*
X178139700Y-59023809D02*
X178853985Y-59261904D01*
X178853985Y-59261904D02*
X178853985Y-58642857D01*
X178187319Y-57785714D02*
X178187319Y-58261904D01*
X178187319Y-58261904D02*
X178663509Y-58309523D01*
X178663509Y-58309523D02*
X178615890Y-58261904D01*
X178615890Y-58261904D02*
X178568271Y-58166666D01*
X178568271Y-58166666D02*
X178568271Y-57928571D01*
X178568271Y-57928571D02*
X178615890Y-57833333D01*
X178615890Y-57833333D02*
X178663509Y-57785714D01*
X178663509Y-57785714D02*
X178758747Y-57738095D01*
X178758747Y-57738095D02*
X178996842Y-57738095D01*
X178996842Y-57738095D02*
X179092080Y-57785714D01*
X179092080Y-57785714D02*
X179139700Y-57833333D01*
X179139700Y-57833333D02*
X179187319Y-57928571D01*
X179187319Y-57928571D02*
X179187319Y-58166666D01*
X179187319Y-58166666D02*
X179139700Y-58261904D01*
X179139700Y-58261904D02*
X179092080Y-58309523D01*
X151508095Y-97604819D02*
X151508095Y-98414342D01*
X151508095Y-98414342D02*
X151555714Y-98509580D01*
X151555714Y-98509580D02*
X151603333Y-98557200D01*
X151603333Y-98557200D02*
X151698571Y-98604819D01*
X151698571Y-98604819D02*
X151889047Y-98604819D01*
X151889047Y-98604819D02*
X151984285Y-98557200D01*
X151984285Y-98557200D02*
X152031904Y-98509580D01*
X152031904Y-98509580D02*
X152079523Y-98414342D01*
X152079523Y-98414342D02*
X152079523Y-97604819D01*
X152508095Y-97700057D02*
X152555714Y-97652438D01*
X152555714Y-97652438D02*
X152650952Y-97604819D01*
X152650952Y-97604819D02*
X152889047Y-97604819D01*
X152889047Y-97604819D02*
X152984285Y-97652438D01*
X152984285Y-97652438D02*
X153031904Y-97700057D01*
X153031904Y-97700057D02*
X153079523Y-97795295D01*
X153079523Y-97795295D02*
X153079523Y-97890533D01*
X153079523Y-97890533D02*
X153031904Y-98033390D01*
X153031904Y-98033390D02*
X152460476Y-98604819D01*
X152460476Y-98604819D02*
X153079523Y-98604819D01*
D12*
X177916071Y-69024318D02*
X177492737Y-68419556D01*
X177190356Y-69024318D02*
X177190356Y-67754318D01*
X177190356Y-67754318D02*
X177674166Y-67754318D01*
X177674166Y-67754318D02*
X177795118Y-67814794D01*
X177795118Y-67814794D02*
X177855595Y-67875270D01*
X177855595Y-67875270D02*
X177916071Y-67996222D01*
X177916071Y-67996222D02*
X177916071Y-68177651D01*
X177916071Y-68177651D02*
X177855595Y-68298603D01*
X177855595Y-68298603D02*
X177795118Y-68359080D01*
X177795118Y-68359080D02*
X177674166Y-68419556D01*
X177674166Y-68419556D02*
X177190356Y-68419556D01*
X178339404Y-67754318D02*
X179125595Y-67754318D01*
X179125595Y-67754318D02*
X178702261Y-68238127D01*
X178702261Y-68238127D02*
X178883690Y-68238127D01*
X178883690Y-68238127D02*
X179004642Y-68298603D01*
X179004642Y-68298603D02*
X179065118Y-68359080D01*
X179065118Y-68359080D02*
X179125595Y-68480032D01*
X179125595Y-68480032D02*
X179125595Y-68782413D01*
X179125595Y-68782413D02*
X179065118Y-68903365D01*
X179065118Y-68903365D02*
X179004642Y-68963842D01*
X179004642Y-68963842D02*
X178883690Y-69024318D01*
X178883690Y-69024318D02*
X178520833Y-69024318D01*
X178520833Y-69024318D02*
X178399880Y-68963842D01*
X178399880Y-68963842D02*
X178339404Y-68903365D01*
X180274642Y-67754318D02*
X179669880Y-67754318D01*
X179669880Y-67754318D02*
X179609404Y-68359080D01*
X179609404Y-68359080D02*
X179669880Y-68298603D01*
X179669880Y-68298603D02*
X179790833Y-68238127D01*
X179790833Y-68238127D02*
X180093214Y-68238127D01*
X180093214Y-68238127D02*
X180214166Y-68298603D01*
X180214166Y-68298603D02*
X180274642Y-68359080D01*
X180274642Y-68359080D02*
X180335119Y-68480032D01*
X180335119Y-68480032D02*
X180335119Y-68782413D01*
X180335119Y-68782413D02*
X180274642Y-68903365D01*
X180274642Y-68903365D02*
X180214166Y-68963842D01*
X180214166Y-68963842D02*
X180093214Y-69024318D01*
X180093214Y-69024318D02*
X179790833Y-69024318D01*
X179790833Y-69024318D02*
X179669880Y-68963842D01*
X179669880Y-68963842D02*
X179609404Y-68903365D01*
D11*
X129904819Y-54342857D02*
X129428628Y-54676190D01*
X129904819Y-54914285D02*
X128904819Y-54914285D01*
X128904819Y-54914285D02*
X128904819Y-54533333D01*
X128904819Y-54533333D02*
X128952438Y-54438095D01*
X128952438Y-54438095D02*
X129000057Y-54390476D01*
X129000057Y-54390476D02*
X129095295Y-54342857D01*
X129095295Y-54342857D02*
X129238152Y-54342857D01*
X129238152Y-54342857D02*
X129333390Y-54390476D01*
X129333390Y-54390476D02*
X129381009Y-54438095D01*
X129381009Y-54438095D02*
X129428628Y-54533333D01*
X129428628Y-54533333D02*
X129428628Y-54914285D01*
X128904819Y-54009523D02*
X128904819Y-53390476D01*
X128904819Y-53390476D02*
X129285771Y-53723809D01*
X129285771Y-53723809D02*
X129285771Y-53580952D01*
X129285771Y-53580952D02*
X129333390Y-53485714D01*
X129333390Y-53485714D02*
X129381009Y-53438095D01*
X129381009Y-53438095D02*
X129476247Y-53390476D01*
X129476247Y-53390476D02*
X129714342Y-53390476D01*
X129714342Y-53390476D02*
X129809580Y-53438095D01*
X129809580Y-53438095D02*
X129857200Y-53485714D01*
X129857200Y-53485714D02*
X129904819Y-53580952D01*
X129904819Y-53580952D02*
X129904819Y-53866666D01*
X129904819Y-53866666D02*
X129857200Y-53961904D01*
X129857200Y-53961904D02*
X129809580Y-54009523D01*
X129333390Y-52819047D02*
X129285771Y-52914285D01*
X129285771Y-52914285D02*
X129238152Y-52961904D01*
X129238152Y-52961904D02*
X129142914Y-53009523D01*
X129142914Y-53009523D02*
X129095295Y-53009523D01*
X129095295Y-53009523D02*
X129000057Y-52961904D01*
X129000057Y-52961904D02*
X128952438Y-52914285D01*
X128952438Y-52914285D02*
X128904819Y-52819047D01*
X128904819Y-52819047D02*
X128904819Y-52628571D01*
X128904819Y-52628571D02*
X128952438Y-52533333D01*
X128952438Y-52533333D02*
X129000057Y-52485714D01*
X129000057Y-52485714D02*
X129095295Y-52438095D01*
X129095295Y-52438095D02*
X129142914Y-52438095D01*
X129142914Y-52438095D02*
X129238152Y-52485714D01*
X129238152Y-52485714D02*
X129285771Y-52533333D01*
X129285771Y-52533333D02*
X129333390Y-52628571D01*
X129333390Y-52628571D02*
X129333390Y-52819047D01*
X129333390Y-52819047D02*
X129381009Y-52914285D01*
X129381009Y-52914285D02*
X129428628Y-52961904D01*
X129428628Y-52961904D02*
X129523866Y-53009523D01*
X129523866Y-53009523D02*
X129714342Y-53009523D01*
X129714342Y-53009523D02*
X129809580Y-52961904D01*
X129809580Y-52961904D02*
X129857200Y-52914285D01*
X129857200Y-52914285D02*
X129904819Y-52819047D01*
X129904819Y-52819047D02*
X129904819Y-52628571D01*
X129904819Y-52628571D02*
X129857200Y-52533333D01*
X129857200Y-52533333D02*
X129809580Y-52485714D01*
X129809580Y-52485714D02*
X129714342Y-52438095D01*
X129714342Y-52438095D02*
X129523866Y-52438095D01*
X129523866Y-52438095D02*
X129428628Y-52485714D01*
X129428628Y-52485714D02*
X129381009Y-52533333D01*
X129381009Y-52533333D02*
X129333390Y-52628571D01*
X125538095Y-78054819D02*
X125538095Y-78864342D01*
X125538095Y-78864342D02*
X125585714Y-78959580D01*
X125585714Y-78959580D02*
X125633333Y-79007200D01*
X125633333Y-79007200D02*
X125728571Y-79054819D01*
X125728571Y-79054819D02*
X125919047Y-79054819D01*
X125919047Y-79054819D02*
X126014285Y-79007200D01*
X126014285Y-79007200D02*
X126061904Y-78959580D01*
X126061904Y-78959580D02*
X126109523Y-78864342D01*
X126109523Y-78864342D02*
X126109523Y-78054819D01*
X127061904Y-78054819D02*
X126585714Y-78054819D01*
X126585714Y-78054819D02*
X126538095Y-78531009D01*
X126538095Y-78531009D02*
X126585714Y-78483390D01*
X126585714Y-78483390D02*
X126680952Y-78435771D01*
X126680952Y-78435771D02*
X126919047Y-78435771D01*
X126919047Y-78435771D02*
X127014285Y-78483390D01*
X127014285Y-78483390D02*
X127061904Y-78531009D01*
X127061904Y-78531009D02*
X127109523Y-78626247D01*
X127109523Y-78626247D02*
X127109523Y-78864342D01*
X127109523Y-78864342D02*
X127061904Y-78959580D01*
X127061904Y-78959580D02*
X127014285Y-79007200D01*
X127014285Y-79007200D02*
X126919047Y-79054819D01*
X126919047Y-79054819D02*
X126680952Y-79054819D01*
X126680952Y-79054819D02*
X126585714Y-79007200D01*
X126585714Y-79007200D02*
X126538095Y-78959580D01*
X131857142Y-88854819D02*
X131523809Y-88378628D01*
X131285714Y-88854819D02*
X131285714Y-87854819D01*
X131285714Y-87854819D02*
X131666666Y-87854819D01*
X131666666Y-87854819D02*
X131761904Y-87902438D01*
X131761904Y-87902438D02*
X131809523Y-87950057D01*
X131809523Y-87950057D02*
X131857142Y-88045295D01*
X131857142Y-88045295D02*
X131857142Y-88188152D01*
X131857142Y-88188152D02*
X131809523Y-88283390D01*
X131809523Y-88283390D02*
X131761904Y-88331009D01*
X131761904Y-88331009D02*
X131666666Y-88378628D01*
X131666666Y-88378628D02*
X131285714Y-88378628D01*
X132238095Y-87950057D02*
X132285714Y-87902438D01*
X132285714Y-87902438D02*
X132380952Y-87854819D01*
X132380952Y-87854819D02*
X132619047Y-87854819D01*
X132619047Y-87854819D02*
X132714285Y-87902438D01*
X132714285Y-87902438D02*
X132761904Y-87950057D01*
X132761904Y-87950057D02*
X132809523Y-88045295D01*
X132809523Y-88045295D02*
X132809523Y-88140533D01*
X132809523Y-88140533D02*
X132761904Y-88283390D01*
X132761904Y-88283390D02*
X132190476Y-88854819D01*
X132190476Y-88854819D02*
X132809523Y-88854819D01*
X133380952Y-88283390D02*
X133285714Y-88235771D01*
X133285714Y-88235771D02*
X133238095Y-88188152D01*
X133238095Y-88188152D02*
X133190476Y-88092914D01*
X133190476Y-88092914D02*
X133190476Y-88045295D01*
X133190476Y-88045295D02*
X133238095Y-87950057D01*
X133238095Y-87950057D02*
X133285714Y-87902438D01*
X133285714Y-87902438D02*
X133380952Y-87854819D01*
X133380952Y-87854819D02*
X133571428Y-87854819D01*
X133571428Y-87854819D02*
X133666666Y-87902438D01*
X133666666Y-87902438D02*
X133714285Y-87950057D01*
X133714285Y-87950057D02*
X133761904Y-88045295D01*
X133761904Y-88045295D02*
X133761904Y-88092914D01*
X133761904Y-88092914D02*
X133714285Y-88188152D01*
X133714285Y-88188152D02*
X133666666Y-88235771D01*
X133666666Y-88235771D02*
X133571428Y-88283390D01*
X133571428Y-88283390D02*
X133380952Y-88283390D01*
X133380952Y-88283390D02*
X133285714Y-88331009D01*
X133285714Y-88331009D02*
X133238095Y-88378628D01*
X133238095Y-88378628D02*
X133190476Y-88473866D01*
X133190476Y-88473866D02*
X133190476Y-88664342D01*
X133190476Y-88664342D02*
X133238095Y-88759580D01*
X133238095Y-88759580D02*
X133285714Y-88807200D01*
X133285714Y-88807200D02*
X133380952Y-88854819D01*
X133380952Y-88854819D02*
X133571428Y-88854819D01*
X133571428Y-88854819D02*
X133666666Y-88807200D01*
X133666666Y-88807200D02*
X133714285Y-88759580D01*
X133714285Y-88759580D02*
X133761904Y-88664342D01*
X133761904Y-88664342D02*
X133761904Y-88473866D01*
X133761904Y-88473866D02*
X133714285Y-88378628D01*
X133714285Y-88378628D02*
X133666666Y-88331009D01*
X133666666Y-88331009D02*
X133571428Y-88283390D01*
X128969642Y-106454819D02*
X128636309Y-105978628D01*
X128398214Y-106454819D02*
X128398214Y-105454819D01*
X128398214Y-105454819D02*
X128779166Y-105454819D01*
X128779166Y-105454819D02*
X128874404Y-105502438D01*
X128874404Y-105502438D02*
X128922023Y-105550057D01*
X128922023Y-105550057D02*
X128969642Y-105645295D01*
X128969642Y-105645295D02*
X128969642Y-105788152D01*
X128969642Y-105788152D02*
X128922023Y-105883390D01*
X128922023Y-105883390D02*
X128874404Y-105931009D01*
X128874404Y-105931009D02*
X128779166Y-105978628D01*
X128779166Y-105978628D02*
X128398214Y-105978628D01*
X129302976Y-105454819D02*
X129922023Y-105454819D01*
X129922023Y-105454819D02*
X129588690Y-105835771D01*
X129588690Y-105835771D02*
X129731547Y-105835771D01*
X129731547Y-105835771D02*
X129826785Y-105883390D01*
X129826785Y-105883390D02*
X129874404Y-105931009D01*
X129874404Y-105931009D02*
X129922023Y-106026247D01*
X129922023Y-106026247D02*
X129922023Y-106264342D01*
X129922023Y-106264342D02*
X129874404Y-106359580D01*
X129874404Y-106359580D02*
X129826785Y-106407200D01*
X129826785Y-106407200D02*
X129731547Y-106454819D01*
X129731547Y-106454819D02*
X129445833Y-106454819D01*
X129445833Y-106454819D02*
X129350595Y-106407200D01*
X129350595Y-106407200D02*
X129302976Y-106359580D01*
X130255357Y-105454819D02*
X130874404Y-105454819D01*
X130874404Y-105454819D02*
X130541071Y-105835771D01*
X130541071Y-105835771D02*
X130683928Y-105835771D01*
X130683928Y-105835771D02*
X130779166Y-105883390D01*
X130779166Y-105883390D02*
X130826785Y-105931009D01*
X130826785Y-105931009D02*
X130874404Y-106026247D01*
X130874404Y-106026247D02*
X130874404Y-106264342D01*
X130874404Y-106264342D02*
X130826785Y-106359580D01*
X130826785Y-106359580D02*
X130779166Y-106407200D01*
X130779166Y-106407200D02*
X130683928Y-106454819D01*
X130683928Y-106454819D02*
X130398214Y-106454819D01*
X130398214Y-106454819D02*
X130302976Y-106407200D01*
X130302976Y-106407200D02*
X130255357Y-106359580D01*
X167170595Y-66204819D02*
X167170595Y-67014342D01*
X167170595Y-67014342D02*
X167218214Y-67109580D01*
X167218214Y-67109580D02*
X167265833Y-67157200D01*
X167265833Y-67157200D02*
X167361071Y-67204819D01*
X167361071Y-67204819D02*
X167551547Y-67204819D01*
X167551547Y-67204819D02*
X167646785Y-67157200D01*
X167646785Y-67157200D02*
X167694404Y-67109580D01*
X167694404Y-67109580D02*
X167742023Y-67014342D01*
X167742023Y-67014342D02*
X167742023Y-66204819D01*
X168122976Y-66204819D02*
X168789642Y-66204819D01*
X168789642Y-66204819D02*
X168361071Y-67204819D01*
X133166666Y-99154819D02*
X133166666Y-99869104D01*
X133166666Y-99869104D02*
X133119047Y-100011961D01*
X133119047Y-100011961D02*
X133023809Y-100107200D01*
X133023809Y-100107200D02*
X132880952Y-100154819D01*
X132880952Y-100154819D02*
X132785714Y-100154819D01*
X133547619Y-99154819D02*
X134166666Y-99154819D01*
X134166666Y-99154819D02*
X133833333Y-99535771D01*
X133833333Y-99535771D02*
X133976190Y-99535771D01*
X133976190Y-99535771D02*
X134071428Y-99583390D01*
X134071428Y-99583390D02*
X134119047Y-99631009D01*
X134119047Y-99631009D02*
X134166666Y-99726247D01*
X134166666Y-99726247D02*
X134166666Y-99964342D01*
X134166666Y-99964342D02*
X134119047Y-100059580D01*
X134119047Y-100059580D02*
X134071428Y-100107200D01*
X134071428Y-100107200D02*
X133976190Y-100154819D01*
X133976190Y-100154819D02*
X133690476Y-100154819D01*
X133690476Y-100154819D02*
X133595238Y-100107200D01*
X133595238Y-100107200D02*
X133547619Y-100059580D01*
X129520833Y-97454819D02*
X129187500Y-96978628D01*
X128949405Y-97454819D02*
X128949405Y-96454819D01*
X128949405Y-96454819D02*
X129330357Y-96454819D01*
X129330357Y-96454819D02*
X129425595Y-96502438D01*
X129425595Y-96502438D02*
X129473214Y-96550057D01*
X129473214Y-96550057D02*
X129520833Y-96645295D01*
X129520833Y-96645295D02*
X129520833Y-96788152D01*
X129520833Y-96788152D02*
X129473214Y-96883390D01*
X129473214Y-96883390D02*
X129425595Y-96931009D01*
X129425595Y-96931009D02*
X129330357Y-96978628D01*
X129330357Y-96978628D02*
X128949405Y-96978628D01*
X130473214Y-97454819D02*
X129901786Y-97454819D01*
X130187500Y-97454819D02*
X130187500Y-96454819D01*
X130187500Y-96454819D02*
X130092262Y-96597676D01*
X130092262Y-96597676D02*
X129997024Y-96692914D01*
X129997024Y-96692914D02*
X129901786Y-96740533D01*
X139761905Y-74654819D02*
X139761905Y-73654819D01*
X139761905Y-73654819D02*
X140000000Y-73654819D01*
X140000000Y-73654819D02*
X140142857Y-73702438D01*
X140142857Y-73702438D02*
X140238095Y-73797676D01*
X140238095Y-73797676D02*
X140285714Y-73892914D01*
X140285714Y-73892914D02*
X140333333Y-74083390D01*
X140333333Y-74083390D02*
X140333333Y-74226247D01*
X140333333Y-74226247D02*
X140285714Y-74416723D01*
X140285714Y-74416723D02*
X140238095Y-74511961D01*
X140238095Y-74511961D02*
X140142857Y-74607200D01*
X140142857Y-74607200D02*
X140000000Y-74654819D01*
X140000000Y-74654819D02*
X139761905Y-74654819D01*
X140666667Y-73654819D02*
X141285714Y-73654819D01*
X141285714Y-73654819D02*
X140952381Y-74035771D01*
X140952381Y-74035771D02*
X141095238Y-74035771D01*
X141095238Y-74035771D02*
X141190476Y-74083390D01*
X141190476Y-74083390D02*
X141238095Y-74131009D01*
X141238095Y-74131009D02*
X141285714Y-74226247D01*
X141285714Y-74226247D02*
X141285714Y-74464342D01*
X141285714Y-74464342D02*
X141238095Y-74559580D01*
X141238095Y-74559580D02*
X141190476Y-74607200D01*
X141190476Y-74607200D02*
X141095238Y-74654819D01*
X141095238Y-74654819D02*
X140809524Y-74654819D01*
X140809524Y-74654819D02*
X140714286Y-74607200D01*
X140714286Y-74607200D02*
X140666667Y-74559580D01*
X138654819Y-64042857D02*
X138178628Y-64376190D01*
X138654819Y-64614285D02*
X137654819Y-64614285D01*
X137654819Y-64614285D02*
X137654819Y-64233333D01*
X137654819Y-64233333D02*
X137702438Y-64138095D01*
X137702438Y-64138095D02*
X137750057Y-64090476D01*
X137750057Y-64090476D02*
X137845295Y-64042857D01*
X137845295Y-64042857D02*
X137988152Y-64042857D01*
X137988152Y-64042857D02*
X138083390Y-64090476D01*
X138083390Y-64090476D02*
X138131009Y-64138095D01*
X138131009Y-64138095D02*
X138178628Y-64233333D01*
X138178628Y-64233333D02*
X138178628Y-64614285D01*
X137654819Y-63709523D02*
X137654819Y-63090476D01*
X137654819Y-63090476D02*
X138035771Y-63423809D01*
X138035771Y-63423809D02*
X138035771Y-63280952D01*
X138035771Y-63280952D02*
X138083390Y-63185714D01*
X138083390Y-63185714D02*
X138131009Y-63138095D01*
X138131009Y-63138095D02*
X138226247Y-63090476D01*
X138226247Y-63090476D02*
X138464342Y-63090476D01*
X138464342Y-63090476D02*
X138559580Y-63138095D01*
X138559580Y-63138095D02*
X138607200Y-63185714D01*
X138607200Y-63185714D02*
X138654819Y-63280952D01*
X138654819Y-63280952D02*
X138654819Y-63566666D01*
X138654819Y-63566666D02*
X138607200Y-63661904D01*
X138607200Y-63661904D02*
X138559580Y-63709523D01*
X138654819Y-62614285D02*
X138654819Y-62423809D01*
X138654819Y-62423809D02*
X138607200Y-62328571D01*
X138607200Y-62328571D02*
X138559580Y-62280952D01*
X138559580Y-62280952D02*
X138416723Y-62185714D01*
X138416723Y-62185714D02*
X138226247Y-62138095D01*
X138226247Y-62138095D02*
X137845295Y-62138095D01*
X137845295Y-62138095D02*
X137750057Y-62185714D01*
X137750057Y-62185714D02*
X137702438Y-62233333D01*
X137702438Y-62233333D02*
X137654819Y-62328571D01*
X137654819Y-62328571D02*
X137654819Y-62519047D01*
X137654819Y-62519047D02*
X137702438Y-62614285D01*
X137702438Y-62614285D02*
X137750057Y-62661904D01*
X137750057Y-62661904D02*
X137845295Y-62709523D01*
X137845295Y-62709523D02*
X138083390Y-62709523D01*
X138083390Y-62709523D02*
X138178628Y-62661904D01*
X138178628Y-62661904D02*
X138226247Y-62614285D01*
X138226247Y-62614285D02*
X138273866Y-62519047D01*
X138273866Y-62519047D02*
X138273866Y-62328571D01*
X138273866Y-62328571D02*
X138226247Y-62233333D01*
X138226247Y-62233333D02*
X138178628Y-62185714D01*
X138178628Y-62185714D02*
X138083390Y-62138095D01*
X130633333Y-75954819D02*
X130300000Y-75478628D01*
X130061905Y-75954819D02*
X130061905Y-74954819D01*
X130061905Y-74954819D02*
X130442857Y-74954819D01*
X130442857Y-74954819D02*
X130538095Y-75002438D01*
X130538095Y-75002438D02*
X130585714Y-75050057D01*
X130585714Y-75050057D02*
X130633333Y-75145295D01*
X130633333Y-75145295D02*
X130633333Y-75288152D01*
X130633333Y-75288152D02*
X130585714Y-75383390D01*
X130585714Y-75383390D02*
X130538095Y-75431009D01*
X130538095Y-75431009D02*
X130442857Y-75478628D01*
X130442857Y-75478628D02*
X130061905Y-75478628D01*
X131490476Y-74954819D02*
X131300000Y-74954819D01*
X131300000Y-74954819D02*
X131204762Y-75002438D01*
X131204762Y-75002438D02*
X131157143Y-75050057D01*
X131157143Y-75050057D02*
X131061905Y-75192914D01*
X131061905Y-75192914D02*
X131014286Y-75383390D01*
X131014286Y-75383390D02*
X131014286Y-75764342D01*
X131014286Y-75764342D02*
X131061905Y-75859580D01*
X131061905Y-75859580D02*
X131109524Y-75907200D01*
X131109524Y-75907200D02*
X131204762Y-75954819D01*
X131204762Y-75954819D02*
X131395238Y-75954819D01*
X131395238Y-75954819D02*
X131490476Y-75907200D01*
X131490476Y-75907200D02*
X131538095Y-75859580D01*
X131538095Y-75859580D02*
X131585714Y-75764342D01*
X131585714Y-75764342D02*
X131585714Y-75526247D01*
X131585714Y-75526247D02*
X131538095Y-75431009D01*
X131538095Y-75431009D02*
X131490476Y-75383390D01*
X131490476Y-75383390D02*
X131395238Y-75335771D01*
X131395238Y-75335771D02*
X131204762Y-75335771D01*
X131204762Y-75335771D02*
X131109524Y-75383390D01*
X131109524Y-75383390D02*
X131061905Y-75431009D01*
X131061905Y-75431009D02*
X131014286Y-75526247D01*
X172189642Y-93304819D02*
X171856309Y-92828628D01*
X171618214Y-93304819D02*
X171618214Y-92304819D01*
X171618214Y-92304819D02*
X171999166Y-92304819D01*
X171999166Y-92304819D02*
X172094404Y-92352438D01*
X172094404Y-92352438D02*
X172142023Y-92400057D01*
X172142023Y-92400057D02*
X172189642Y-92495295D01*
X172189642Y-92495295D02*
X172189642Y-92638152D01*
X172189642Y-92638152D02*
X172142023Y-92733390D01*
X172142023Y-92733390D02*
X172094404Y-92781009D01*
X172094404Y-92781009D02*
X171999166Y-92828628D01*
X171999166Y-92828628D02*
X171618214Y-92828628D01*
X173142023Y-93304819D02*
X172570595Y-93304819D01*
X172856309Y-93304819D02*
X172856309Y-92304819D01*
X172856309Y-92304819D02*
X172761071Y-92447676D01*
X172761071Y-92447676D02*
X172665833Y-92542914D01*
X172665833Y-92542914D02*
X172570595Y-92590533D01*
X173999166Y-92638152D02*
X173999166Y-93304819D01*
X173761071Y-92257200D02*
X173522976Y-92971485D01*
X173522976Y-92971485D02*
X174142023Y-92971485D01*
X140154819Y-64042857D02*
X139678628Y-64376190D01*
X140154819Y-64614285D02*
X139154819Y-64614285D01*
X139154819Y-64614285D02*
X139154819Y-64233333D01*
X139154819Y-64233333D02*
X139202438Y-64138095D01*
X139202438Y-64138095D02*
X139250057Y-64090476D01*
X139250057Y-64090476D02*
X139345295Y-64042857D01*
X139345295Y-64042857D02*
X139488152Y-64042857D01*
X139488152Y-64042857D02*
X139583390Y-64090476D01*
X139583390Y-64090476D02*
X139631009Y-64138095D01*
X139631009Y-64138095D02*
X139678628Y-64233333D01*
X139678628Y-64233333D02*
X139678628Y-64614285D01*
X139488152Y-63185714D02*
X140154819Y-63185714D01*
X139107200Y-63423809D02*
X139821485Y-63661904D01*
X139821485Y-63661904D02*
X139821485Y-63042857D01*
X139154819Y-62471428D02*
X139154819Y-62376190D01*
X139154819Y-62376190D02*
X139202438Y-62280952D01*
X139202438Y-62280952D02*
X139250057Y-62233333D01*
X139250057Y-62233333D02*
X139345295Y-62185714D01*
X139345295Y-62185714D02*
X139535771Y-62138095D01*
X139535771Y-62138095D02*
X139773866Y-62138095D01*
X139773866Y-62138095D02*
X139964342Y-62185714D01*
X139964342Y-62185714D02*
X140059580Y-62233333D01*
X140059580Y-62233333D02*
X140107200Y-62280952D01*
X140107200Y-62280952D02*
X140154819Y-62376190D01*
X140154819Y-62376190D02*
X140154819Y-62471428D01*
X140154819Y-62471428D02*
X140107200Y-62566666D01*
X140107200Y-62566666D02*
X140059580Y-62614285D01*
X140059580Y-62614285D02*
X139964342Y-62661904D01*
X139964342Y-62661904D02*
X139773866Y-62709523D01*
X139773866Y-62709523D02*
X139535771Y-62709523D01*
X139535771Y-62709523D02*
X139345295Y-62661904D01*
X139345295Y-62661904D02*
X139250057Y-62614285D01*
X139250057Y-62614285D02*
X139202438Y-62566666D01*
X139202438Y-62566666D02*
X139154819Y-62471428D01*
X162190476Y-67554819D02*
X162190476Y-68269104D01*
X162190476Y-68269104D02*
X162142857Y-68411961D01*
X162142857Y-68411961D02*
X162047619Y-68507200D01*
X162047619Y-68507200D02*
X161904762Y-68554819D01*
X161904762Y-68554819D02*
X161809524Y-68554819D01*
X163190476Y-68554819D02*
X162619048Y-68554819D01*
X162904762Y-68554819D02*
X162904762Y-67554819D01*
X162904762Y-67554819D02*
X162809524Y-67697676D01*
X162809524Y-67697676D02*
X162714286Y-67792914D01*
X162714286Y-67792914D02*
X162619048Y-67840533D01*
X163571429Y-67650057D02*
X163619048Y-67602438D01*
X163619048Y-67602438D02*
X163714286Y-67554819D01*
X163714286Y-67554819D02*
X163952381Y-67554819D01*
X163952381Y-67554819D02*
X164047619Y-67602438D01*
X164047619Y-67602438D02*
X164095238Y-67650057D01*
X164095238Y-67650057D02*
X164142857Y-67745295D01*
X164142857Y-67745295D02*
X164142857Y-67840533D01*
X164142857Y-67840533D02*
X164095238Y-67983390D01*
X164095238Y-67983390D02*
X163523810Y-68554819D01*
X163523810Y-68554819D02*
X164142857Y-68554819D01*
X167170595Y-86154819D02*
X167170595Y-86964342D01*
X167170595Y-86964342D02*
X167218214Y-87059580D01*
X167218214Y-87059580D02*
X167265833Y-87107200D01*
X167265833Y-87107200D02*
X167361071Y-87154819D01*
X167361071Y-87154819D02*
X167551547Y-87154819D01*
X167551547Y-87154819D02*
X167646785Y-87107200D01*
X167646785Y-87107200D02*
X167694404Y-87059580D01*
X167694404Y-87059580D02*
X167742023Y-86964342D01*
X167742023Y-86964342D02*
X167742023Y-86154819D01*
X168361071Y-86583390D02*
X168265833Y-86535771D01*
X168265833Y-86535771D02*
X168218214Y-86488152D01*
X168218214Y-86488152D02*
X168170595Y-86392914D01*
X168170595Y-86392914D02*
X168170595Y-86345295D01*
X168170595Y-86345295D02*
X168218214Y-86250057D01*
X168218214Y-86250057D02*
X168265833Y-86202438D01*
X168265833Y-86202438D02*
X168361071Y-86154819D01*
X168361071Y-86154819D02*
X168551547Y-86154819D01*
X168551547Y-86154819D02*
X168646785Y-86202438D01*
X168646785Y-86202438D02*
X168694404Y-86250057D01*
X168694404Y-86250057D02*
X168742023Y-86345295D01*
X168742023Y-86345295D02*
X168742023Y-86392914D01*
X168742023Y-86392914D02*
X168694404Y-86488152D01*
X168694404Y-86488152D02*
X168646785Y-86535771D01*
X168646785Y-86535771D02*
X168551547Y-86583390D01*
X168551547Y-86583390D02*
X168361071Y-86583390D01*
X168361071Y-86583390D02*
X168265833Y-86631009D01*
X168265833Y-86631009D02*
X168218214Y-86678628D01*
X168218214Y-86678628D02*
X168170595Y-86773866D01*
X168170595Y-86773866D02*
X168170595Y-86964342D01*
X168170595Y-86964342D02*
X168218214Y-87059580D01*
X168218214Y-87059580D02*
X168265833Y-87107200D01*
X168265833Y-87107200D02*
X168361071Y-87154819D01*
X168361071Y-87154819D02*
X168551547Y-87154819D01*
X168551547Y-87154819D02*
X168646785Y-87107200D01*
X168646785Y-87107200D02*
X168694404Y-87059580D01*
X168694404Y-87059580D02*
X168742023Y-86964342D01*
X168742023Y-86964342D02*
X168742023Y-86773866D01*
X168742023Y-86773866D02*
X168694404Y-86678628D01*
X168694404Y-86678628D02*
X168646785Y-86631009D01*
X168646785Y-86631009D02*
X168551547Y-86583390D01*
X172189642Y-64604819D02*
X171856309Y-64128628D01*
X171618214Y-64604819D02*
X171618214Y-63604819D01*
X171618214Y-63604819D02*
X171999166Y-63604819D01*
X171999166Y-63604819D02*
X172094404Y-63652438D01*
X172094404Y-63652438D02*
X172142023Y-63700057D01*
X172142023Y-63700057D02*
X172189642Y-63795295D01*
X172189642Y-63795295D02*
X172189642Y-63938152D01*
X172189642Y-63938152D02*
X172142023Y-64033390D01*
X172142023Y-64033390D02*
X172094404Y-64081009D01*
X172094404Y-64081009D02*
X171999166Y-64128628D01*
X171999166Y-64128628D02*
X171618214Y-64128628D01*
X173142023Y-64604819D02*
X172570595Y-64604819D01*
X172856309Y-64604819D02*
X172856309Y-63604819D01*
X172856309Y-63604819D02*
X172761071Y-63747676D01*
X172761071Y-63747676D02*
X172665833Y-63842914D01*
X172665833Y-63842914D02*
X172570595Y-63890533D01*
X173999166Y-63604819D02*
X173808690Y-63604819D01*
X173808690Y-63604819D02*
X173713452Y-63652438D01*
X173713452Y-63652438D02*
X173665833Y-63700057D01*
X173665833Y-63700057D02*
X173570595Y-63842914D01*
X173570595Y-63842914D02*
X173522976Y-64033390D01*
X173522976Y-64033390D02*
X173522976Y-64414342D01*
X173522976Y-64414342D02*
X173570595Y-64509580D01*
X173570595Y-64509580D02*
X173618214Y-64557200D01*
X173618214Y-64557200D02*
X173713452Y-64604819D01*
X173713452Y-64604819D02*
X173903928Y-64604819D01*
X173903928Y-64604819D02*
X173999166Y-64557200D01*
X173999166Y-64557200D02*
X174046785Y-64509580D01*
X174046785Y-64509580D02*
X174094404Y-64414342D01*
X174094404Y-64414342D02*
X174094404Y-64176247D01*
X174094404Y-64176247D02*
X174046785Y-64081009D01*
X174046785Y-64081009D02*
X173999166Y-64033390D01*
X173999166Y-64033390D02*
X173903928Y-63985771D01*
X173903928Y-63985771D02*
X173713452Y-63985771D01*
X173713452Y-63985771D02*
X173618214Y-64033390D01*
X173618214Y-64033390D02*
X173570595Y-64081009D01*
X173570595Y-64081009D02*
X173522976Y-64176247D01*
D12*
X177883571Y-89074318D02*
X177460237Y-88469556D01*
X177157856Y-89074318D02*
X177157856Y-87804318D01*
X177157856Y-87804318D02*
X177641666Y-87804318D01*
X177641666Y-87804318D02*
X177762618Y-87864794D01*
X177762618Y-87864794D02*
X177823095Y-87925270D01*
X177823095Y-87925270D02*
X177883571Y-88046222D01*
X177883571Y-88046222D02*
X177883571Y-88227651D01*
X177883571Y-88227651D02*
X177823095Y-88348603D01*
X177823095Y-88348603D02*
X177762618Y-88409080D01*
X177762618Y-88409080D02*
X177641666Y-88469556D01*
X177641666Y-88469556D02*
X177157856Y-88469556D01*
X178367380Y-87925270D02*
X178427856Y-87864794D01*
X178427856Y-87864794D02*
X178548809Y-87804318D01*
X178548809Y-87804318D02*
X178851190Y-87804318D01*
X178851190Y-87804318D02*
X178972142Y-87864794D01*
X178972142Y-87864794D02*
X179032618Y-87925270D01*
X179032618Y-87925270D02*
X179093095Y-88046222D01*
X179093095Y-88046222D02*
X179093095Y-88167175D01*
X179093095Y-88167175D02*
X179032618Y-88348603D01*
X179032618Y-88348603D02*
X178306904Y-89074318D01*
X178306904Y-89074318D02*
X179093095Y-89074318D01*
X179516428Y-87804318D02*
X180363095Y-87804318D01*
X180363095Y-87804318D02*
X179818809Y-89074318D01*
D11*
X120766666Y-96654819D02*
X120766666Y-97369104D01*
X120766666Y-97369104D02*
X120719047Y-97511961D01*
X120719047Y-97511961D02*
X120623809Y-97607200D01*
X120623809Y-97607200D02*
X120480952Y-97654819D01*
X120480952Y-97654819D02*
X120385714Y-97654819D01*
X121195238Y-96750057D02*
X121242857Y-96702438D01*
X121242857Y-96702438D02*
X121338095Y-96654819D01*
X121338095Y-96654819D02*
X121576190Y-96654819D01*
X121576190Y-96654819D02*
X121671428Y-96702438D01*
X121671428Y-96702438D02*
X121719047Y-96750057D01*
X121719047Y-96750057D02*
X121766666Y-96845295D01*
X121766666Y-96845295D02*
X121766666Y-96940533D01*
X121766666Y-96940533D02*
X121719047Y-97083390D01*
X121719047Y-97083390D02*
X121147619Y-97654819D01*
X121147619Y-97654819D02*
X121766666Y-97654819D01*
X136033333Y-75854819D02*
X135700000Y-75378628D01*
X135461905Y-75854819D02*
X135461905Y-74854819D01*
X135461905Y-74854819D02*
X135842857Y-74854819D01*
X135842857Y-74854819D02*
X135938095Y-74902438D01*
X135938095Y-74902438D02*
X135985714Y-74950057D01*
X135985714Y-74950057D02*
X136033333Y-75045295D01*
X136033333Y-75045295D02*
X136033333Y-75188152D01*
X136033333Y-75188152D02*
X135985714Y-75283390D01*
X135985714Y-75283390D02*
X135938095Y-75331009D01*
X135938095Y-75331009D02*
X135842857Y-75378628D01*
X135842857Y-75378628D02*
X135461905Y-75378628D01*
X136366667Y-74854819D02*
X137033333Y-74854819D01*
X137033333Y-74854819D02*
X136604762Y-75854819D01*
X130633333Y-66754819D02*
X130300000Y-66278628D01*
X130061905Y-66754819D02*
X130061905Y-65754819D01*
X130061905Y-65754819D02*
X130442857Y-65754819D01*
X130442857Y-65754819D02*
X130538095Y-65802438D01*
X130538095Y-65802438D02*
X130585714Y-65850057D01*
X130585714Y-65850057D02*
X130633333Y-65945295D01*
X130633333Y-65945295D02*
X130633333Y-66088152D01*
X130633333Y-66088152D02*
X130585714Y-66183390D01*
X130585714Y-66183390D02*
X130538095Y-66231009D01*
X130538095Y-66231009D02*
X130442857Y-66278628D01*
X130442857Y-66278628D02*
X130061905Y-66278628D01*
X131538095Y-65754819D02*
X131061905Y-65754819D01*
X131061905Y-65754819D02*
X131014286Y-66231009D01*
X131014286Y-66231009D02*
X131061905Y-66183390D01*
X131061905Y-66183390D02*
X131157143Y-66135771D01*
X131157143Y-66135771D02*
X131395238Y-66135771D01*
X131395238Y-66135771D02*
X131490476Y-66183390D01*
X131490476Y-66183390D02*
X131538095Y-66231009D01*
X131538095Y-66231009D02*
X131585714Y-66326247D01*
X131585714Y-66326247D02*
X131585714Y-66564342D01*
X131585714Y-66564342D02*
X131538095Y-66659580D01*
X131538095Y-66659580D02*
X131490476Y-66707200D01*
X131490476Y-66707200D02*
X131395238Y-66754819D01*
X131395238Y-66754819D02*
X131157143Y-66754819D01*
X131157143Y-66754819D02*
X131061905Y-66707200D01*
X131061905Y-66707200D02*
X131014286Y-66659580D01*
X140333333Y-76254819D02*
X140000000Y-75778628D01*
X139761905Y-76254819D02*
X139761905Y-75254819D01*
X139761905Y-75254819D02*
X140142857Y-75254819D01*
X140142857Y-75254819D02*
X140238095Y-75302438D01*
X140238095Y-75302438D02*
X140285714Y-75350057D01*
X140285714Y-75350057D02*
X140333333Y-75445295D01*
X140333333Y-75445295D02*
X140333333Y-75588152D01*
X140333333Y-75588152D02*
X140285714Y-75683390D01*
X140285714Y-75683390D02*
X140238095Y-75731009D01*
X140238095Y-75731009D02*
X140142857Y-75778628D01*
X140142857Y-75778628D02*
X139761905Y-75778628D01*
X140904762Y-75683390D02*
X140809524Y-75635771D01*
X140809524Y-75635771D02*
X140761905Y-75588152D01*
X140761905Y-75588152D02*
X140714286Y-75492914D01*
X140714286Y-75492914D02*
X140714286Y-75445295D01*
X140714286Y-75445295D02*
X140761905Y-75350057D01*
X140761905Y-75350057D02*
X140809524Y-75302438D01*
X140809524Y-75302438D02*
X140904762Y-75254819D01*
X140904762Y-75254819D02*
X141095238Y-75254819D01*
X141095238Y-75254819D02*
X141190476Y-75302438D01*
X141190476Y-75302438D02*
X141238095Y-75350057D01*
X141238095Y-75350057D02*
X141285714Y-75445295D01*
X141285714Y-75445295D02*
X141285714Y-75492914D01*
X141285714Y-75492914D02*
X141238095Y-75588152D01*
X141238095Y-75588152D02*
X141190476Y-75635771D01*
X141190476Y-75635771D02*
X141095238Y-75683390D01*
X141095238Y-75683390D02*
X140904762Y-75683390D01*
X140904762Y-75683390D02*
X140809524Y-75731009D01*
X140809524Y-75731009D02*
X140761905Y-75778628D01*
X140761905Y-75778628D02*
X140714286Y-75873866D01*
X140714286Y-75873866D02*
X140714286Y-76064342D01*
X140714286Y-76064342D02*
X140761905Y-76159580D01*
X140761905Y-76159580D02*
X140809524Y-76207200D01*
X140809524Y-76207200D02*
X140904762Y-76254819D01*
X140904762Y-76254819D02*
X141095238Y-76254819D01*
X141095238Y-76254819D02*
X141190476Y-76207200D01*
X141190476Y-76207200D02*
X141238095Y-76159580D01*
X141238095Y-76159580D02*
X141285714Y-76064342D01*
X141285714Y-76064342D02*
X141285714Y-75873866D01*
X141285714Y-75873866D02*
X141238095Y-75778628D01*
X141238095Y-75778628D02*
X141190476Y-75731009D01*
X141190476Y-75731009D02*
X141095238Y-75683390D01*
X156057142Y-73659580D02*
X156009523Y-73707200D01*
X156009523Y-73707200D02*
X155866666Y-73754819D01*
X155866666Y-73754819D02*
X155771428Y-73754819D01*
X155771428Y-73754819D02*
X155628571Y-73707200D01*
X155628571Y-73707200D02*
X155533333Y-73611961D01*
X155533333Y-73611961D02*
X155485714Y-73516723D01*
X155485714Y-73516723D02*
X155438095Y-73326247D01*
X155438095Y-73326247D02*
X155438095Y-73183390D01*
X155438095Y-73183390D02*
X155485714Y-72992914D01*
X155485714Y-72992914D02*
X155533333Y-72897676D01*
X155533333Y-72897676D02*
X155628571Y-72802438D01*
X155628571Y-72802438D02*
X155771428Y-72754819D01*
X155771428Y-72754819D02*
X155866666Y-72754819D01*
X155866666Y-72754819D02*
X156009523Y-72802438D01*
X156009523Y-72802438D02*
X156057142Y-72850057D01*
X157009523Y-73754819D02*
X156438095Y-73754819D01*
X156723809Y-73754819D02*
X156723809Y-72754819D01*
X156723809Y-72754819D02*
X156628571Y-72897676D01*
X156628571Y-72897676D02*
X156533333Y-72992914D01*
X156533333Y-72992914D02*
X156438095Y-73040533D01*
X157342857Y-72754819D02*
X157961904Y-72754819D01*
X157961904Y-72754819D02*
X157628571Y-73135771D01*
X157628571Y-73135771D02*
X157771428Y-73135771D01*
X157771428Y-73135771D02*
X157866666Y-73183390D01*
X157866666Y-73183390D02*
X157914285Y-73231009D01*
X157914285Y-73231009D02*
X157961904Y-73326247D01*
X157961904Y-73326247D02*
X157961904Y-73564342D01*
X157961904Y-73564342D02*
X157914285Y-73659580D01*
X157914285Y-73659580D02*
X157866666Y-73707200D01*
X157866666Y-73707200D02*
X157771428Y-73754819D01*
X157771428Y-73754819D02*
X157485714Y-73754819D01*
X157485714Y-73754819D02*
X157390476Y-73707200D01*
X157390476Y-73707200D02*
X157342857Y-73659580D01*
X160938095Y-50254819D02*
X160938095Y-51064342D01*
X160938095Y-51064342D02*
X160985714Y-51159580D01*
X160985714Y-51159580D02*
X161033333Y-51207200D01*
X161033333Y-51207200D02*
X161128571Y-51254819D01*
X161128571Y-51254819D02*
X161319047Y-51254819D01*
X161319047Y-51254819D02*
X161414285Y-51207200D01*
X161414285Y-51207200D02*
X161461904Y-51159580D01*
X161461904Y-51159580D02*
X161509523Y-51064342D01*
X161509523Y-51064342D02*
X161509523Y-50254819D01*
X162509523Y-51254819D02*
X161938095Y-51254819D01*
X162223809Y-51254819D02*
X162223809Y-50254819D01*
X162223809Y-50254819D02*
X162128571Y-50397676D01*
X162128571Y-50397676D02*
X162033333Y-50492914D01*
X162033333Y-50492914D02*
X161938095Y-50540533D01*
X176954819Y-77692857D02*
X176478628Y-78026190D01*
X176954819Y-78264285D02*
X175954819Y-78264285D01*
X175954819Y-78264285D02*
X175954819Y-77883333D01*
X175954819Y-77883333D02*
X176002438Y-77788095D01*
X176002438Y-77788095D02*
X176050057Y-77740476D01*
X176050057Y-77740476D02*
X176145295Y-77692857D01*
X176145295Y-77692857D02*
X176288152Y-77692857D01*
X176288152Y-77692857D02*
X176383390Y-77740476D01*
X176383390Y-77740476D02*
X176431009Y-77788095D01*
X176431009Y-77788095D02*
X176478628Y-77883333D01*
X176478628Y-77883333D02*
X176478628Y-78264285D01*
X176288152Y-76835714D02*
X176954819Y-76835714D01*
X175907200Y-77073809D02*
X176621485Y-77311904D01*
X176621485Y-77311904D02*
X176621485Y-76692857D01*
X175954819Y-76407142D02*
X175954819Y-75788095D01*
X175954819Y-75788095D02*
X176335771Y-76121428D01*
X176335771Y-76121428D02*
X176335771Y-75978571D01*
X176335771Y-75978571D02*
X176383390Y-75883333D01*
X176383390Y-75883333D02*
X176431009Y-75835714D01*
X176431009Y-75835714D02*
X176526247Y-75788095D01*
X176526247Y-75788095D02*
X176764342Y-75788095D01*
X176764342Y-75788095D02*
X176859580Y-75835714D01*
X176859580Y-75835714D02*
X176907200Y-75883333D01*
X176907200Y-75883333D02*
X176954819Y-75978571D01*
X176954819Y-75978571D02*
X176954819Y-76264285D01*
X176954819Y-76264285D02*
X176907200Y-76359523D01*
X176907200Y-76359523D02*
X176859580Y-76407142D01*
X128999405Y-99054819D02*
X128999405Y-98054819D01*
X128999405Y-98054819D02*
X129237500Y-98054819D01*
X129237500Y-98054819D02*
X129380357Y-98102438D01*
X129380357Y-98102438D02*
X129475595Y-98197676D01*
X129475595Y-98197676D02*
X129523214Y-98292914D01*
X129523214Y-98292914D02*
X129570833Y-98483390D01*
X129570833Y-98483390D02*
X129570833Y-98626247D01*
X129570833Y-98626247D02*
X129523214Y-98816723D01*
X129523214Y-98816723D02*
X129475595Y-98911961D01*
X129475595Y-98911961D02*
X129380357Y-99007200D01*
X129380357Y-99007200D02*
X129237500Y-99054819D01*
X129237500Y-99054819D02*
X128999405Y-99054819D01*
X130523214Y-99054819D02*
X129951786Y-99054819D01*
X130237500Y-99054819D02*
X130237500Y-98054819D01*
X130237500Y-98054819D02*
X130142262Y-98197676D01*
X130142262Y-98197676D02*
X130047024Y-98292914D01*
X130047024Y-98292914D02*
X129951786Y-98340533D01*
X135738095Y-70354819D02*
X135738095Y-71164342D01*
X135738095Y-71164342D02*
X135785714Y-71259580D01*
X135785714Y-71259580D02*
X135833333Y-71307200D01*
X135833333Y-71307200D02*
X135928571Y-71354819D01*
X135928571Y-71354819D02*
X136119047Y-71354819D01*
X136119047Y-71354819D02*
X136214285Y-71307200D01*
X136214285Y-71307200D02*
X136261904Y-71259580D01*
X136261904Y-71259580D02*
X136309523Y-71164342D01*
X136309523Y-71164342D02*
X136309523Y-70354819D01*
X137214285Y-70354819D02*
X137023809Y-70354819D01*
X137023809Y-70354819D02*
X136928571Y-70402438D01*
X136928571Y-70402438D02*
X136880952Y-70450057D01*
X136880952Y-70450057D02*
X136785714Y-70592914D01*
X136785714Y-70592914D02*
X136738095Y-70783390D01*
X136738095Y-70783390D02*
X136738095Y-71164342D01*
X136738095Y-71164342D02*
X136785714Y-71259580D01*
X136785714Y-71259580D02*
X136833333Y-71307200D01*
X136833333Y-71307200D02*
X136928571Y-71354819D01*
X136928571Y-71354819D02*
X137119047Y-71354819D01*
X137119047Y-71354819D02*
X137214285Y-71307200D01*
X137214285Y-71307200D02*
X137261904Y-71259580D01*
X137261904Y-71259580D02*
X137309523Y-71164342D01*
X137309523Y-71164342D02*
X137309523Y-70926247D01*
X137309523Y-70926247D02*
X137261904Y-70831009D01*
X137261904Y-70831009D02*
X137214285Y-70783390D01*
X137214285Y-70783390D02*
X137119047Y-70735771D01*
X137119047Y-70735771D02*
X136928571Y-70735771D01*
X136928571Y-70735771D02*
X136833333Y-70783390D01*
X136833333Y-70783390D02*
X136785714Y-70831009D01*
X136785714Y-70831009D02*
X136738095Y-70926247D01*
X169366666Y-59354819D02*
X169366666Y-60069104D01*
X169366666Y-60069104D02*
X169319047Y-60211961D01*
X169319047Y-60211961D02*
X169223809Y-60307200D01*
X169223809Y-60307200D02*
X169080952Y-60354819D01*
X169080952Y-60354819D02*
X168985714Y-60354819D01*
X169842857Y-60354819D02*
X169842857Y-59354819D01*
X169842857Y-59354819D02*
X170223809Y-59354819D01*
X170223809Y-59354819D02*
X170319047Y-59402438D01*
X170319047Y-59402438D02*
X170366666Y-59450057D01*
X170366666Y-59450057D02*
X170414285Y-59545295D01*
X170414285Y-59545295D02*
X170414285Y-59688152D01*
X170414285Y-59688152D02*
X170366666Y-59783390D01*
X170366666Y-59783390D02*
X170319047Y-59831009D01*
X170319047Y-59831009D02*
X170223809Y-59878628D01*
X170223809Y-59878628D02*
X169842857Y-59878628D01*
X170795238Y-59450057D02*
X170842857Y-59402438D01*
X170842857Y-59402438D02*
X170938095Y-59354819D01*
X170938095Y-59354819D02*
X171176190Y-59354819D01*
X171176190Y-59354819D02*
X171271428Y-59402438D01*
X171271428Y-59402438D02*
X171319047Y-59450057D01*
X171319047Y-59450057D02*
X171366666Y-59545295D01*
X171366666Y-59545295D02*
X171366666Y-59640533D01*
X171366666Y-59640533D02*
X171319047Y-59783390D01*
X171319047Y-59783390D02*
X170747619Y-60354819D01*
X170747619Y-60354819D02*
X171366666Y-60354819D01*
X167885714Y-62154819D02*
X167314286Y-62154819D01*
X167600000Y-62154819D02*
X167600000Y-61154819D01*
X167600000Y-61154819D02*
X167504762Y-61297676D01*
X167504762Y-61297676D02*
X167409524Y-61392914D01*
X167409524Y-61392914D02*
X167314286Y-61440533D01*
X172466667Y-61154819D02*
X173085714Y-61154819D01*
X173085714Y-61154819D02*
X172752381Y-61535771D01*
X172752381Y-61535771D02*
X172895238Y-61535771D01*
X172895238Y-61535771D02*
X172990476Y-61583390D01*
X172990476Y-61583390D02*
X173038095Y-61631009D01*
X173038095Y-61631009D02*
X173085714Y-61726247D01*
X173085714Y-61726247D02*
X173085714Y-61964342D01*
X173085714Y-61964342D02*
X173038095Y-62059580D01*
X173038095Y-62059580D02*
X172990476Y-62107200D01*
X172990476Y-62107200D02*
X172895238Y-62154819D01*
X172895238Y-62154819D02*
X172609524Y-62154819D01*
X172609524Y-62154819D02*
X172514286Y-62107200D01*
X172514286Y-62107200D02*
X172466667Y-62059580D01*
X156107142Y-75304819D02*
X155773809Y-74828628D01*
X155535714Y-75304819D02*
X155535714Y-74304819D01*
X155535714Y-74304819D02*
X155916666Y-74304819D01*
X155916666Y-74304819D02*
X156011904Y-74352438D01*
X156011904Y-74352438D02*
X156059523Y-74400057D01*
X156059523Y-74400057D02*
X156107142Y-74495295D01*
X156107142Y-74495295D02*
X156107142Y-74638152D01*
X156107142Y-74638152D02*
X156059523Y-74733390D01*
X156059523Y-74733390D02*
X156011904Y-74781009D01*
X156011904Y-74781009D02*
X155916666Y-74828628D01*
X155916666Y-74828628D02*
X155535714Y-74828628D01*
X156440476Y-74304819D02*
X157059523Y-74304819D01*
X157059523Y-74304819D02*
X156726190Y-74685771D01*
X156726190Y-74685771D02*
X156869047Y-74685771D01*
X156869047Y-74685771D02*
X156964285Y-74733390D01*
X156964285Y-74733390D02*
X157011904Y-74781009D01*
X157011904Y-74781009D02*
X157059523Y-74876247D01*
X157059523Y-74876247D02*
X157059523Y-75114342D01*
X157059523Y-75114342D02*
X157011904Y-75209580D01*
X157011904Y-75209580D02*
X156964285Y-75257200D01*
X156964285Y-75257200D02*
X156869047Y-75304819D01*
X156869047Y-75304819D02*
X156583333Y-75304819D01*
X156583333Y-75304819D02*
X156488095Y-75257200D01*
X156488095Y-75257200D02*
X156440476Y-75209580D01*
X157916666Y-74304819D02*
X157726190Y-74304819D01*
X157726190Y-74304819D02*
X157630952Y-74352438D01*
X157630952Y-74352438D02*
X157583333Y-74400057D01*
X157583333Y-74400057D02*
X157488095Y-74542914D01*
X157488095Y-74542914D02*
X157440476Y-74733390D01*
X157440476Y-74733390D02*
X157440476Y-75114342D01*
X157440476Y-75114342D02*
X157488095Y-75209580D01*
X157488095Y-75209580D02*
X157535714Y-75257200D01*
X157535714Y-75257200D02*
X157630952Y-75304819D01*
X157630952Y-75304819D02*
X157821428Y-75304819D01*
X157821428Y-75304819D02*
X157916666Y-75257200D01*
X157916666Y-75257200D02*
X157964285Y-75209580D01*
X157964285Y-75209580D02*
X158011904Y-75114342D01*
X158011904Y-75114342D02*
X158011904Y-74876247D01*
X158011904Y-74876247D02*
X157964285Y-74781009D01*
X157964285Y-74781009D02*
X157916666Y-74733390D01*
X157916666Y-74733390D02*
X157821428Y-74685771D01*
X157821428Y-74685771D02*
X157630952Y-74685771D01*
X157630952Y-74685771D02*
X157535714Y-74733390D01*
X157535714Y-74733390D02*
X157488095Y-74781009D01*
X157488095Y-74781009D02*
X157440476Y-74876247D01*
X134004761Y-87450057D02*
X133909523Y-87402438D01*
X133909523Y-87402438D02*
X133814285Y-87307200D01*
X133814285Y-87307200D02*
X133671428Y-87164342D01*
X133671428Y-87164342D02*
X133576190Y-87116723D01*
X133576190Y-87116723D02*
X133480952Y-87116723D01*
X133528571Y-87354819D02*
X133433333Y-87307200D01*
X133433333Y-87307200D02*
X133338095Y-87211961D01*
X133338095Y-87211961D02*
X133290476Y-87021485D01*
X133290476Y-87021485D02*
X133290476Y-86688152D01*
X133290476Y-86688152D02*
X133338095Y-86497676D01*
X133338095Y-86497676D02*
X133433333Y-86402438D01*
X133433333Y-86402438D02*
X133528571Y-86354819D01*
X133528571Y-86354819D02*
X133719047Y-86354819D01*
X133719047Y-86354819D02*
X133814285Y-86402438D01*
X133814285Y-86402438D02*
X133909523Y-86497676D01*
X133909523Y-86497676D02*
X133957142Y-86688152D01*
X133957142Y-86688152D02*
X133957142Y-87021485D01*
X133957142Y-87021485D02*
X133909523Y-87211961D01*
X133909523Y-87211961D02*
X133814285Y-87307200D01*
X133814285Y-87307200D02*
X133719047Y-87354819D01*
X133719047Y-87354819D02*
X133528571Y-87354819D01*
X134909523Y-87354819D02*
X134338095Y-87354819D01*
X134623809Y-87354819D02*
X134623809Y-86354819D01*
X134623809Y-86354819D02*
X134528571Y-86497676D01*
X134528571Y-86497676D02*
X134433333Y-86592914D01*
X134433333Y-86592914D02*
X134338095Y-86640533D01*
X179154819Y-98642857D02*
X178678628Y-98976190D01*
X179154819Y-99214285D02*
X178154819Y-99214285D01*
X178154819Y-99214285D02*
X178154819Y-98833333D01*
X178154819Y-98833333D02*
X178202438Y-98738095D01*
X178202438Y-98738095D02*
X178250057Y-98690476D01*
X178250057Y-98690476D02*
X178345295Y-98642857D01*
X178345295Y-98642857D02*
X178488152Y-98642857D01*
X178488152Y-98642857D02*
X178583390Y-98690476D01*
X178583390Y-98690476D02*
X178631009Y-98738095D01*
X178631009Y-98738095D02*
X178678628Y-98833333D01*
X178678628Y-98833333D02*
X178678628Y-99214285D01*
X178488152Y-97785714D02*
X179154819Y-97785714D01*
X178107200Y-98023809D02*
X178821485Y-98261904D01*
X178821485Y-98261904D02*
X178821485Y-97642857D01*
X178583390Y-97119047D02*
X178535771Y-97214285D01*
X178535771Y-97214285D02*
X178488152Y-97261904D01*
X178488152Y-97261904D02*
X178392914Y-97309523D01*
X178392914Y-97309523D02*
X178345295Y-97309523D01*
X178345295Y-97309523D02*
X178250057Y-97261904D01*
X178250057Y-97261904D02*
X178202438Y-97214285D01*
X178202438Y-97214285D02*
X178154819Y-97119047D01*
X178154819Y-97119047D02*
X178154819Y-96928571D01*
X178154819Y-96928571D02*
X178202438Y-96833333D01*
X178202438Y-96833333D02*
X178250057Y-96785714D01*
X178250057Y-96785714D02*
X178345295Y-96738095D01*
X178345295Y-96738095D02*
X178392914Y-96738095D01*
X178392914Y-96738095D02*
X178488152Y-96785714D01*
X178488152Y-96785714D02*
X178535771Y-96833333D01*
X178535771Y-96833333D02*
X178583390Y-96928571D01*
X178583390Y-96928571D02*
X178583390Y-97119047D01*
X178583390Y-97119047D02*
X178631009Y-97214285D01*
X178631009Y-97214285D02*
X178678628Y-97261904D01*
X178678628Y-97261904D02*
X178773866Y-97309523D01*
X178773866Y-97309523D02*
X178964342Y-97309523D01*
X178964342Y-97309523D02*
X179059580Y-97261904D01*
X179059580Y-97261904D02*
X179107200Y-97214285D01*
X179107200Y-97214285D02*
X179154819Y-97119047D01*
X179154819Y-97119047D02*
X179154819Y-96928571D01*
X179154819Y-96928571D02*
X179107200Y-96833333D01*
X179107200Y-96833333D02*
X179059580Y-96785714D01*
X179059580Y-96785714D02*
X178964342Y-96738095D01*
X178964342Y-96738095D02*
X178773866Y-96738095D01*
X178773866Y-96738095D02*
X178678628Y-96785714D01*
X178678628Y-96785714D02*
X178631009Y-96833333D01*
X178631009Y-96833333D02*
X178583390Y-96928571D01*
X172189642Y-73304819D02*
X171856309Y-72828628D01*
X171618214Y-73304819D02*
X171618214Y-72304819D01*
X171618214Y-72304819D02*
X171999166Y-72304819D01*
X171999166Y-72304819D02*
X172094404Y-72352438D01*
X172094404Y-72352438D02*
X172142023Y-72400057D01*
X172142023Y-72400057D02*
X172189642Y-72495295D01*
X172189642Y-72495295D02*
X172189642Y-72638152D01*
X172189642Y-72638152D02*
X172142023Y-72733390D01*
X172142023Y-72733390D02*
X172094404Y-72781009D01*
X172094404Y-72781009D02*
X171999166Y-72828628D01*
X171999166Y-72828628D02*
X171618214Y-72828628D01*
X173142023Y-73304819D02*
X172570595Y-73304819D01*
X172856309Y-73304819D02*
X172856309Y-72304819D01*
X172856309Y-72304819D02*
X172761071Y-72447676D01*
X172761071Y-72447676D02*
X172665833Y-72542914D01*
X172665833Y-72542914D02*
X172570595Y-72590533D01*
X173475357Y-72304819D02*
X174142023Y-72304819D01*
X174142023Y-72304819D02*
X173713452Y-73304819D01*
X131857142Y-93554819D02*
X131523809Y-93078628D01*
X131285714Y-93554819D02*
X131285714Y-92554819D01*
X131285714Y-92554819D02*
X131666666Y-92554819D01*
X131666666Y-92554819D02*
X131761904Y-92602438D01*
X131761904Y-92602438D02*
X131809523Y-92650057D01*
X131809523Y-92650057D02*
X131857142Y-92745295D01*
X131857142Y-92745295D02*
X131857142Y-92888152D01*
X131857142Y-92888152D02*
X131809523Y-92983390D01*
X131809523Y-92983390D02*
X131761904Y-93031009D01*
X131761904Y-93031009D02*
X131666666Y-93078628D01*
X131666666Y-93078628D02*
X131285714Y-93078628D01*
X132238095Y-92650057D02*
X132285714Y-92602438D01*
X132285714Y-92602438D02*
X132380952Y-92554819D01*
X132380952Y-92554819D02*
X132619047Y-92554819D01*
X132619047Y-92554819D02*
X132714285Y-92602438D01*
X132714285Y-92602438D02*
X132761904Y-92650057D01*
X132761904Y-92650057D02*
X132809523Y-92745295D01*
X132809523Y-92745295D02*
X132809523Y-92840533D01*
X132809523Y-92840533D02*
X132761904Y-92983390D01*
X132761904Y-92983390D02*
X132190476Y-93554819D01*
X132190476Y-93554819D02*
X132809523Y-93554819D01*
X133285714Y-93554819D02*
X133476190Y-93554819D01*
X133476190Y-93554819D02*
X133571428Y-93507200D01*
X133571428Y-93507200D02*
X133619047Y-93459580D01*
X133619047Y-93459580D02*
X133714285Y-93316723D01*
X133714285Y-93316723D02*
X133761904Y-93126247D01*
X133761904Y-93126247D02*
X133761904Y-92745295D01*
X133761904Y-92745295D02*
X133714285Y-92650057D01*
X133714285Y-92650057D02*
X133666666Y-92602438D01*
X133666666Y-92602438D02*
X133571428Y-92554819D01*
X133571428Y-92554819D02*
X133380952Y-92554819D01*
X133380952Y-92554819D02*
X133285714Y-92602438D01*
X133285714Y-92602438D02*
X133238095Y-92650057D01*
X133238095Y-92650057D02*
X133190476Y-92745295D01*
X133190476Y-92745295D02*
X133190476Y-92983390D01*
X133190476Y-92983390D02*
X133238095Y-93078628D01*
X133238095Y-93078628D02*
X133285714Y-93126247D01*
X133285714Y-93126247D02*
X133380952Y-93173866D01*
X133380952Y-93173866D02*
X133571428Y-93173866D01*
X133571428Y-93173866D02*
X133666666Y-93126247D01*
X133666666Y-93126247D02*
X133714285Y-93078628D01*
X133714285Y-93078628D02*
X133761904Y-92983390D01*
X173722080Y-89092857D02*
X173769700Y-89140476D01*
X173769700Y-89140476D02*
X173817319Y-89283333D01*
X173817319Y-89283333D02*
X173817319Y-89378571D01*
X173817319Y-89378571D02*
X173769700Y-89521428D01*
X173769700Y-89521428D02*
X173674461Y-89616666D01*
X173674461Y-89616666D02*
X173579223Y-89664285D01*
X173579223Y-89664285D02*
X173388747Y-89711904D01*
X173388747Y-89711904D02*
X173245890Y-89711904D01*
X173245890Y-89711904D02*
X173055414Y-89664285D01*
X173055414Y-89664285D02*
X172960176Y-89616666D01*
X172960176Y-89616666D02*
X172864938Y-89521428D01*
X172864938Y-89521428D02*
X172817319Y-89378571D01*
X172817319Y-89378571D02*
X172817319Y-89283333D01*
X172817319Y-89283333D02*
X172864938Y-89140476D01*
X172864938Y-89140476D02*
X172912557Y-89092857D01*
X173817319Y-88140476D02*
X173817319Y-88711904D01*
X173817319Y-88426190D02*
X172817319Y-88426190D01*
X172817319Y-88426190D02*
X172960176Y-88521428D01*
X172960176Y-88521428D02*
X173055414Y-88616666D01*
X173055414Y-88616666D02*
X173103033Y-88711904D01*
X173245890Y-87569047D02*
X173198271Y-87664285D01*
X173198271Y-87664285D02*
X173150652Y-87711904D01*
X173150652Y-87711904D02*
X173055414Y-87759523D01*
X173055414Y-87759523D02*
X173007795Y-87759523D01*
X173007795Y-87759523D02*
X172912557Y-87711904D01*
X172912557Y-87711904D02*
X172864938Y-87664285D01*
X172864938Y-87664285D02*
X172817319Y-87569047D01*
X172817319Y-87569047D02*
X172817319Y-87378571D01*
X172817319Y-87378571D02*
X172864938Y-87283333D01*
X172864938Y-87283333D02*
X172912557Y-87235714D01*
X172912557Y-87235714D02*
X173007795Y-87188095D01*
X173007795Y-87188095D02*
X173055414Y-87188095D01*
X173055414Y-87188095D02*
X173150652Y-87235714D01*
X173150652Y-87235714D02*
X173198271Y-87283333D01*
X173198271Y-87283333D02*
X173245890Y-87378571D01*
X173245890Y-87378571D02*
X173245890Y-87569047D01*
X173245890Y-87569047D02*
X173293509Y-87664285D01*
X173293509Y-87664285D02*
X173341128Y-87711904D01*
X173341128Y-87711904D02*
X173436366Y-87759523D01*
X173436366Y-87759523D02*
X173626842Y-87759523D01*
X173626842Y-87759523D02*
X173722080Y-87711904D01*
X173722080Y-87711904D02*
X173769700Y-87664285D01*
X173769700Y-87664285D02*
X173817319Y-87569047D01*
X173817319Y-87569047D02*
X173817319Y-87378571D01*
X173817319Y-87378571D02*
X173769700Y-87283333D01*
X173769700Y-87283333D02*
X173722080Y-87235714D01*
X173722080Y-87235714D02*
X173626842Y-87188095D01*
X173626842Y-87188095D02*
X173436366Y-87188095D01*
X173436366Y-87188095D02*
X173341128Y-87235714D01*
X173341128Y-87235714D02*
X173293509Y-87283333D01*
X173293509Y-87283333D02*
X173245890Y-87378571D01*
D13*
%TO.C,R13*%
X173087224Y-85027500D02*
X172577776Y-85027500D01*
X173087224Y-86072500D02*
X172577776Y-86072500D01*
%TO.C,R2*%
X126745276Y-99677500D02*
X127254724Y-99677500D01*
X126745276Y-100722500D02*
X127254724Y-100722500D01*
%TO.C,C21*%
X125940000Y-57046267D02*
X125940000Y-56753733D01*
X126960000Y-57046267D02*
X126960000Y-56753733D01*
%TO.C,R37*%
X127427500Y-57154724D02*
X127427500Y-56645276D01*
X128472500Y-57154724D02*
X128472500Y-56645276D01*
%TO.C,C19*%
X171422500Y-68303733D02*
X171422500Y-68596267D01*
X172442500Y-68303733D02*
X172442500Y-68596267D01*
%TO.C,J9*%
X149940000Y-91790000D02*
X149940000Y-93040000D01*
X150240000Y-93400000D02*
X150850000Y-93400000D01*
X150240000Y-94700000D02*
X150850000Y-94700000D01*
X150850000Y-92700000D02*
X150850000Y-96200000D01*
X150850000Y-96200000D02*
X159750000Y-96200000D01*
X151190000Y-91790000D02*
X149940000Y-91790000D01*
X151700000Y-91890000D02*
X151700000Y-92090000D01*
X152000000Y-91890000D02*
X151700000Y-91890000D01*
X152000000Y-91990000D02*
X151700000Y-91990000D01*
X152000000Y-92090000D02*
X152000000Y-91890000D01*
X152800000Y-92090000D02*
X152800000Y-92700000D01*
X152800000Y-92700000D02*
X150850000Y-92700000D01*
X153200000Y-95700000D02*
X153400000Y-95700000D01*
X153200000Y-96200000D02*
X153200000Y-95700000D01*
X153300000Y-96200000D02*
X153300000Y-95700000D01*
X153400000Y-95700000D02*
X153400000Y-96200000D01*
X155200000Y-95700000D02*
X155400000Y-95700000D01*
X155200000Y-96200000D02*
X155200000Y-95700000D01*
X155300000Y-96200000D02*
X155300000Y-95700000D01*
X155400000Y-95700000D02*
X155400000Y-96200000D01*
X157200000Y-95700000D02*
X157400000Y-95700000D01*
X157200000Y-96200000D02*
X157200000Y-95700000D01*
X157300000Y-96200000D02*
X157300000Y-95700000D01*
X157400000Y-95700000D02*
X157400000Y-96200000D01*
X157800000Y-92700000D02*
X157800000Y-92090000D01*
X159750000Y-92700000D02*
X157800000Y-92700000D01*
X159750000Y-96200000D02*
X159750000Y-92700000D01*
X160360000Y-93400000D02*
X159750000Y-93400000D01*
X160360000Y-94700000D02*
X159750000Y-94700000D01*
X150240000Y-92090000D02*
X160360000Y-92090000D01*
X160360000Y-96810000D01*
X150240000Y-96810000D01*
X150240000Y-92090000D01*
%TO.C,J1*%
X150340000Y-79800000D02*
X150950000Y-79800000D01*
X150340000Y-81100000D02*
X150950000Y-81100000D01*
X150950000Y-78300000D02*
X150950000Y-81800000D01*
X150950000Y-81800000D02*
X152900000Y-81800000D01*
X152900000Y-81800000D02*
X152900000Y-82410000D01*
X153300000Y-78800000D02*
X153300000Y-78300000D01*
X153400000Y-78300000D02*
X153400000Y-78800000D01*
X153500000Y-78300000D02*
X153500000Y-78800000D01*
X153500000Y-78800000D02*
X153300000Y-78800000D01*
X153900000Y-81800000D02*
X155850000Y-81800000D01*
X153900000Y-82410000D02*
X153900000Y-81800000D01*
X154700000Y-82410000D02*
X154700000Y-82610000D01*
X154700000Y-82510000D02*
X155000000Y-82510000D01*
X154700000Y-82610000D02*
X155000000Y-82610000D01*
X155000000Y-82610000D02*
X155000000Y-82410000D01*
X155510000Y-82710000D02*
X156760000Y-82710000D01*
X155850000Y-78300000D02*
X150950000Y-78300000D01*
X155850000Y-81800000D02*
X155850000Y-78300000D01*
X156460000Y-79800000D02*
X155850000Y-79800000D01*
X156460000Y-81100000D02*
X155850000Y-81100000D01*
X156760000Y-82710000D02*
X156760000Y-81460000D01*
X156460000Y-82410000D02*
X150340000Y-82410000D01*
X150340000Y-77690000D01*
X156460000Y-77690000D01*
X156460000Y-82410000D01*
%TO.C,C22*%
X133058767Y-107090000D02*
X132766233Y-107090000D01*
X133058767Y-108110000D02*
X132766233Y-108110000D01*
%TO.C,TH1*%
X118800000Y-57800000D02*
X118800000Y-62700000D01*
X118800000Y-60150000D02*
X119300000Y-60150000D01*
X118800000Y-60250000D02*
X119300000Y-60250000D01*
X118800000Y-62700000D02*
X122300000Y-62700000D01*
X119300000Y-60150000D02*
X119300000Y-60350000D01*
X119300000Y-60350000D02*
X118800000Y-60350000D01*
X120300000Y-57190000D02*
X120300000Y-57800000D01*
X120300000Y-63310000D02*
X120300000Y-62700000D01*
X121600000Y-57190000D02*
X121600000Y-57800000D01*
X121600000Y-63310000D02*
X121600000Y-62700000D01*
X122300000Y-57800000D02*
X118800000Y-57800000D01*
X122300000Y-59750000D02*
X122300000Y-57800000D01*
X122300000Y-60750000D02*
X122910000Y-60750000D01*
X122300000Y-62700000D02*
X122300000Y-60750000D01*
X122910000Y-58950000D02*
X123110000Y-58950000D01*
X122910000Y-59750000D02*
X122300000Y-59750000D01*
X123010000Y-58950000D02*
X123010000Y-58650000D01*
X123110000Y-58650000D02*
X122910000Y-58650000D01*
X123110000Y-58950000D02*
X123110000Y-58650000D01*
X123210000Y-56890000D02*
X121960000Y-56890000D01*
X123210000Y-58140000D02*
X123210000Y-56890000D01*
X122910000Y-57190000D02*
X118190000Y-57190000D01*
X118190000Y-63310000D01*
X122910000Y-63310000D01*
X122910000Y-57190000D01*
%TO.C,U3*%
X126090000Y-101340000D02*
X127910000Y-101340000D01*
X126090000Y-101390000D02*
X126090000Y-101340000D01*
X126090000Y-104460000D02*
X126090000Y-104410000D01*
X127910000Y-101340000D02*
X127910000Y-101390000D01*
X127910000Y-102510000D02*
X127910000Y-103290000D01*
X127910000Y-104410000D02*
X127910000Y-104460000D01*
X127910000Y-104460000D02*
X126090000Y-104460000D01*
X125550000Y-101390000D02*
X125310000Y-101060000D01*
X125790000Y-101060000D01*
X125550000Y-101390000D01*
G36*
X125550000Y-101390000D02*
G01*
X125310000Y-101060000D01*
X125790000Y-101060000D01*
X125550000Y-101390000D01*
G37*
%TO.C,R9*%
X153145276Y-75877500D02*
X153654724Y-75877500D01*
X153145276Y-76922500D02*
X153654724Y-76922500D01*
%TO.C,J10*%
X118190000Y-86240000D02*
X119895000Y-86240000D01*
X118190000Y-95400000D02*
X118190000Y-86240000D01*
X119895000Y-95400000D02*
X118190000Y-95400000D01*
X121905000Y-95400000D02*
X123825000Y-95400000D01*
X123825000Y-86240000D02*
X121905000Y-86240000D01*
%TO.C,R26*%
X132645276Y-109177500D02*
X133154724Y-109177500D01*
X132645276Y-110222500D02*
X133154724Y-110222500D01*
%TO.C,R30*%
X129045276Y-89447500D02*
X129554724Y-89447500D01*
X129045276Y-90492500D02*
X129554724Y-90492500D01*
%TO.C,J4*%
X184112500Y-60330000D02*
X192152500Y-60330000D01*
X184112500Y-63150000D02*
X184112500Y-60330000D01*
X184112500Y-101070000D02*
X184112500Y-63750000D01*
X186232500Y-60330000D02*
X186232500Y-61570000D01*
X186232500Y-65330000D02*
X186232500Y-67907000D01*
X186232500Y-68993000D02*
X186232500Y-72907000D01*
X186232500Y-73993000D02*
X186232500Y-77907000D01*
X186232500Y-78993000D02*
X186232500Y-82907000D01*
X186232500Y-83993000D02*
X186232500Y-87907000D01*
X186232500Y-88993000D02*
X186232500Y-92907000D01*
X186232500Y-93993000D02*
X186232500Y-97907000D01*
X186232500Y-98993000D02*
X186232500Y-101070000D01*
X187532500Y-60330000D02*
X187532500Y-61570000D01*
X187532500Y-65330000D02*
X187532500Y-66638000D01*
X187532500Y-70262000D02*
X187532500Y-71638000D01*
X187532500Y-75262000D02*
X187532500Y-76638000D01*
X187532500Y-80262000D02*
X187532500Y-81638000D01*
X187532500Y-85262000D02*
X187532500Y-86638000D01*
X187532500Y-90262000D02*
X187532500Y-91638000D01*
X187532500Y-95262000D02*
X187532500Y-96638000D01*
X187532500Y-100262000D02*
X187532500Y-101070000D01*
X188532500Y-60330000D02*
X188532500Y-61570000D01*
X188532500Y-65330000D02*
X188532500Y-66638000D01*
X188532500Y-70262000D02*
X188532500Y-71638000D01*
X188532500Y-75262000D02*
X188532500Y-76638000D01*
X188532500Y-80262000D02*
X188532500Y-81638000D01*
X188532500Y-85262000D02*
X188532500Y-86638000D01*
X188532500Y-90262000D02*
X188532500Y-91638000D01*
X188532500Y-95262000D02*
X188532500Y-96638000D01*
X188532500Y-100262000D02*
X188532500Y-101070000D01*
X192152500Y-60330000D02*
X192152500Y-101070000D01*
X192152500Y-101070000D02*
X184112500Y-101070000D01*
X184112500Y-63450000D02*
X183502500Y-63890000D01*
X183502500Y-63010000D01*
X184112500Y-63450000D01*
G36*
X184112500Y-63450000D02*
G01*
X183502500Y-63890000D01*
X183502500Y-63010000D01*
X184112500Y-63450000D01*
G37*
%TO.C,TH4*%
X118800000Y-79100000D02*
X118800000Y-84000000D01*
X118800000Y-81450000D02*
X119300000Y-81450000D01*
X118800000Y-81550000D02*
X119300000Y-81550000D01*
X118800000Y-84000000D02*
X122300000Y-84000000D01*
X119300000Y-81450000D02*
X119300000Y-81650000D01*
X119300000Y-81650000D02*
X118800000Y-81650000D01*
X120300000Y-78490000D02*
X120300000Y-79100000D01*
X120300000Y-84610000D02*
X120300000Y-84000000D01*
X121600000Y-78490000D02*
X121600000Y-79100000D01*
X121600000Y-84610000D02*
X121600000Y-84000000D01*
X122300000Y-79100000D02*
X118800000Y-79100000D01*
X122300000Y-81050000D02*
X122300000Y-79100000D01*
X122300000Y-82050000D02*
X122910000Y-82050000D01*
X122300000Y-84000000D02*
X122300000Y-82050000D01*
X122910000Y-80250000D02*
X123110000Y-80250000D01*
X122910000Y-81050000D02*
X122300000Y-81050000D01*
X123010000Y-80250000D02*
X123010000Y-79950000D01*
X123110000Y-79950000D02*
X122910000Y-79950000D01*
X123110000Y-80250000D02*
X123110000Y-79950000D01*
X123210000Y-78190000D02*
X121960000Y-78190000D01*
X123210000Y-79440000D02*
X123210000Y-78190000D01*
X122910000Y-78490000D02*
X118190000Y-78490000D01*
X118190000Y-84610000D01*
X122910000Y-84610000D01*
X122910000Y-78490000D01*
%TO.C,SW2*%
X158480000Y-75750000D02*
X158480000Y-78650000D01*
X158480000Y-75750000D02*
X158970000Y-75260000D01*
X158480000Y-78650000D02*
X158970000Y-79140000D01*
X160160000Y-74480000D02*
X162240000Y-74480000D01*
X160160000Y-79920000D02*
X162240000Y-79920000D01*
X163920000Y-75750000D02*
X163430000Y-75260000D01*
X163920000Y-75750000D02*
X163920000Y-78650000D01*
X163920000Y-78650000D02*
X163430000Y-79140000D01*
%TO.C,R4*%
X133854724Y-65877500D02*
X133345276Y-65877500D01*
X133854724Y-66922500D02*
X133345276Y-66922500D01*
%TO.C,TH2*%
X118800000Y-64900000D02*
X118800000Y-69800000D01*
X118800000Y-67250000D02*
X119300000Y-67250000D01*
X118800000Y-67350000D02*
X119300000Y-67350000D01*
X118800000Y-69800000D02*
X122300000Y-69800000D01*
X119300000Y-67250000D02*
X119300000Y-67450000D01*
X119300000Y-67450000D02*
X118800000Y-67450000D01*
X120300000Y-64290000D02*
X120300000Y-64900000D01*
X120300000Y-70410000D02*
X120300000Y-69800000D01*
X121600000Y-64290000D02*
X121600000Y-64900000D01*
X121600000Y-70410000D02*
X121600000Y-69800000D01*
X122300000Y-64900000D02*
X118800000Y-64900000D01*
X122300000Y-66850000D02*
X122300000Y-64900000D01*
X122300000Y-67850000D02*
X122910000Y-67850000D01*
X122300000Y-69800000D02*
X122300000Y-67850000D01*
X122910000Y-66050000D02*
X123110000Y-66050000D01*
X122910000Y-66850000D02*
X122300000Y-66850000D01*
X123010000Y-66050000D02*
X123010000Y-65750000D01*
X123110000Y-65750000D02*
X122910000Y-65750000D01*
X123110000Y-66050000D02*
X123110000Y-65750000D01*
X123210000Y-63990000D02*
X121960000Y-63990000D01*
X123210000Y-65240000D02*
X123210000Y-63990000D01*
X122910000Y-64290000D02*
X118190000Y-64290000D01*
X118190000Y-70410000D01*
X122910000Y-70410000D01*
X122910000Y-64290000D01*
%TO.C,J14*%
X134940000Y-91790000D02*
X134940000Y-93040000D01*
X135240000Y-93400000D02*
X135850000Y-93400000D01*
X135240000Y-94700000D02*
X135850000Y-94700000D01*
X135850000Y-92700000D02*
X135850000Y-96200000D01*
X135850000Y-96200000D02*
X148750000Y-96200000D01*
X136190000Y-91790000D02*
X134940000Y-91790000D01*
X136700000Y-91890000D02*
X136700000Y-92090000D01*
X137000000Y-91890000D02*
X136700000Y-91890000D01*
X137000000Y-91990000D02*
X136700000Y-91990000D01*
X137000000Y-92090000D02*
X137000000Y-91890000D01*
X137800000Y-92090000D02*
X137800000Y-92700000D01*
X137800000Y-92700000D02*
X135850000Y-92700000D01*
X138200000Y-95700000D02*
X138400000Y-95700000D01*
X138200000Y-96200000D02*
X138200000Y-95700000D01*
X138300000Y-96200000D02*
X138300000Y-95700000D01*
X138400000Y-95700000D02*
X138400000Y-96200000D01*
X140200000Y-95700000D02*
X140400000Y-95700000D01*
X140200000Y-96200000D02*
X140200000Y-95700000D01*
X140300000Y-96200000D02*
X140300000Y-95700000D01*
X140400000Y-95700000D02*
X140400000Y-96200000D01*
X142200000Y-95700000D02*
X142400000Y-95700000D01*
X142200000Y-96200000D02*
X142200000Y-95700000D01*
X142300000Y-96200000D02*
X142300000Y-95700000D01*
X142400000Y-95700000D02*
X142400000Y-96200000D01*
X144200000Y-95700000D02*
X144400000Y-95700000D01*
X144200000Y-96200000D02*
X144200000Y-95700000D01*
X144300000Y-96200000D02*
X144300000Y-95700000D01*
X144400000Y-95700000D02*
X144400000Y-96200000D01*
X146200000Y-95700000D02*
X146400000Y-95700000D01*
X146200000Y-96200000D02*
X146200000Y-95700000D01*
X146300000Y-96200000D02*
X146300000Y-95700000D01*
X146400000Y-95700000D02*
X146400000Y-96200000D01*
X146800000Y-92700000D02*
X146800000Y-92090000D01*
X148750000Y-92700000D02*
X146800000Y-92700000D01*
X148750000Y-96200000D02*
X148750000Y-92700000D01*
X149360000Y-93400000D02*
X148750000Y-93400000D01*
X149360000Y-94700000D02*
X148750000Y-94700000D01*
X135240000Y-92090000D02*
X149360000Y-92090000D01*
X149360000Y-96810000D01*
X135240000Y-96810000D01*
X135240000Y-92090000D01*
%TO.C,TH3*%
X118800000Y-72000000D02*
X118800000Y-76900000D01*
X118800000Y-74350000D02*
X119300000Y-74350000D01*
X118800000Y-74450000D02*
X119300000Y-74450000D01*
X118800000Y-76900000D02*
X122300000Y-76900000D01*
X119300000Y-74350000D02*
X119300000Y-74550000D01*
X119300000Y-74550000D02*
X118800000Y-74550000D01*
X120300000Y-71390000D02*
X120300000Y-72000000D01*
X120300000Y-77510000D02*
X120300000Y-76900000D01*
X121600000Y-71390000D02*
X121600000Y-72000000D01*
X121600000Y-77510000D02*
X121600000Y-76900000D01*
X122300000Y-72000000D02*
X118800000Y-72000000D01*
X122300000Y-73950000D02*
X122300000Y-72000000D01*
X122300000Y-74950000D02*
X122910000Y-74950000D01*
X122300000Y-76900000D02*
X122300000Y-74950000D01*
X122910000Y-73150000D02*
X123110000Y-73150000D01*
X122910000Y-73950000D02*
X122300000Y-73950000D01*
X123010000Y-73150000D02*
X123010000Y-72850000D01*
X123110000Y-72850000D02*
X122910000Y-72850000D01*
X123110000Y-73150000D02*
X123110000Y-72850000D01*
X123210000Y-71090000D02*
X121960000Y-71090000D01*
X123210000Y-72340000D02*
X123210000Y-71090000D01*
X122910000Y-71390000D02*
X118190000Y-71390000D01*
X118190000Y-77510000D01*
X122910000Y-77510000D01*
X122910000Y-71390000D01*
%TO.C,R31*%
X129032776Y-91047500D02*
X129542224Y-91047500D01*
X129032776Y-92092500D02*
X129542224Y-92092500D01*
%TO.C,J7*%
X148810000Y-105940000D02*
X148810000Y-107190000D01*
X149110000Y-107550000D02*
X149720000Y-107550000D01*
X149110000Y-108850000D02*
X149720000Y-108850000D01*
X149720000Y-106850000D02*
X149720000Y-110350000D01*
X149720000Y-110350000D02*
X154620000Y-110350000D01*
X150060000Y-105940000D02*
X148810000Y-105940000D01*
X150570000Y-106040000D02*
X150570000Y-106240000D01*
X150870000Y-106040000D02*
X150570000Y-106040000D01*
X150870000Y-106140000D02*
X150570000Y-106140000D01*
X150870000Y-106240000D02*
X150870000Y-106040000D01*
X151670000Y-106240000D02*
X151670000Y-106850000D01*
X151670000Y-106850000D02*
X149720000Y-106850000D01*
X152070000Y-109850000D02*
X152270000Y-109850000D01*
X152070000Y-110350000D02*
X152070000Y-109850000D01*
X152170000Y-110350000D02*
X152170000Y-109850000D01*
X152270000Y-109850000D02*
X152270000Y-110350000D01*
X152670000Y-106850000D02*
X152670000Y-106240000D01*
X154620000Y-106850000D02*
X152670000Y-106850000D01*
X154620000Y-110350000D02*
X154620000Y-106850000D01*
X155230000Y-107550000D02*
X154620000Y-107550000D01*
X155230000Y-108850000D02*
X154620000Y-108850000D01*
X149110000Y-106240000D02*
X155230000Y-106240000D01*
X155230000Y-110960000D01*
X149110000Y-110960000D01*
X149110000Y-106240000D01*
%TO.C,JP1*%
X165882500Y-85050000D02*
X165882500Y-84450000D01*
X166532500Y-83750000D02*
X169332500Y-83750000D01*
X169332500Y-85750000D02*
X166532500Y-85750000D01*
X169982500Y-84450000D02*
X169982500Y-85050000D01*
X165882500Y-84450000D02*
G75*
G02*
X166582500Y-83750000I699999J1D01*
G01*
X166582500Y-85750000D02*
G75*
G02*
X165882500Y-85050000I-1J699999D01*
G01*
X169282500Y-83750000D02*
G75*
G02*
X169982500Y-84450000I0J-700000D01*
G01*
X169982500Y-85050000D02*
G75*
G02*
X169282500Y-85750000I-700000J0D01*
G01*
%TO.C,J13*%
X164872500Y-79200000D02*
X165482500Y-79200000D01*
X164872500Y-80500000D02*
X165482500Y-80500000D01*
X165482500Y-77700000D02*
X165482500Y-81200000D01*
X165482500Y-81200000D02*
X167432500Y-81200000D01*
X167432500Y-81200000D02*
X167432500Y-81810000D01*
X167832500Y-78200000D02*
X167832500Y-77700000D01*
X167932500Y-77700000D02*
X167932500Y-78200000D01*
X168032500Y-77700000D02*
X168032500Y-78200000D01*
X168032500Y-78200000D02*
X167832500Y-78200000D01*
X168432500Y-81200000D02*
X170382500Y-81200000D01*
X168432500Y-81810000D02*
X168432500Y-81200000D01*
X169232500Y-81810000D02*
X169232500Y-82010000D01*
X169232500Y-81910000D02*
X169532500Y-81910000D01*
X169232500Y-82010000D02*
X169532500Y-82010000D01*
X169532500Y-82010000D02*
X169532500Y-81810000D01*
X170042500Y-82110000D02*
X171292500Y-82110000D01*
X170382500Y-77700000D02*
X165482500Y-77700000D01*
X170382500Y-81200000D02*
X170382500Y-77700000D01*
X170992500Y-79200000D02*
X170382500Y-79200000D01*
X170992500Y-80500000D02*
X170382500Y-80500000D01*
X171292500Y-82110000D02*
X171292500Y-80860000D01*
X170992500Y-81810000D02*
X164872500Y-81810000D01*
X164872500Y-77090000D01*
X170992500Y-77090000D01*
X170992500Y-81810000D01*
%TO.C,R47*%
X179290000Y-77822936D02*
X179290000Y-82177064D01*
X182710000Y-77822936D02*
X182710000Y-82177064D01*
%TO.C,R45*%
X177022500Y-56822936D02*
X177022500Y-61177064D01*
X180442500Y-56822936D02*
X180442500Y-61177064D01*
%TO.C,U2*%
X150210000Y-98990000D02*
X154330000Y-98990000D01*
X150210000Y-99085000D02*
X150210000Y-98990000D01*
X150210000Y-104110000D02*
X150210000Y-104015000D01*
X154330000Y-98990000D02*
X154330000Y-99085000D01*
X154330000Y-104015000D02*
X154330000Y-104110000D01*
X154330000Y-104110000D02*
X150210000Y-104110000D01*
X149670000Y-99080000D02*
X149430000Y-98750000D01*
X149910000Y-98750000D01*
X149670000Y-99080000D01*
G36*
X149670000Y-99080000D02*
G01*
X149430000Y-98750000D01*
X149910000Y-98750000D01*
X149670000Y-99080000D01*
G37*
%TO.C,SW1*%
X131940000Y-79500000D02*
X132550000Y-79500000D01*
X131940000Y-80800000D02*
X132550000Y-80800000D01*
X132550000Y-78000000D02*
X132550000Y-81500000D01*
X132550000Y-81500000D02*
X134500000Y-81500000D01*
X134500000Y-81500000D02*
X134500000Y-82110000D01*
X134900000Y-78500000D02*
X134900000Y-78000000D01*
X135000000Y-78000000D02*
X135000000Y-78500000D01*
X135100000Y-78000000D02*
X135100000Y-78500000D01*
X135100000Y-78500000D02*
X134900000Y-78500000D01*
X135500000Y-81500000D02*
X137450000Y-81500000D01*
X135500000Y-82110000D02*
X135500000Y-81500000D01*
X136300000Y-82110000D02*
X136300000Y-82310000D01*
X136300000Y-82210000D02*
X136600000Y-82210000D01*
X136300000Y-82310000D02*
X136600000Y-82310000D01*
X136600000Y-82310000D02*
X136600000Y-82110000D01*
X137110000Y-82410000D02*
X138360000Y-82410000D01*
X137450000Y-78000000D02*
X132550000Y-78000000D01*
X137450000Y-81500000D02*
X137450000Y-78000000D01*
X138060000Y-79500000D02*
X137450000Y-79500000D01*
X138060000Y-80800000D02*
X137450000Y-80800000D01*
X138360000Y-82410000D02*
X138360000Y-81160000D01*
X138060000Y-82110000D02*
X131940000Y-82110000D01*
X131940000Y-77390000D01*
X138060000Y-77390000D01*
X138060000Y-82110000D01*
%TO.C,R38*%
X128927500Y-57154724D02*
X128927500Y-56645276D01*
X129972500Y-57154724D02*
X129972500Y-56645276D01*
%TO.C,U5*%
X127590000Y-77652500D02*
X127640000Y-77652500D01*
X127590000Y-79472500D02*
X127590000Y-77652500D01*
X127640000Y-79472500D02*
X127590000Y-79472500D01*
X128760000Y-77652500D02*
X129540000Y-77652500D01*
X130660000Y-77652500D02*
X130710000Y-77652500D01*
X130710000Y-77652500D02*
X130710000Y-79472500D01*
X130710000Y-79472500D02*
X130660000Y-79472500D01*
X127640000Y-80012500D02*
X127310000Y-80252500D01*
X127310000Y-79772500D01*
X127640000Y-80012500D01*
G36*
X127640000Y-80012500D02*
G01*
X127310000Y-80252500D01*
X127310000Y-79772500D01*
X127640000Y-80012500D01*
G37*
%TO.C,R28*%
X129554724Y-87877500D02*
X129045276Y-87877500D01*
X129554724Y-88922500D02*
X129045276Y-88922500D01*
%TO.C,R33*%
X133154724Y-105477500D02*
X132645276Y-105477500D01*
X133154724Y-106522500D02*
X132645276Y-106522500D01*
%TO.C,U7*%
X166322500Y-67590000D02*
X169542500Y-67590000D01*
X166322500Y-67790000D02*
X166322500Y-67590000D01*
X166322500Y-70810000D02*
X166322500Y-70610000D01*
X169542500Y-67590000D02*
X169542500Y-67790000D01*
X169542500Y-70610000D02*
X169542500Y-70810000D01*
X169542500Y-70810000D02*
X166322500Y-70810000D01*
X165732500Y-67790000D02*
X165492500Y-67460000D01*
X165972500Y-67460000D01*
X165732500Y-67790000D01*
G36*
X165732500Y-67790000D02*
G01*
X165492500Y-67460000D01*
X165972500Y-67460000D01*
X165732500Y-67790000D01*
G37*
%TO.C,J3*%
X135475000Y-100850000D02*
X135475000Y-105300000D01*
X135475000Y-106700000D02*
X135475000Y-109000000D01*
X135475000Y-110400000D02*
X135475000Y-111120000D01*
X135475000Y-111120000D02*
X138155000Y-111120000D01*
X136955000Y-99480000D02*
X137815000Y-99480000D01*
X140455000Y-111120000D02*
X144125000Y-111120000D01*
X146425000Y-111120000D02*
X147655000Y-111120000D01*
X147655000Y-111120000D02*
X147655000Y-101300000D01*
%TO.C,R1*%
X127242224Y-96477500D02*
X126732776Y-96477500D01*
X127242224Y-97522500D02*
X126732776Y-97522500D01*
%TO.C,D3*%
X142387500Y-74935000D02*
X144847500Y-74935000D01*
X144847500Y-73465000D02*
X142387500Y-73465000D01*
X144847500Y-74935000D02*
X144847500Y-73465000D01*
%TO.C,R39*%
X137677500Y-66345276D02*
X137677500Y-66854724D01*
X138722500Y-66345276D02*
X138722500Y-66854724D01*
%TO.C,R6*%
X127945276Y-74977500D02*
X128454724Y-74977500D01*
X127945276Y-76022500D02*
X128454724Y-76022500D01*
%TO.C,R14*%
X173087224Y-90827500D02*
X172577776Y-90827500D01*
X173087224Y-91872500D02*
X172577776Y-91872500D01*
%TO.C,R40*%
X139177500Y-66345276D02*
X139177500Y-66854724D01*
X140222500Y-66345276D02*
X140222500Y-66854724D01*
%TO.C,J12*%
X160890000Y-65810000D02*
X160890000Y-67060000D01*
X160890000Y-67060000D02*
X162140000Y-67060000D01*
X160990000Y-65000000D02*
X160990000Y-65300000D01*
X160990000Y-65300000D02*
X161190000Y-65300000D01*
X161090000Y-65000000D02*
X161090000Y-65300000D01*
X161190000Y-64200000D02*
X161800000Y-64200000D01*
X161190000Y-65000000D02*
X160990000Y-65000000D01*
X161800000Y-53250000D02*
X161800000Y-55200000D01*
X161800000Y-55200000D02*
X161190000Y-55200000D01*
X161800000Y-64200000D02*
X161800000Y-66150000D01*
X161800000Y-66150000D02*
X165300000Y-66150000D01*
X162500000Y-52640000D02*
X162500000Y-53250000D01*
X162500000Y-66760000D02*
X162500000Y-66150000D01*
X163800000Y-52640000D02*
X163800000Y-53250000D01*
X163800000Y-66760000D02*
X163800000Y-66150000D01*
X164800000Y-55600000D02*
X165300000Y-55600000D01*
X164800000Y-55800000D02*
X164800000Y-55600000D01*
X164800000Y-57600000D02*
X165300000Y-57600000D01*
X164800000Y-57800000D02*
X164800000Y-57600000D01*
X164800000Y-59600000D02*
X165300000Y-59600000D01*
X164800000Y-59800000D02*
X164800000Y-59600000D01*
X164800000Y-61600000D02*
X165300000Y-61600000D01*
X164800000Y-61800000D02*
X164800000Y-61600000D01*
X164800000Y-63600000D02*
X165300000Y-63600000D01*
X164800000Y-63800000D02*
X164800000Y-63600000D01*
X165300000Y-53250000D02*
X161800000Y-53250000D01*
X165300000Y-55700000D02*
X164800000Y-55700000D01*
X165300000Y-55800000D02*
X164800000Y-55800000D01*
X165300000Y-57700000D02*
X164800000Y-57700000D01*
X165300000Y-57800000D02*
X164800000Y-57800000D01*
X165300000Y-59700000D02*
X164800000Y-59700000D01*
X165300000Y-59800000D02*
X164800000Y-59800000D01*
X165300000Y-61700000D02*
X164800000Y-61700000D01*
X165300000Y-61800000D02*
X164800000Y-61800000D01*
X165300000Y-63700000D02*
X164800000Y-63700000D01*
X165300000Y-63800000D02*
X164800000Y-63800000D01*
X165300000Y-66150000D02*
X165300000Y-53250000D01*
X161190000Y-66760000D02*
X165910000Y-66760000D01*
X165910000Y-52640000D01*
X161190000Y-52640000D01*
X161190000Y-66760000D01*
%TO.C,U8*%
X166322500Y-87540000D02*
X169542500Y-87540000D01*
X166322500Y-87740000D02*
X166322500Y-87540000D01*
X166322500Y-90760000D02*
X166322500Y-90560000D01*
X169542500Y-87540000D02*
X169542500Y-87740000D01*
X169542500Y-90560000D02*
X169542500Y-90760000D01*
X169542500Y-90760000D02*
X166322500Y-90760000D01*
X165732500Y-87740000D02*
X165492500Y-87410000D01*
X165972500Y-87410000D01*
X165732500Y-87740000D01*
G36*
X165732500Y-87740000D02*
G01*
X165492500Y-87410000D01*
X165972500Y-87410000D01*
X165732500Y-87740000D01*
G37*
%TO.C,R16*%
X173087224Y-65027500D02*
X172577776Y-65027500D01*
X173087224Y-66072500D02*
X172577776Y-66072500D01*
%TO.C,J2*%
X118800000Y-98950000D02*
X118800000Y-103850000D01*
X118800000Y-101300000D02*
X119300000Y-101300000D01*
X118800000Y-101400000D02*
X119300000Y-101400000D01*
X118800000Y-103850000D02*
X122300000Y-103850000D01*
X119300000Y-101300000D02*
X119300000Y-101500000D01*
X119300000Y-101500000D02*
X118800000Y-101500000D01*
X120300000Y-98340000D02*
X120300000Y-98950000D01*
X120300000Y-104460000D02*
X120300000Y-103850000D01*
X121600000Y-98340000D02*
X121600000Y-98950000D01*
X121600000Y-104460000D02*
X121600000Y-103850000D01*
X122300000Y-98950000D02*
X118800000Y-98950000D01*
X122300000Y-100900000D02*
X122300000Y-98950000D01*
X122300000Y-101900000D02*
X122910000Y-101900000D01*
X122300000Y-103850000D02*
X122300000Y-101900000D01*
X122910000Y-100100000D02*
X123110000Y-100100000D01*
X122910000Y-100900000D02*
X122300000Y-100900000D01*
X123010000Y-100100000D02*
X123010000Y-99800000D01*
X123110000Y-99800000D02*
X122910000Y-99800000D01*
X123110000Y-100100000D02*
X123110000Y-99800000D01*
X123210000Y-98040000D02*
X121960000Y-98040000D01*
X123210000Y-99290000D02*
X123210000Y-98040000D01*
X122910000Y-98340000D02*
X118190000Y-98340000D01*
X118190000Y-104460000D01*
X122910000Y-104460000D01*
X122910000Y-98340000D01*
%TO.C,R7*%
X133854724Y-74877500D02*
X133345276Y-74877500D01*
X133854724Y-75922500D02*
X133345276Y-75922500D01*
%TO.C,R5*%
X127945276Y-65777500D02*
X128454724Y-65777500D01*
X127945276Y-66822500D02*
X128454724Y-66822500D01*
%TO.C,R8*%
X142945276Y-75277500D02*
X143454724Y-75277500D01*
X142945276Y-76322500D02*
X143454724Y-76322500D01*
%TO.C,J5*%
X140140000Y-79500000D02*
X140750000Y-79500000D01*
X140140000Y-80800000D02*
X140750000Y-80800000D01*
X140750000Y-78000000D02*
X140750000Y-81500000D01*
X140750000Y-81500000D02*
X142700000Y-81500000D01*
X142700000Y-81500000D02*
X142700000Y-82110000D01*
X143100000Y-78500000D02*
X143100000Y-78000000D01*
X143200000Y-78000000D02*
X143200000Y-78500000D01*
X143300000Y-78000000D02*
X143300000Y-78500000D01*
X143300000Y-78500000D02*
X143100000Y-78500000D01*
X143700000Y-81500000D02*
X145650000Y-81500000D01*
X143700000Y-82110000D02*
X143700000Y-81500000D01*
X144500000Y-82110000D02*
X144500000Y-82310000D01*
X144500000Y-82210000D02*
X144800000Y-82210000D01*
X144500000Y-82310000D02*
X144800000Y-82310000D01*
X144800000Y-82310000D02*
X144800000Y-82110000D01*
X145310000Y-82410000D02*
X146560000Y-82410000D01*
X145650000Y-78000000D02*
X140750000Y-78000000D01*
X145650000Y-81500000D02*
X145650000Y-78000000D01*
X146260000Y-79500000D02*
X145650000Y-79500000D01*
X146260000Y-80800000D02*
X145650000Y-80800000D01*
X146560000Y-82410000D02*
X146560000Y-81160000D01*
X146260000Y-82110000D02*
X140140000Y-82110000D01*
X140140000Y-77390000D01*
X146260000Y-77390000D01*
X146260000Y-82110000D01*
%TO.C,C13*%
X153546267Y-72790000D02*
X153253733Y-72790000D01*
X153546267Y-73810000D02*
X153253733Y-73810000D01*
%TO.C,U1*%
X141400000Y-45820000D02*
X141400000Y-52020000D01*
X141400000Y-45820000D02*
X159800000Y-45820000D01*
X141400000Y-70670000D02*
X141400000Y-71670000D01*
X141400000Y-71670000D02*
X142900000Y-71670000D01*
X159800000Y-45820000D02*
X159800000Y-52020000D01*
X159800000Y-71670000D02*
X158300000Y-71670000D01*
X159800000Y-71670000D02*
X159800000Y-70670000D01*
X141400000Y-52695000D02*
X140900000Y-52695000D01*
X141400000Y-52195000D01*
X141400000Y-52695000D01*
G36*
X141400000Y-52695000D02*
G01*
X140900000Y-52695000D01*
X141400000Y-52195000D01*
X141400000Y-52695000D01*
G37*
%TO.C,R43*%
X174790000Y-79227064D02*
X174790000Y-74872936D01*
X178210000Y-79227064D02*
X178210000Y-74872936D01*
%TO.C,J15*%
X167140000Y-56150000D02*
X167750000Y-56150000D01*
X167140000Y-57450000D02*
X167750000Y-57450000D01*
X167750000Y-54650000D02*
X167750000Y-58150000D01*
X167750000Y-58150000D02*
X169700000Y-58150000D01*
X169700000Y-58150000D02*
X169700000Y-58760000D01*
X170100000Y-55150000D02*
X170100000Y-54650000D01*
X170200000Y-54650000D02*
X170200000Y-55150000D01*
X170300000Y-54650000D02*
X170300000Y-55150000D01*
X170300000Y-55150000D02*
X170100000Y-55150000D01*
X170700000Y-58150000D02*
X172650000Y-58150000D01*
X170700000Y-58760000D02*
X170700000Y-58150000D01*
X171500000Y-58760000D02*
X171500000Y-58960000D01*
X171500000Y-58860000D02*
X171800000Y-58860000D01*
X171500000Y-58960000D02*
X171800000Y-58960000D01*
X171800000Y-58960000D02*
X171800000Y-58760000D01*
X172310000Y-59060000D02*
X173560000Y-59060000D01*
X172650000Y-54650000D02*
X167750000Y-54650000D01*
X172650000Y-58150000D02*
X172650000Y-54650000D01*
X173260000Y-56150000D02*
X172650000Y-56150000D01*
X173260000Y-57450000D02*
X172650000Y-57450000D01*
X173560000Y-59060000D02*
X173560000Y-57810000D01*
X173260000Y-58760000D02*
X167140000Y-58760000D01*
X167140000Y-54040000D01*
X173260000Y-54040000D01*
X173260000Y-58760000D01*
%TO.C,D1*%
X125377500Y-97865000D02*
X125377500Y-99335000D01*
X125377500Y-99335000D02*
X127837500Y-99335000D01*
X127837500Y-97865000D02*
X125377500Y-97865000D01*
%TO.C,U6*%
X126465000Y-68840000D02*
X126530000Y-68840000D01*
X126465000Y-72960000D02*
X126465000Y-68840000D01*
X126530000Y-72960000D02*
X126465000Y-72960000D01*
X135270000Y-68840000D02*
X135335000Y-68840000D01*
X135335000Y-68840000D02*
X135335000Y-72960000D01*
X135335000Y-72960000D02*
X135270000Y-72960000D01*
X135600000Y-68540000D02*
X135270000Y-68300000D01*
X135600000Y-68060000D01*
X135600000Y-68540000D01*
G36*
X135600000Y-68540000D02*
G01*
X135270000Y-68300000D01*
X135600000Y-68060000D01*
X135600000Y-68540000D01*
G37*
%TO.C,JP2*%
X168150000Y-62000000D02*
X168150000Y-61400000D01*
X168800000Y-60700000D02*
X171600000Y-60700000D01*
X171600000Y-62700000D02*
X168800000Y-62700000D01*
X172250000Y-61400000D02*
X172250000Y-62000000D01*
X168150000Y-61400000D02*
G75*
G02*
X168850000Y-60700000I699999J1D01*
G01*
X168850000Y-62700000D02*
G75*
G02*
X168150000Y-62000000I-1J699999D01*
G01*
X171550000Y-60700000D02*
G75*
G02*
X172250000Y-61400000I0J-700000D01*
G01*
X172250000Y-62000000D02*
G75*
G02*
X171550000Y-62700000I-700000J0D01*
G01*
%TO.C,J6*%
X126090000Y-61250000D02*
X126700000Y-61250000D01*
X126090000Y-62550000D02*
X126700000Y-62550000D01*
X126700000Y-59750000D02*
X126700000Y-63250000D01*
X126700000Y-63250000D02*
X128650000Y-63250000D01*
X128650000Y-63250000D02*
X128650000Y-63860000D01*
X129050000Y-60250000D02*
X129050000Y-59750000D01*
X129150000Y-59750000D02*
X129150000Y-60250000D01*
X129250000Y-59750000D02*
X129250000Y-60250000D01*
X129250000Y-60250000D02*
X129050000Y-60250000D01*
X129650000Y-63250000D02*
X131600000Y-63250000D01*
X129650000Y-63860000D02*
X129650000Y-63250000D01*
X130450000Y-63860000D02*
X130450000Y-64060000D01*
X130450000Y-63960000D02*
X130750000Y-63960000D01*
X130450000Y-64060000D02*
X130750000Y-64060000D01*
X130750000Y-64060000D02*
X130750000Y-63860000D01*
X131260000Y-64160000D02*
X132510000Y-64160000D01*
X131600000Y-59750000D02*
X126700000Y-59750000D01*
X131600000Y-63250000D02*
X131600000Y-59750000D01*
X132210000Y-61250000D02*
X131600000Y-61250000D01*
X132210000Y-62550000D02*
X131600000Y-62550000D01*
X132510000Y-64160000D02*
X132510000Y-62910000D01*
X132210000Y-63860000D02*
X126090000Y-63860000D01*
X126090000Y-59140000D01*
X132210000Y-59140000D01*
X132210000Y-63860000D01*
%TO.C,J11*%
X149940000Y-85590000D02*
X149940000Y-86840000D01*
X150240000Y-87200000D02*
X150850000Y-87200000D01*
X150240000Y-88500000D02*
X150850000Y-88500000D01*
X150850000Y-86500000D02*
X150850000Y-90000000D01*
X150850000Y-90000000D02*
X159750000Y-90000000D01*
X151190000Y-85590000D02*
X149940000Y-85590000D01*
X151700000Y-85690000D02*
X151700000Y-85890000D01*
X152000000Y-85690000D02*
X151700000Y-85690000D01*
X152000000Y-85790000D02*
X151700000Y-85790000D01*
X152000000Y-85890000D02*
X152000000Y-85690000D01*
X152800000Y-85890000D02*
X152800000Y-86500000D01*
X152800000Y-86500000D02*
X150850000Y-86500000D01*
X153200000Y-89500000D02*
X153400000Y-89500000D01*
X153200000Y-90000000D02*
X153200000Y-89500000D01*
X153300000Y-90000000D02*
X153300000Y-89500000D01*
X153400000Y-89500000D02*
X153400000Y-90000000D01*
X155200000Y-89500000D02*
X155400000Y-89500000D01*
X155200000Y-90000000D02*
X155200000Y-89500000D01*
X155300000Y-90000000D02*
X155300000Y-89500000D01*
X155400000Y-89500000D02*
X155400000Y-90000000D01*
X157200000Y-89500000D02*
X157400000Y-89500000D01*
X157200000Y-90000000D02*
X157200000Y-89500000D01*
X157300000Y-90000000D02*
X157300000Y-89500000D01*
X157400000Y-89500000D02*
X157400000Y-90000000D01*
X157800000Y-86500000D02*
X157800000Y-85890000D01*
X159750000Y-86500000D02*
X157800000Y-86500000D01*
X159750000Y-90000000D02*
X159750000Y-86500000D01*
X160360000Y-87200000D02*
X159750000Y-87200000D01*
X160360000Y-88500000D02*
X159750000Y-88500000D01*
X150240000Y-85890000D02*
X160360000Y-85890000D01*
X160360000Y-90610000D01*
X150240000Y-90610000D01*
X150240000Y-85890000D01*
%TO.C,SW3*%
X131830000Y-55890000D02*
X131830000Y-53810000D01*
X133100000Y-52130000D02*
X132610000Y-52620000D01*
X133100000Y-52130000D02*
X136000000Y-52130000D01*
X133100000Y-57570000D02*
X132610000Y-57080000D01*
X133100000Y-57570000D02*
X136000000Y-57570000D01*
X136000000Y-52130000D02*
X136490000Y-52620000D01*
X136000000Y-57570000D02*
X136490000Y-57080000D01*
X137270000Y-55890000D02*
X137270000Y-53810000D01*
%TO.C,R36*%
X153654724Y-74327500D02*
X153145276Y-74327500D01*
X153654724Y-75372500D02*
X153145276Y-75372500D01*
%TO.C,Q1*%
X131545000Y-86527500D02*
X131545000Y-87417500D01*
X131545000Y-87417500D02*
X129695000Y-87417500D01*
X131560000Y-84297500D02*
X129710000Y-84297500D01*
X131560000Y-84297500D02*
X131560000Y-85187500D01*
X129320000Y-84307500D02*
X129080000Y-83977500D01*
X129560000Y-83977500D01*
X129320000Y-84307500D01*
G36*
X129320000Y-84307500D02*
G01*
X129080000Y-83977500D01*
X129560000Y-83977500D01*
X129320000Y-84307500D01*
G37*
%TO.C,R48*%
X176990000Y-100177064D02*
X176990000Y-95822936D01*
X180410000Y-100177064D02*
X180410000Y-95822936D01*
%TO.C,R17*%
X173087224Y-70827500D02*
X172577776Y-70827500D01*
X173087224Y-71872500D02*
X172577776Y-71872500D01*
%TO.C,R29*%
X129045276Y-92577500D02*
X129554724Y-92577500D01*
X129045276Y-93622500D02*
X129554724Y-93622500D01*
%TO.C,C18*%
X171422500Y-88303733D02*
X171422500Y-88596267D01*
X172442500Y-88303733D02*
X172442500Y-88596267D01*
%TD*%
M02*
