M48
; DRILL file {KiCad 9.0.7} date 2026-03-17T16:13:25+0100
; FORMAT={-:-/ absolute / metric / decimal}
; #@! TF.CreationDate,2026-03-17T16:13:25+01:00
; #@! TF.GenerationSoftware,Kicad,Pcbnew,9.0.7
; #@! TF.FileFunction,Plated,1,2,PTH
FMAT,2
METRIC
; #@! TA.AperFunction,Plated,PTH,ComponentDrill
T1C0.200
; #@! TA.AperFunction,Plated,PTH,ViaDrill
T2C0.300
; #@! TA.AperFunction,Plated,PTH,ComponentDrill
T3C0.600
; #@! TA.AperFunction,Plated,PTH,ComponentDrill
T4C0.750
; #@! TA.AperFunction,Plated,PTH,ComponentDrill
T5C1.300
%
G90
G05
T1
X147.7Y-60.48
X147.7Y-61.88
X148.4Y-59.78
X148.4Y-61.18
X148.4Y-62.58
X149.1Y-60.48
X149.1Y-61.88
X149.8Y-59.78
X149.8Y-61.18
X149.8Y-62.58
X150.5Y-60.48
X150.5Y-61.88
T2
X120.0Y-90.0
X120.0Y-92.5
X122.5Y-65.0
X122.5Y-77.5
X122.5Y-90.0
X122.5Y-92.5
X125.0Y-52.5
X125.0Y-60.0
X125.0Y-72.5
X125.0Y-80.0
X125.0Y-85.0
X125.0Y-105.0
X126.1Y-100.9
X127.4Y-72.3
X127.541Y-67.676
X127.974Y-85.824
X128.2Y-78.1
X128.246Y-81.175
X129.16Y-68.4
X129.16Y-73.4
X129.2Y-77.9
X130.9Y-69.4
X130.9Y-72.2
X131.6Y-78.6
X131.95Y-86.35
X132.4Y-56.0
X132.64Y-68.4
X132.64Y-73.4
X133.7Y-54.5
X133.7Y-67.3
X133.8Y-72.3
X134.4Y-58.9
X134.5Y-76.6
X135.0Y-52.5
X135.0Y-85.0
X135.0Y-95.0
X135.9Y-100.8
X136.7Y-56.1
X137.5Y-70.0
X137.5Y-80.0
X138.0Y-87.7
X138.3Y-100.6
X139.5Y-100.6
X139.7Y-66.712
X140.0Y-52.5
X140.0Y-105.0
X140.865Y-100.617
X140.9Y-57.3
X140.9Y-58.5
X140.9Y-59.8
X140.9Y-61.1
X140.95Y-54.7
X141.9Y-100.6
X142.8Y-63.6
X143.0Y-100.6
X143.5Y-75.3
X145.0Y-52.5
X145.0Y-57.5
X145.0Y-62.5
X145.0Y-67.5
X145.0Y-100.609
X146.1Y-100.6
X147.5Y-107.5
X150.0Y-52.5
X150.0Y-57.5
X150.0Y-67.5
X151.02Y-100.9
X151.85Y-74.85
X154.3Y-72.6
X155.0Y-52.5
X155.0Y-57.5
X155.0Y-62.5
X155.0Y-67.5
X155.0Y-70.3
X156.4Y-70.3
X157.5Y-77.5
X160.0Y-75.1
X160.0Y-79.3
X160.0Y-82.5
X160.0Y-100.4
X161.394Y-79.194
X162.3Y-91.3
X162.5Y-72.5
X162.9Y-82.6
X164.512Y-69.705
X164.598Y-90.55
X164.6Y-70.5
X164.608Y-89.75
X166.7Y-88.0
X166.795Y-69.178
X166.961Y-89.339
X167.5Y-52.5
X169.0Y-70.587
X170.0Y-72.5
X170.0Y-95.0
X170.0Y-102.7
X170.132Y-70.45
X170.132Y-90.45
X172.5Y-77.5
X172.5Y-82.5
X174.3Y-76.9
X174.3Y-80.1
X175.0Y-61.5
X175.0Y-63.5
X175.0Y-65.5
X175.0Y-71.5
X175.0Y-73.5
X175.0Y-75.5
X175.0Y-81.5
X175.0Y-83.5
X175.0Y-85.5
X175.0Y-91.5
X175.0Y-93.5
X175.0Y-95.5
X176.5Y-55.9
X176.5Y-78.0
X176.5Y-78.9
X176.5Y-101.0
X177.0Y-61.5
X177.0Y-63.5
X177.0Y-65.5
X177.0Y-71.5
X177.0Y-73.5
X177.0Y-75.5
X177.0Y-81.5
X177.0Y-83.5
X177.0Y-85.5
X177.0Y-91.5
X177.0Y-93.5
X177.0Y-95.5
X178.7Y-80.0
X178.7Y-99.9
X178.7Y-102.3
X178.8Y-54.8
X178.8Y-57.1
X178.8Y-77.0
X179.0Y-61.5
X179.0Y-63.5
X179.0Y-65.5
X179.0Y-71.5
X179.0Y-73.5
X179.0Y-75.5
X179.0Y-81.5
X179.0Y-83.5
X179.0Y-85.5
X179.0Y-91.5
X179.0Y-93.5
X179.0Y-95.5
X180.9Y-55.9
X180.9Y-101.0
X181.0Y-61.5
X181.0Y-63.5
X181.0Y-65.5
X181.0Y-71.5
X181.0Y-73.5
X181.0Y-75.5
X181.0Y-81.5
X181.0Y-83.5
X181.0Y-85.5
X181.0Y-91.5
X181.0Y-93.5
X181.0Y-95.5
X181.1Y-78.1
X181.1Y-78.9
X183.0Y-61.5
X183.0Y-63.5
X183.0Y-65.5
X183.0Y-71.5
X183.0Y-73.5
X183.0Y-75.5
X183.0Y-81.5
X183.0Y-83.5
X183.0Y-85.5
X183.0Y-91.5
X183.0Y-93.5
X183.0Y-95.5
X183.2Y-77.0
X183.3Y-79.9
X185.0Y-61.5
X185.0Y-63.5
X185.0Y-65.5
X185.0Y-71.5
X185.0Y-73.5
X185.0Y-75.5
X185.0Y-81.5
X185.0Y-83.5
X185.0Y-85.5
X185.0Y-91.5
X185.0Y-93.5
X185.0Y-95.5
X188.0Y-61.5
X188.0Y-65.5
X188.0Y-71.5
X188.0Y-75.5
X188.0Y-81.5
X188.0Y-85.5
X188.0Y-91.5
X188.0Y-95.5
T4
X121.1Y-59.25
X121.1Y-61.25
X121.1Y-66.35
X121.1Y-68.35
X121.1Y-73.45
X121.1Y-75.45
X121.1Y-80.55
X121.1Y-82.55
X121.1Y-100.4
X121.1Y-102.4
X128.15Y-62.05
X130.15Y-62.05
X134.0Y-80.3
X136.0Y-80.3
X137.3Y-93.9
X139.3Y-93.9
X141.3Y-93.9
X142.2Y-80.3
X143.3Y-93.9
X144.2Y-80.3
X145.3Y-93.9
X147.3Y-93.9
X151.17Y-108.05
X152.3Y-87.7
X152.3Y-93.9
X152.4Y-80.6
X153.17Y-108.05
X154.3Y-87.7
X154.3Y-93.9
X154.4Y-80.6
X156.3Y-87.7
X156.3Y-93.9
X158.3Y-87.7
X158.3Y-93.9
X163.0Y-54.7
X163.0Y-56.7
X163.0Y-58.7
X163.0Y-60.7
X163.0Y-62.7
X163.0Y-64.7
X166.933Y-80.0
X168.933Y-80.0
X169.2Y-56.95
X171.2Y-56.95
T5
X188.032Y-63.45
X188.032Y-68.45
X188.032Y-73.45
X188.032Y-78.45
X188.032Y-83.45
X188.032Y-88.45
X188.032Y-93.45
X188.032Y-98.45
T3
G00X121.3Y-86.5
M15
G01X120.5Y-86.5
M16
G05
G00X121.3Y-95.14
M15
G01X120.5Y-95.14
M16
G05
G00X125.65Y-86.5
M15
G01X124.55Y-86.5
M16
G05
G00X125.65Y-95.14
M15
G01X124.55Y-95.14
M16
G05
M30
