%TF.GenerationSoftware,KiCad,Pcbnew,9.0.7*%
%TF.CreationDate,2026-03-17T16:13:23+01:00*%
%TF.ProjectId,power_logger,706f7765-725f-46c6-9f67-6765722e6b69,rev?*%
%TF.SameCoordinates,Original*%
%TF.FileFunction,Legend,Bot*%
%TF.FilePolarity,Positive*%
%FSLAX46Y46*%
G04 Gerber Fmt 4.6, Leading zero omitted, Abs format (unit mm)*
G04 Created by KiCad (PCBNEW 9.0.7) date 2026-03-17 16:13:23*
%MOMM*%
%LPD*%
G01*
G04 APERTURE LIST*
%ADD10C,0.150000*%
%ADD11C,0.254000*%
%ADD12C,0.120000*%
G04 APERTURE END LIST*
D10*
X166775357Y-91609580D02*
X166822976Y-91657200D01*
X166822976Y-91657200D02*
X166965833Y-91704819D01*
X166965833Y-91704819D02*
X167061071Y-91704819D01*
X167061071Y-91704819D02*
X167203928Y-91657200D01*
X167203928Y-91657200D02*
X167299166Y-91561961D01*
X167299166Y-91561961D02*
X167346785Y-91466723D01*
X167346785Y-91466723D02*
X167394404Y-91276247D01*
X167394404Y-91276247D02*
X167394404Y-91133390D01*
X167394404Y-91133390D02*
X167346785Y-90942914D01*
X167346785Y-90942914D02*
X167299166Y-90847676D01*
X167299166Y-90847676D02*
X167203928Y-90752438D01*
X167203928Y-90752438D02*
X167061071Y-90704819D01*
X167061071Y-90704819D02*
X166965833Y-90704819D01*
X166965833Y-90704819D02*
X166822976Y-90752438D01*
X166822976Y-90752438D02*
X166775357Y-90800057D01*
X165822976Y-91704819D02*
X166394404Y-91704819D01*
X166108690Y-91704819D02*
X166108690Y-90704819D01*
X166108690Y-90704819D02*
X166203928Y-90847676D01*
X166203928Y-90847676D02*
X166299166Y-90942914D01*
X166299166Y-90942914D02*
X166394404Y-90990533D01*
X164965833Y-90704819D02*
X165156309Y-90704819D01*
X165156309Y-90704819D02*
X165251547Y-90752438D01*
X165251547Y-90752438D02*
X165299166Y-90800057D01*
X165299166Y-90800057D02*
X165394404Y-90942914D01*
X165394404Y-90942914D02*
X165442023Y-91133390D01*
X165442023Y-91133390D02*
X165442023Y-91514342D01*
X165442023Y-91514342D02*
X165394404Y-91609580D01*
X165394404Y-91609580D02*
X165346785Y-91657200D01*
X165346785Y-91657200D02*
X165251547Y-91704819D01*
X165251547Y-91704819D02*
X165061071Y-91704819D01*
X165061071Y-91704819D02*
X164965833Y-91657200D01*
X164965833Y-91657200D02*
X164918214Y-91609580D01*
X164918214Y-91609580D02*
X164870595Y-91514342D01*
X164870595Y-91514342D02*
X164870595Y-91276247D01*
X164870595Y-91276247D02*
X164918214Y-91181009D01*
X164918214Y-91181009D02*
X164965833Y-91133390D01*
X164965833Y-91133390D02*
X165061071Y-91085771D01*
X165061071Y-91085771D02*
X165251547Y-91085771D01*
X165251547Y-91085771D02*
X165346785Y-91133390D01*
X165346785Y-91133390D02*
X165394404Y-91181009D01*
X165394404Y-91181009D02*
X165442023Y-91276247D01*
X141959580Y-56233333D02*
X142007200Y-56185714D01*
X142007200Y-56185714D02*
X142054819Y-56042857D01*
X142054819Y-56042857D02*
X142054819Y-55947619D01*
X142054819Y-55947619D02*
X142007200Y-55804762D01*
X142007200Y-55804762D02*
X141911961Y-55709524D01*
X141911961Y-55709524D02*
X141816723Y-55661905D01*
X141816723Y-55661905D02*
X141626247Y-55614286D01*
X141626247Y-55614286D02*
X141483390Y-55614286D01*
X141483390Y-55614286D02*
X141292914Y-55661905D01*
X141292914Y-55661905D02*
X141197676Y-55709524D01*
X141197676Y-55709524D02*
X141102438Y-55804762D01*
X141102438Y-55804762D02*
X141054819Y-55947619D01*
X141054819Y-55947619D02*
X141054819Y-56042857D01*
X141054819Y-56042857D02*
X141102438Y-56185714D01*
X141102438Y-56185714D02*
X141150057Y-56233333D01*
X141054819Y-56566667D02*
X141054819Y-57233333D01*
X141054819Y-57233333D02*
X142054819Y-56804762D01*
X126466666Y-77549580D02*
X126514285Y-77597200D01*
X126514285Y-77597200D02*
X126657142Y-77644819D01*
X126657142Y-77644819D02*
X126752380Y-77644819D01*
X126752380Y-77644819D02*
X126895237Y-77597200D01*
X126895237Y-77597200D02*
X126990475Y-77501961D01*
X126990475Y-77501961D02*
X127038094Y-77406723D01*
X127038094Y-77406723D02*
X127085713Y-77216247D01*
X127085713Y-77216247D02*
X127085713Y-77073390D01*
X127085713Y-77073390D02*
X127038094Y-76882914D01*
X127038094Y-76882914D02*
X126990475Y-76787676D01*
X126990475Y-76787676D02*
X126895237Y-76692438D01*
X126895237Y-76692438D02*
X126752380Y-76644819D01*
X126752380Y-76644819D02*
X126657142Y-76644819D01*
X126657142Y-76644819D02*
X126514285Y-76692438D01*
X126514285Y-76692438D02*
X126466666Y-76740057D01*
X125609523Y-76978152D02*
X125609523Y-77644819D01*
X125847618Y-76597200D02*
X126085713Y-77311485D01*
X126085713Y-77311485D02*
X125466666Y-77311485D01*
X126479166Y-80549580D02*
X126526785Y-80597200D01*
X126526785Y-80597200D02*
X126669642Y-80644819D01*
X126669642Y-80644819D02*
X126764880Y-80644819D01*
X126764880Y-80644819D02*
X126907737Y-80597200D01*
X126907737Y-80597200D02*
X127002975Y-80501961D01*
X127002975Y-80501961D02*
X127050594Y-80406723D01*
X127050594Y-80406723D02*
X127098213Y-80216247D01*
X127098213Y-80216247D02*
X127098213Y-80073390D01*
X127098213Y-80073390D02*
X127050594Y-79882914D01*
X127050594Y-79882914D02*
X127002975Y-79787676D01*
X127002975Y-79787676D02*
X126907737Y-79692438D01*
X126907737Y-79692438D02*
X126764880Y-79644819D01*
X126764880Y-79644819D02*
X126669642Y-79644819D01*
X126669642Y-79644819D02*
X126526785Y-79692438D01*
X126526785Y-79692438D02*
X126479166Y-79740057D01*
X126098213Y-79740057D02*
X126050594Y-79692438D01*
X126050594Y-79692438D02*
X125955356Y-79644819D01*
X125955356Y-79644819D02*
X125717261Y-79644819D01*
X125717261Y-79644819D02*
X125622023Y-79692438D01*
X125622023Y-79692438D02*
X125574404Y-79740057D01*
X125574404Y-79740057D02*
X125526785Y-79835295D01*
X125526785Y-79835295D02*
X125526785Y-79930533D01*
X125526785Y-79930533D02*
X125574404Y-80073390D01*
X125574404Y-80073390D02*
X126145832Y-80644819D01*
X126145832Y-80644819D02*
X125526785Y-80644819D01*
X134354166Y-70259580D02*
X134401785Y-70307200D01*
X134401785Y-70307200D02*
X134544642Y-70354819D01*
X134544642Y-70354819D02*
X134639880Y-70354819D01*
X134639880Y-70354819D02*
X134782737Y-70307200D01*
X134782737Y-70307200D02*
X134877975Y-70211961D01*
X134877975Y-70211961D02*
X134925594Y-70116723D01*
X134925594Y-70116723D02*
X134973213Y-69926247D01*
X134973213Y-69926247D02*
X134973213Y-69783390D01*
X134973213Y-69783390D02*
X134925594Y-69592914D01*
X134925594Y-69592914D02*
X134877975Y-69497676D01*
X134877975Y-69497676D02*
X134782737Y-69402438D01*
X134782737Y-69402438D02*
X134639880Y-69354819D01*
X134639880Y-69354819D02*
X134544642Y-69354819D01*
X134544642Y-69354819D02*
X134401785Y-69402438D01*
X134401785Y-69402438D02*
X134354166Y-69450057D01*
X133497023Y-69354819D02*
X133687499Y-69354819D01*
X133687499Y-69354819D02*
X133782737Y-69402438D01*
X133782737Y-69402438D02*
X133830356Y-69450057D01*
X133830356Y-69450057D02*
X133925594Y-69592914D01*
X133925594Y-69592914D02*
X133973213Y-69783390D01*
X133973213Y-69783390D02*
X133973213Y-70164342D01*
X133973213Y-70164342D02*
X133925594Y-70259580D01*
X133925594Y-70259580D02*
X133877975Y-70307200D01*
X133877975Y-70307200D02*
X133782737Y-70354819D01*
X133782737Y-70354819D02*
X133592261Y-70354819D01*
X133592261Y-70354819D02*
X133497023Y-70307200D01*
X133497023Y-70307200D02*
X133449404Y-70259580D01*
X133449404Y-70259580D02*
X133401785Y-70164342D01*
X133401785Y-70164342D02*
X133401785Y-69926247D01*
X133401785Y-69926247D02*
X133449404Y-69831009D01*
X133449404Y-69831009D02*
X133497023Y-69783390D01*
X133497023Y-69783390D02*
X133592261Y-69735771D01*
X133592261Y-69735771D02*
X133782737Y-69735771D01*
X133782737Y-69735771D02*
X133877975Y-69783390D01*
X133877975Y-69783390D02*
X133925594Y-69831009D01*
X133925594Y-69831009D02*
X133973213Y-69926247D01*
X166775357Y-90204819D02*
X167108690Y-89728628D01*
X167346785Y-90204819D02*
X167346785Y-89204819D01*
X167346785Y-89204819D02*
X166965833Y-89204819D01*
X166965833Y-89204819D02*
X166870595Y-89252438D01*
X166870595Y-89252438D02*
X166822976Y-89300057D01*
X166822976Y-89300057D02*
X166775357Y-89395295D01*
X166775357Y-89395295D02*
X166775357Y-89538152D01*
X166775357Y-89538152D02*
X166822976Y-89633390D01*
X166822976Y-89633390D02*
X166870595Y-89681009D01*
X166870595Y-89681009D02*
X166965833Y-89728628D01*
X166965833Y-89728628D02*
X167346785Y-89728628D01*
X165822976Y-90204819D02*
X166394404Y-90204819D01*
X166108690Y-90204819D02*
X166108690Y-89204819D01*
X166108690Y-89204819D02*
X166203928Y-89347676D01*
X166203928Y-89347676D02*
X166299166Y-89442914D01*
X166299166Y-89442914D02*
X166394404Y-89490533D01*
X165346785Y-90204819D02*
X165156309Y-90204819D01*
X165156309Y-90204819D02*
X165061071Y-90157200D01*
X165061071Y-90157200D02*
X165013452Y-90109580D01*
X165013452Y-90109580D02*
X164918214Y-89966723D01*
X164918214Y-89966723D02*
X164870595Y-89776247D01*
X164870595Y-89776247D02*
X164870595Y-89395295D01*
X164870595Y-89395295D02*
X164918214Y-89300057D01*
X164918214Y-89300057D02*
X164965833Y-89252438D01*
X164965833Y-89252438D02*
X165061071Y-89204819D01*
X165061071Y-89204819D02*
X165251547Y-89204819D01*
X165251547Y-89204819D02*
X165346785Y-89252438D01*
X165346785Y-89252438D02*
X165394404Y-89300057D01*
X165394404Y-89300057D02*
X165442023Y-89395295D01*
X165442023Y-89395295D02*
X165442023Y-89633390D01*
X165442023Y-89633390D02*
X165394404Y-89728628D01*
X165394404Y-89728628D02*
X165346785Y-89776247D01*
X165346785Y-89776247D02*
X165251547Y-89823866D01*
X165251547Y-89823866D02*
X165061071Y-89823866D01*
X165061071Y-89823866D02*
X164965833Y-89776247D01*
X164965833Y-89776247D02*
X164918214Y-89728628D01*
X164918214Y-89728628D02*
X164870595Y-89633390D01*
X166775357Y-71609580D02*
X166822976Y-71657200D01*
X166822976Y-71657200D02*
X166965833Y-71704819D01*
X166965833Y-71704819D02*
X167061071Y-71704819D01*
X167061071Y-71704819D02*
X167203928Y-71657200D01*
X167203928Y-71657200D02*
X167299166Y-71561961D01*
X167299166Y-71561961D02*
X167346785Y-71466723D01*
X167346785Y-71466723D02*
X167394404Y-71276247D01*
X167394404Y-71276247D02*
X167394404Y-71133390D01*
X167394404Y-71133390D02*
X167346785Y-70942914D01*
X167346785Y-70942914D02*
X167299166Y-70847676D01*
X167299166Y-70847676D02*
X167203928Y-70752438D01*
X167203928Y-70752438D02*
X167061071Y-70704819D01*
X167061071Y-70704819D02*
X166965833Y-70704819D01*
X166965833Y-70704819D02*
X166822976Y-70752438D01*
X166822976Y-70752438D02*
X166775357Y-70800057D01*
X165822976Y-71704819D02*
X166394404Y-71704819D01*
X166108690Y-71704819D02*
X166108690Y-70704819D01*
X166108690Y-70704819D02*
X166203928Y-70847676D01*
X166203928Y-70847676D02*
X166299166Y-70942914D01*
X166299166Y-70942914D02*
X166394404Y-70990533D01*
X165489642Y-70704819D02*
X164822976Y-70704819D01*
X164822976Y-70704819D02*
X165251547Y-71704819D01*
X140012319Y-98357142D02*
X139536128Y-98023809D01*
X140012319Y-97785714D02*
X139012319Y-97785714D01*
X139012319Y-97785714D02*
X139012319Y-98166666D01*
X139012319Y-98166666D02*
X139059938Y-98261904D01*
X139059938Y-98261904D02*
X139107557Y-98309523D01*
X139107557Y-98309523D02*
X139202795Y-98357142D01*
X139202795Y-98357142D02*
X139345652Y-98357142D01*
X139345652Y-98357142D02*
X139440890Y-98309523D01*
X139440890Y-98309523D02*
X139488509Y-98261904D01*
X139488509Y-98261904D02*
X139536128Y-98166666D01*
X139536128Y-98166666D02*
X139536128Y-97785714D01*
X139107557Y-98738095D02*
X139059938Y-98785714D01*
X139059938Y-98785714D02*
X139012319Y-98880952D01*
X139012319Y-98880952D02*
X139012319Y-99119047D01*
X139012319Y-99119047D02*
X139059938Y-99214285D01*
X139059938Y-99214285D02*
X139107557Y-99261904D01*
X139107557Y-99261904D02*
X139202795Y-99309523D01*
X139202795Y-99309523D02*
X139298033Y-99309523D01*
X139298033Y-99309523D02*
X139440890Y-99261904D01*
X139440890Y-99261904D02*
X140012319Y-98690476D01*
X140012319Y-98690476D02*
X140012319Y-99309523D01*
X139345652Y-100166666D02*
X140012319Y-100166666D01*
X138964700Y-99928571D02*
X139678985Y-99690476D01*
X139678985Y-99690476D02*
X139678985Y-100309523D01*
X126654166Y-82109580D02*
X126701785Y-82157200D01*
X126701785Y-82157200D02*
X126844642Y-82204819D01*
X126844642Y-82204819D02*
X126939880Y-82204819D01*
X126939880Y-82204819D02*
X127082737Y-82157200D01*
X127082737Y-82157200D02*
X127177975Y-82061961D01*
X127177975Y-82061961D02*
X127225594Y-81966723D01*
X127225594Y-81966723D02*
X127273213Y-81776247D01*
X127273213Y-81776247D02*
X127273213Y-81633390D01*
X127273213Y-81633390D02*
X127225594Y-81442914D01*
X127225594Y-81442914D02*
X127177975Y-81347676D01*
X127177975Y-81347676D02*
X127082737Y-81252438D01*
X127082737Y-81252438D02*
X126939880Y-81204819D01*
X126939880Y-81204819D02*
X126844642Y-81204819D01*
X126844642Y-81204819D02*
X126701785Y-81252438D01*
X126701785Y-81252438D02*
X126654166Y-81300057D01*
X125701785Y-82204819D02*
X126273213Y-82204819D01*
X125987499Y-82204819D02*
X125987499Y-81204819D01*
X125987499Y-81204819D02*
X126082737Y-81347676D01*
X126082737Y-81347676D02*
X126177975Y-81442914D01*
X126177975Y-81442914D02*
X126273213Y-81490533D01*
X143612319Y-98357142D02*
X143136128Y-98023809D01*
X143612319Y-97785714D02*
X142612319Y-97785714D01*
X142612319Y-97785714D02*
X142612319Y-98166666D01*
X142612319Y-98166666D02*
X142659938Y-98261904D01*
X142659938Y-98261904D02*
X142707557Y-98309523D01*
X142707557Y-98309523D02*
X142802795Y-98357142D01*
X142802795Y-98357142D02*
X142945652Y-98357142D01*
X142945652Y-98357142D02*
X143040890Y-98309523D01*
X143040890Y-98309523D02*
X143088509Y-98261904D01*
X143088509Y-98261904D02*
X143136128Y-98166666D01*
X143136128Y-98166666D02*
X143136128Y-97785714D01*
X142707557Y-98738095D02*
X142659938Y-98785714D01*
X142659938Y-98785714D02*
X142612319Y-98880952D01*
X142612319Y-98880952D02*
X142612319Y-99119047D01*
X142612319Y-99119047D02*
X142659938Y-99214285D01*
X142659938Y-99214285D02*
X142707557Y-99261904D01*
X142707557Y-99261904D02*
X142802795Y-99309523D01*
X142802795Y-99309523D02*
X142898033Y-99309523D01*
X142898033Y-99309523D02*
X143040890Y-99261904D01*
X143040890Y-99261904D02*
X143612319Y-98690476D01*
X143612319Y-98690476D02*
X143612319Y-99309523D01*
X142707557Y-99690476D02*
X142659938Y-99738095D01*
X142659938Y-99738095D02*
X142612319Y-99833333D01*
X142612319Y-99833333D02*
X142612319Y-100071428D01*
X142612319Y-100071428D02*
X142659938Y-100166666D01*
X142659938Y-100166666D02*
X142707557Y-100214285D01*
X142707557Y-100214285D02*
X142802795Y-100261904D01*
X142802795Y-100261904D02*
X142898033Y-100261904D01*
X142898033Y-100261904D02*
X143040890Y-100214285D01*
X143040890Y-100214285D02*
X143612319Y-99642857D01*
X143612319Y-99642857D02*
X143612319Y-100261904D01*
X179184819Y-58357142D02*
X178708628Y-58023809D01*
X179184819Y-57785714D02*
X178184819Y-57785714D01*
X178184819Y-57785714D02*
X178184819Y-58166666D01*
X178184819Y-58166666D02*
X178232438Y-58261904D01*
X178232438Y-58261904D02*
X178280057Y-58309523D01*
X178280057Y-58309523D02*
X178375295Y-58357142D01*
X178375295Y-58357142D02*
X178518152Y-58357142D01*
X178518152Y-58357142D02*
X178613390Y-58309523D01*
X178613390Y-58309523D02*
X178661009Y-58261904D01*
X178661009Y-58261904D02*
X178708628Y-58166666D01*
X178708628Y-58166666D02*
X178708628Y-57785714D01*
X178518152Y-59214285D02*
X179184819Y-59214285D01*
X178137200Y-58976190D02*
X178851485Y-58738095D01*
X178851485Y-58738095D02*
X178851485Y-59357142D01*
X178518152Y-60166666D02*
X179184819Y-60166666D01*
X178137200Y-59928571D02*
X178851485Y-59690476D01*
X178851485Y-59690476D02*
X178851485Y-60309523D01*
X155042857Y-83554819D02*
X155376190Y-83078628D01*
X155614285Y-83554819D02*
X155614285Y-82554819D01*
X155614285Y-82554819D02*
X155233333Y-82554819D01*
X155233333Y-82554819D02*
X155138095Y-82602438D01*
X155138095Y-82602438D02*
X155090476Y-82650057D01*
X155090476Y-82650057D02*
X155042857Y-82745295D01*
X155042857Y-82745295D02*
X155042857Y-82888152D01*
X155042857Y-82888152D02*
X155090476Y-82983390D01*
X155090476Y-82983390D02*
X155138095Y-83031009D01*
X155138095Y-83031009D02*
X155233333Y-83078628D01*
X155233333Y-83078628D02*
X155614285Y-83078628D01*
X154709523Y-82554819D02*
X154090476Y-82554819D01*
X154090476Y-82554819D02*
X154423809Y-82935771D01*
X154423809Y-82935771D02*
X154280952Y-82935771D01*
X154280952Y-82935771D02*
X154185714Y-82983390D01*
X154185714Y-82983390D02*
X154138095Y-83031009D01*
X154138095Y-83031009D02*
X154090476Y-83126247D01*
X154090476Y-83126247D02*
X154090476Y-83364342D01*
X154090476Y-83364342D02*
X154138095Y-83459580D01*
X154138095Y-83459580D02*
X154185714Y-83507200D01*
X154185714Y-83507200D02*
X154280952Y-83554819D01*
X154280952Y-83554819D02*
X154566666Y-83554819D01*
X154566666Y-83554819D02*
X154661904Y-83507200D01*
X154661904Y-83507200D02*
X154709523Y-83459580D01*
X153709523Y-82650057D02*
X153661904Y-82602438D01*
X153661904Y-82602438D02*
X153566666Y-82554819D01*
X153566666Y-82554819D02*
X153328571Y-82554819D01*
X153328571Y-82554819D02*
X153233333Y-82602438D01*
X153233333Y-82602438D02*
X153185714Y-82650057D01*
X153185714Y-82650057D02*
X153138095Y-82745295D01*
X153138095Y-82745295D02*
X153138095Y-82840533D01*
X153138095Y-82840533D02*
X153185714Y-82983390D01*
X153185714Y-82983390D02*
X153757142Y-83554819D01*
X153757142Y-83554819D02*
X153138095Y-83554819D01*
X132466666Y-85954819D02*
X132799999Y-85478628D01*
X133038094Y-85954819D02*
X133038094Y-84954819D01*
X133038094Y-84954819D02*
X132657142Y-84954819D01*
X132657142Y-84954819D02*
X132561904Y-85002438D01*
X132561904Y-85002438D02*
X132514285Y-85050057D01*
X132514285Y-85050057D02*
X132466666Y-85145295D01*
X132466666Y-85145295D02*
X132466666Y-85288152D01*
X132466666Y-85288152D02*
X132514285Y-85383390D01*
X132514285Y-85383390D02*
X132561904Y-85431009D01*
X132561904Y-85431009D02*
X132657142Y-85478628D01*
X132657142Y-85478628D02*
X133038094Y-85478628D01*
X132133332Y-84954819D02*
X131514285Y-84954819D01*
X131514285Y-84954819D02*
X131847618Y-85335771D01*
X131847618Y-85335771D02*
X131704761Y-85335771D01*
X131704761Y-85335771D02*
X131609523Y-85383390D01*
X131609523Y-85383390D02*
X131561904Y-85431009D01*
X131561904Y-85431009D02*
X131514285Y-85526247D01*
X131514285Y-85526247D02*
X131514285Y-85764342D01*
X131514285Y-85764342D02*
X131561904Y-85859580D01*
X131561904Y-85859580D02*
X131609523Y-85907200D01*
X131609523Y-85907200D02*
X131704761Y-85954819D01*
X131704761Y-85954819D02*
X131990475Y-85954819D01*
X131990475Y-85954819D02*
X132085713Y-85907200D01*
X132085713Y-85907200D02*
X132133332Y-85859580D01*
X130959580Y-99533333D02*
X131007200Y-99485714D01*
X131007200Y-99485714D02*
X131054819Y-99342857D01*
X131054819Y-99342857D02*
X131054819Y-99247619D01*
X131054819Y-99247619D02*
X131007200Y-99104762D01*
X131007200Y-99104762D02*
X130911961Y-99009524D01*
X130911961Y-99009524D02*
X130816723Y-98961905D01*
X130816723Y-98961905D02*
X130626247Y-98914286D01*
X130626247Y-98914286D02*
X130483390Y-98914286D01*
X130483390Y-98914286D02*
X130292914Y-98961905D01*
X130292914Y-98961905D02*
X130197676Y-99009524D01*
X130197676Y-99009524D02*
X130102438Y-99104762D01*
X130102438Y-99104762D02*
X130054819Y-99247619D01*
X130054819Y-99247619D02*
X130054819Y-99342857D01*
X130054819Y-99342857D02*
X130102438Y-99485714D01*
X130102438Y-99485714D02*
X130150057Y-99533333D01*
X130483390Y-100104762D02*
X130435771Y-100009524D01*
X130435771Y-100009524D02*
X130388152Y-99961905D01*
X130388152Y-99961905D02*
X130292914Y-99914286D01*
X130292914Y-99914286D02*
X130245295Y-99914286D01*
X130245295Y-99914286D02*
X130150057Y-99961905D01*
X130150057Y-99961905D02*
X130102438Y-100009524D01*
X130102438Y-100009524D02*
X130054819Y-100104762D01*
X130054819Y-100104762D02*
X130054819Y-100295238D01*
X130054819Y-100295238D02*
X130102438Y-100390476D01*
X130102438Y-100390476D02*
X130150057Y-100438095D01*
X130150057Y-100438095D02*
X130245295Y-100485714D01*
X130245295Y-100485714D02*
X130292914Y-100485714D01*
X130292914Y-100485714D02*
X130388152Y-100438095D01*
X130388152Y-100438095D02*
X130435771Y-100390476D01*
X130435771Y-100390476D02*
X130483390Y-100295238D01*
X130483390Y-100295238D02*
X130483390Y-100104762D01*
X130483390Y-100104762D02*
X130531009Y-100009524D01*
X130531009Y-100009524D02*
X130578628Y-99961905D01*
X130578628Y-99961905D02*
X130673866Y-99914286D01*
X130673866Y-99914286D02*
X130864342Y-99914286D01*
X130864342Y-99914286D02*
X130959580Y-99961905D01*
X130959580Y-99961905D02*
X131007200Y-100009524D01*
X131007200Y-100009524D02*
X131054819Y-100104762D01*
X131054819Y-100104762D02*
X131054819Y-100295238D01*
X131054819Y-100295238D02*
X131007200Y-100390476D01*
X131007200Y-100390476D02*
X130959580Y-100438095D01*
X130959580Y-100438095D02*
X130864342Y-100485714D01*
X130864342Y-100485714D02*
X130673866Y-100485714D01*
X130673866Y-100485714D02*
X130578628Y-100438095D01*
X130578628Y-100438095D02*
X130531009Y-100390476D01*
X130531009Y-100390476D02*
X130483390Y-100295238D01*
X141524819Y-98357142D02*
X141048628Y-98023809D01*
X141524819Y-97785714D02*
X140524819Y-97785714D01*
X140524819Y-97785714D02*
X140524819Y-98166666D01*
X140524819Y-98166666D02*
X140572438Y-98261904D01*
X140572438Y-98261904D02*
X140620057Y-98309523D01*
X140620057Y-98309523D02*
X140715295Y-98357142D01*
X140715295Y-98357142D02*
X140858152Y-98357142D01*
X140858152Y-98357142D02*
X140953390Y-98309523D01*
X140953390Y-98309523D02*
X141001009Y-98261904D01*
X141001009Y-98261904D02*
X141048628Y-98166666D01*
X141048628Y-98166666D02*
X141048628Y-97785714D01*
X140620057Y-98738095D02*
X140572438Y-98785714D01*
X140572438Y-98785714D02*
X140524819Y-98880952D01*
X140524819Y-98880952D02*
X140524819Y-99119047D01*
X140524819Y-99119047D02*
X140572438Y-99214285D01*
X140572438Y-99214285D02*
X140620057Y-99261904D01*
X140620057Y-99261904D02*
X140715295Y-99309523D01*
X140715295Y-99309523D02*
X140810533Y-99309523D01*
X140810533Y-99309523D02*
X140953390Y-99261904D01*
X140953390Y-99261904D02*
X141524819Y-98690476D01*
X141524819Y-98690476D02*
X141524819Y-99309523D01*
X140524819Y-99642857D02*
X140524819Y-100261904D01*
X140524819Y-100261904D02*
X140905771Y-99928571D01*
X140905771Y-99928571D02*
X140905771Y-100071428D01*
X140905771Y-100071428D02*
X140953390Y-100166666D01*
X140953390Y-100166666D02*
X141001009Y-100214285D01*
X141001009Y-100214285D02*
X141096247Y-100261904D01*
X141096247Y-100261904D02*
X141334342Y-100261904D01*
X141334342Y-100261904D02*
X141429580Y-100214285D01*
X141429580Y-100214285D02*
X141477200Y-100166666D01*
X141477200Y-100166666D02*
X141524819Y-100071428D01*
X141524819Y-100071428D02*
X141524819Y-99785714D01*
X141524819Y-99785714D02*
X141477200Y-99690476D01*
X141477200Y-99690476D02*
X141429580Y-99642857D01*
X127704166Y-70259580D02*
X127751785Y-70307200D01*
X127751785Y-70307200D02*
X127894642Y-70354819D01*
X127894642Y-70354819D02*
X127989880Y-70354819D01*
X127989880Y-70354819D02*
X128132737Y-70307200D01*
X128132737Y-70307200D02*
X128227975Y-70211961D01*
X128227975Y-70211961D02*
X128275594Y-70116723D01*
X128275594Y-70116723D02*
X128323213Y-69926247D01*
X128323213Y-69926247D02*
X128323213Y-69783390D01*
X128323213Y-69783390D02*
X128275594Y-69592914D01*
X128275594Y-69592914D02*
X128227975Y-69497676D01*
X128227975Y-69497676D02*
X128132737Y-69402438D01*
X128132737Y-69402438D02*
X127989880Y-69354819D01*
X127989880Y-69354819D02*
X127894642Y-69354819D01*
X127894642Y-69354819D02*
X127751785Y-69402438D01*
X127751785Y-69402438D02*
X127704166Y-69450057D01*
X127227975Y-70354819D02*
X127037499Y-70354819D01*
X127037499Y-70354819D02*
X126942261Y-70307200D01*
X126942261Y-70307200D02*
X126894642Y-70259580D01*
X126894642Y-70259580D02*
X126799404Y-70116723D01*
X126799404Y-70116723D02*
X126751785Y-69926247D01*
X126751785Y-69926247D02*
X126751785Y-69545295D01*
X126751785Y-69545295D02*
X126799404Y-69450057D01*
X126799404Y-69450057D02*
X126847023Y-69402438D01*
X126847023Y-69402438D02*
X126942261Y-69354819D01*
X126942261Y-69354819D02*
X127132737Y-69354819D01*
X127132737Y-69354819D02*
X127227975Y-69402438D01*
X127227975Y-69402438D02*
X127275594Y-69450057D01*
X127275594Y-69450057D02*
X127323213Y-69545295D01*
X127323213Y-69545295D02*
X127323213Y-69783390D01*
X127323213Y-69783390D02*
X127275594Y-69878628D01*
X127275594Y-69878628D02*
X127227975Y-69926247D01*
X127227975Y-69926247D02*
X127132737Y-69973866D01*
X127132737Y-69973866D02*
X126942261Y-69973866D01*
X126942261Y-69973866D02*
X126847023Y-69926247D01*
X126847023Y-69926247D02*
X126799404Y-69878628D01*
X126799404Y-69878628D02*
X126751785Y-69783390D01*
X126466666Y-79049580D02*
X126514285Y-79097200D01*
X126514285Y-79097200D02*
X126657142Y-79144819D01*
X126657142Y-79144819D02*
X126752380Y-79144819D01*
X126752380Y-79144819D02*
X126895237Y-79097200D01*
X126895237Y-79097200D02*
X126990475Y-79001961D01*
X126990475Y-79001961D02*
X127038094Y-78906723D01*
X127038094Y-78906723D02*
X127085713Y-78716247D01*
X127085713Y-78716247D02*
X127085713Y-78573390D01*
X127085713Y-78573390D02*
X127038094Y-78382914D01*
X127038094Y-78382914D02*
X126990475Y-78287676D01*
X126990475Y-78287676D02*
X126895237Y-78192438D01*
X126895237Y-78192438D02*
X126752380Y-78144819D01*
X126752380Y-78144819D02*
X126657142Y-78144819D01*
X126657142Y-78144819D02*
X126514285Y-78192438D01*
X126514285Y-78192438D02*
X126466666Y-78240057D01*
X126133332Y-78144819D02*
X125514285Y-78144819D01*
X125514285Y-78144819D02*
X125847618Y-78525771D01*
X125847618Y-78525771D02*
X125704761Y-78525771D01*
X125704761Y-78525771D02*
X125609523Y-78573390D01*
X125609523Y-78573390D02*
X125561904Y-78621009D01*
X125561904Y-78621009D02*
X125514285Y-78716247D01*
X125514285Y-78716247D02*
X125514285Y-78954342D01*
X125514285Y-78954342D02*
X125561904Y-79049580D01*
X125561904Y-79049580D02*
X125609523Y-79097200D01*
X125609523Y-79097200D02*
X125704761Y-79144819D01*
X125704761Y-79144819D02*
X125990475Y-79144819D01*
X125990475Y-79144819D02*
X126085713Y-79097200D01*
X126085713Y-79097200D02*
X126133332Y-79049580D01*
X134154819Y-57357142D02*
X133678628Y-57023809D01*
X134154819Y-56785714D02*
X133154819Y-56785714D01*
X133154819Y-56785714D02*
X133154819Y-57166666D01*
X133154819Y-57166666D02*
X133202438Y-57261904D01*
X133202438Y-57261904D02*
X133250057Y-57309523D01*
X133250057Y-57309523D02*
X133345295Y-57357142D01*
X133345295Y-57357142D02*
X133488152Y-57357142D01*
X133488152Y-57357142D02*
X133583390Y-57309523D01*
X133583390Y-57309523D02*
X133631009Y-57261904D01*
X133631009Y-57261904D02*
X133678628Y-57166666D01*
X133678628Y-57166666D02*
X133678628Y-56785714D01*
X134154819Y-58309523D02*
X134154819Y-57738095D01*
X134154819Y-58023809D02*
X133154819Y-58023809D01*
X133154819Y-58023809D02*
X133297676Y-57928571D01*
X133297676Y-57928571D02*
X133392914Y-57833333D01*
X133392914Y-57833333D02*
X133440533Y-57738095D01*
X133154819Y-58928571D02*
X133154819Y-59023809D01*
X133154819Y-59023809D02*
X133202438Y-59119047D01*
X133202438Y-59119047D02*
X133250057Y-59166666D01*
X133250057Y-59166666D02*
X133345295Y-59214285D01*
X133345295Y-59214285D02*
X133535771Y-59261904D01*
X133535771Y-59261904D02*
X133773866Y-59261904D01*
X133773866Y-59261904D02*
X133964342Y-59214285D01*
X133964342Y-59214285D02*
X134059580Y-59166666D01*
X134059580Y-59166666D02*
X134107200Y-59119047D01*
X134107200Y-59119047D02*
X134154819Y-59023809D01*
X134154819Y-59023809D02*
X134154819Y-58928571D01*
X134154819Y-58928571D02*
X134107200Y-58833333D01*
X134107200Y-58833333D02*
X134059580Y-58785714D01*
X134059580Y-58785714D02*
X133964342Y-58738095D01*
X133964342Y-58738095D02*
X133773866Y-58690476D01*
X133773866Y-58690476D02*
X133535771Y-58690476D01*
X133535771Y-58690476D02*
X133345295Y-58738095D01*
X133345295Y-58738095D02*
X133250057Y-58785714D01*
X133250057Y-58785714D02*
X133202438Y-58833333D01*
X133202438Y-58833333D02*
X133154819Y-58928571D01*
X166775357Y-70204819D02*
X167108690Y-69728628D01*
X167346785Y-70204819D02*
X167346785Y-69204819D01*
X167346785Y-69204819D02*
X166965833Y-69204819D01*
X166965833Y-69204819D02*
X166870595Y-69252438D01*
X166870595Y-69252438D02*
X166822976Y-69300057D01*
X166822976Y-69300057D02*
X166775357Y-69395295D01*
X166775357Y-69395295D02*
X166775357Y-69538152D01*
X166775357Y-69538152D02*
X166822976Y-69633390D01*
X166822976Y-69633390D02*
X166870595Y-69681009D01*
X166870595Y-69681009D02*
X166965833Y-69728628D01*
X166965833Y-69728628D02*
X167346785Y-69728628D01*
X165822976Y-70204819D02*
X166394404Y-70204819D01*
X166108690Y-70204819D02*
X166108690Y-69204819D01*
X166108690Y-69204819D02*
X166203928Y-69347676D01*
X166203928Y-69347676D02*
X166299166Y-69442914D01*
X166299166Y-69442914D02*
X166394404Y-69490533D01*
X165251547Y-69633390D02*
X165346785Y-69585771D01*
X165346785Y-69585771D02*
X165394404Y-69538152D01*
X165394404Y-69538152D02*
X165442023Y-69442914D01*
X165442023Y-69442914D02*
X165442023Y-69395295D01*
X165442023Y-69395295D02*
X165394404Y-69300057D01*
X165394404Y-69300057D02*
X165346785Y-69252438D01*
X165346785Y-69252438D02*
X165251547Y-69204819D01*
X165251547Y-69204819D02*
X165061071Y-69204819D01*
X165061071Y-69204819D02*
X164965833Y-69252438D01*
X164965833Y-69252438D02*
X164918214Y-69300057D01*
X164918214Y-69300057D02*
X164870595Y-69395295D01*
X164870595Y-69395295D02*
X164870595Y-69442914D01*
X164870595Y-69442914D02*
X164918214Y-69538152D01*
X164918214Y-69538152D02*
X164965833Y-69585771D01*
X164965833Y-69585771D02*
X165061071Y-69633390D01*
X165061071Y-69633390D02*
X165251547Y-69633390D01*
X165251547Y-69633390D02*
X165346785Y-69681009D01*
X165346785Y-69681009D02*
X165394404Y-69728628D01*
X165394404Y-69728628D02*
X165442023Y-69823866D01*
X165442023Y-69823866D02*
X165442023Y-70014342D01*
X165442023Y-70014342D02*
X165394404Y-70109580D01*
X165394404Y-70109580D02*
X165346785Y-70157200D01*
X165346785Y-70157200D02*
X165251547Y-70204819D01*
X165251547Y-70204819D02*
X165061071Y-70204819D01*
X165061071Y-70204819D02*
X164965833Y-70157200D01*
X164965833Y-70157200D02*
X164918214Y-70109580D01*
X164918214Y-70109580D02*
X164870595Y-70014342D01*
X164870595Y-70014342D02*
X164870595Y-69823866D01*
X164870595Y-69823866D02*
X164918214Y-69728628D01*
X164918214Y-69728628D02*
X164965833Y-69681009D01*
X164965833Y-69681009D02*
X165061071Y-69633390D01*
X131259580Y-67157142D02*
X131307200Y-67109523D01*
X131307200Y-67109523D02*
X131354819Y-66966666D01*
X131354819Y-66966666D02*
X131354819Y-66871428D01*
X131354819Y-66871428D02*
X131307200Y-66728571D01*
X131307200Y-66728571D02*
X131211961Y-66633333D01*
X131211961Y-66633333D02*
X131116723Y-66585714D01*
X131116723Y-66585714D02*
X130926247Y-66538095D01*
X130926247Y-66538095D02*
X130783390Y-66538095D01*
X130783390Y-66538095D02*
X130592914Y-66585714D01*
X130592914Y-66585714D02*
X130497676Y-66633333D01*
X130497676Y-66633333D02*
X130402438Y-66728571D01*
X130402438Y-66728571D02*
X130354819Y-66871428D01*
X130354819Y-66871428D02*
X130354819Y-66966666D01*
X130354819Y-66966666D02*
X130402438Y-67109523D01*
X130402438Y-67109523D02*
X130450057Y-67157142D01*
X131354819Y-68109523D02*
X131354819Y-67538095D01*
X131354819Y-67823809D02*
X130354819Y-67823809D01*
X130354819Y-67823809D02*
X130497676Y-67728571D01*
X130497676Y-67728571D02*
X130592914Y-67633333D01*
X130592914Y-67633333D02*
X130640533Y-67538095D01*
X130450057Y-68490476D02*
X130402438Y-68538095D01*
X130402438Y-68538095D02*
X130354819Y-68633333D01*
X130354819Y-68633333D02*
X130354819Y-68871428D01*
X130354819Y-68871428D02*
X130402438Y-68966666D01*
X130402438Y-68966666D02*
X130450057Y-69014285D01*
X130450057Y-69014285D02*
X130545295Y-69061904D01*
X130545295Y-69061904D02*
X130640533Y-69061904D01*
X130640533Y-69061904D02*
X130783390Y-69014285D01*
X130783390Y-69014285D02*
X131354819Y-68442857D01*
X131354819Y-68442857D02*
X131354819Y-69061904D01*
X141559580Y-65857142D02*
X141607200Y-65809523D01*
X141607200Y-65809523D02*
X141654819Y-65666666D01*
X141654819Y-65666666D02*
X141654819Y-65571428D01*
X141654819Y-65571428D02*
X141607200Y-65428571D01*
X141607200Y-65428571D02*
X141511961Y-65333333D01*
X141511961Y-65333333D02*
X141416723Y-65285714D01*
X141416723Y-65285714D02*
X141226247Y-65238095D01*
X141226247Y-65238095D02*
X141083390Y-65238095D01*
X141083390Y-65238095D02*
X140892914Y-65285714D01*
X140892914Y-65285714D02*
X140797676Y-65333333D01*
X140797676Y-65333333D02*
X140702438Y-65428571D01*
X140702438Y-65428571D02*
X140654819Y-65571428D01*
X140654819Y-65571428D02*
X140654819Y-65666666D01*
X140654819Y-65666666D02*
X140702438Y-65809523D01*
X140702438Y-65809523D02*
X140750057Y-65857142D01*
X140750057Y-66238095D02*
X140702438Y-66285714D01*
X140702438Y-66285714D02*
X140654819Y-66380952D01*
X140654819Y-66380952D02*
X140654819Y-66619047D01*
X140654819Y-66619047D02*
X140702438Y-66714285D01*
X140702438Y-66714285D02*
X140750057Y-66761904D01*
X140750057Y-66761904D02*
X140845295Y-66809523D01*
X140845295Y-66809523D02*
X140940533Y-66809523D01*
X140940533Y-66809523D02*
X141083390Y-66761904D01*
X141083390Y-66761904D02*
X141654819Y-66190476D01*
X141654819Y-66190476D02*
X141654819Y-66809523D01*
X140654819Y-67142857D02*
X140654819Y-67761904D01*
X140654819Y-67761904D02*
X141035771Y-67428571D01*
X141035771Y-67428571D02*
X141035771Y-67571428D01*
X141035771Y-67571428D02*
X141083390Y-67666666D01*
X141083390Y-67666666D02*
X141131009Y-67714285D01*
X141131009Y-67714285D02*
X141226247Y-67761904D01*
X141226247Y-67761904D02*
X141464342Y-67761904D01*
X141464342Y-67761904D02*
X141559580Y-67714285D01*
X141559580Y-67714285D02*
X141607200Y-67666666D01*
X141607200Y-67666666D02*
X141654819Y-67571428D01*
X141654819Y-67571428D02*
X141654819Y-67285714D01*
X141654819Y-67285714D02*
X141607200Y-67190476D01*
X141607200Y-67190476D02*
X141559580Y-67142857D01*
X146612319Y-98357142D02*
X146136128Y-98023809D01*
X146612319Y-97785714D02*
X145612319Y-97785714D01*
X145612319Y-97785714D02*
X145612319Y-98166666D01*
X145612319Y-98166666D02*
X145659938Y-98261904D01*
X145659938Y-98261904D02*
X145707557Y-98309523D01*
X145707557Y-98309523D02*
X145802795Y-98357142D01*
X145802795Y-98357142D02*
X145945652Y-98357142D01*
X145945652Y-98357142D02*
X146040890Y-98309523D01*
X146040890Y-98309523D02*
X146088509Y-98261904D01*
X146088509Y-98261904D02*
X146136128Y-98166666D01*
X146136128Y-98166666D02*
X146136128Y-97785714D01*
X145707557Y-98738095D02*
X145659938Y-98785714D01*
X145659938Y-98785714D02*
X145612319Y-98880952D01*
X145612319Y-98880952D02*
X145612319Y-99119047D01*
X145612319Y-99119047D02*
X145659938Y-99214285D01*
X145659938Y-99214285D02*
X145707557Y-99261904D01*
X145707557Y-99261904D02*
X145802795Y-99309523D01*
X145802795Y-99309523D02*
X145898033Y-99309523D01*
X145898033Y-99309523D02*
X146040890Y-99261904D01*
X146040890Y-99261904D02*
X146612319Y-98690476D01*
X146612319Y-98690476D02*
X146612319Y-99309523D01*
X145612319Y-99928571D02*
X145612319Y-100023809D01*
X145612319Y-100023809D02*
X145659938Y-100119047D01*
X145659938Y-100119047D02*
X145707557Y-100166666D01*
X145707557Y-100166666D02*
X145802795Y-100214285D01*
X145802795Y-100214285D02*
X145993271Y-100261904D01*
X145993271Y-100261904D02*
X146231366Y-100261904D01*
X146231366Y-100261904D02*
X146421842Y-100214285D01*
X146421842Y-100214285D02*
X146517080Y-100166666D01*
X146517080Y-100166666D02*
X146564700Y-100119047D01*
X146564700Y-100119047D02*
X146612319Y-100023809D01*
X146612319Y-100023809D02*
X146612319Y-99928571D01*
X146612319Y-99928571D02*
X146564700Y-99833333D01*
X146564700Y-99833333D02*
X146517080Y-99785714D01*
X146517080Y-99785714D02*
X146421842Y-99738095D01*
X146421842Y-99738095D02*
X146231366Y-99690476D01*
X146231366Y-99690476D02*
X145993271Y-99690476D01*
X145993271Y-99690476D02*
X145802795Y-99738095D01*
X145802795Y-99738095D02*
X145707557Y-99785714D01*
X145707557Y-99785714D02*
X145659938Y-99833333D01*
X145659938Y-99833333D02*
X145612319Y-99928571D01*
X145112319Y-98357142D02*
X144636128Y-98023809D01*
X145112319Y-97785714D02*
X144112319Y-97785714D01*
X144112319Y-97785714D02*
X144112319Y-98166666D01*
X144112319Y-98166666D02*
X144159938Y-98261904D01*
X144159938Y-98261904D02*
X144207557Y-98309523D01*
X144207557Y-98309523D02*
X144302795Y-98357142D01*
X144302795Y-98357142D02*
X144445652Y-98357142D01*
X144445652Y-98357142D02*
X144540890Y-98309523D01*
X144540890Y-98309523D02*
X144588509Y-98261904D01*
X144588509Y-98261904D02*
X144636128Y-98166666D01*
X144636128Y-98166666D02*
X144636128Y-97785714D01*
X144207557Y-98738095D02*
X144159938Y-98785714D01*
X144159938Y-98785714D02*
X144112319Y-98880952D01*
X144112319Y-98880952D02*
X144112319Y-99119047D01*
X144112319Y-99119047D02*
X144159938Y-99214285D01*
X144159938Y-99214285D02*
X144207557Y-99261904D01*
X144207557Y-99261904D02*
X144302795Y-99309523D01*
X144302795Y-99309523D02*
X144398033Y-99309523D01*
X144398033Y-99309523D02*
X144540890Y-99261904D01*
X144540890Y-99261904D02*
X145112319Y-98690476D01*
X145112319Y-98690476D02*
X145112319Y-99309523D01*
X145112319Y-100261904D02*
X145112319Y-99690476D01*
X145112319Y-99976190D02*
X144112319Y-99976190D01*
X144112319Y-99976190D02*
X144255176Y-99880952D01*
X144255176Y-99880952D02*
X144350414Y-99785714D01*
X144350414Y-99785714D02*
X144398033Y-99690476D01*
X158642857Y-78454819D02*
X158976190Y-77978628D01*
X159214285Y-78454819D02*
X159214285Y-77454819D01*
X159214285Y-77454819D02*
X158833333Y-77454819D01*
X158833333Y-77454819D02*
X158738095Y-77502438D01*
X158738095Y-77502438D02*
X158690476Y-77550057D01*
X158690476Y-77550057D02*
X158642857Y-77645295D01*
X158642857Y-77645295D02*
X158642857Y-77788152D01*
X158642857Y-77788152D02*
X158690476Y-77883390D01*
X158690476Y-77883390D02*
X158738095Y-77931009D01*
X158738095Y-77931009D02*
X158833333Y-77978628D01*
X158833333Y-77978628D02*
X159214285Y-77978628D01*
X157690476Y-78454819D02*
X158261904Y-78454819D01*
X157976190Y-78454819D02*
X157976190Y-77454819D01*
X157976190Y-77454819D02*
X158071428Y-77597676D01*
X158071428Y-77597676D02*
X158166666Y-77692914D01*
X158166666Y-77692914D02*
X158261904Y-77740533D01*
X156738095Y-78454819D02*
X157309523Y-78454819D01*
X157023809Y-78454819D02*
X157023809Y-77454819D01*
X157023809Y-77454819D02*
X157119047Y-77597676D01*
X157119047Y-77597676D02*
X157214285Y-77692914D01*
X157214285Y-77692914D02*
X157309523Y-77740533D01*
D11*
X179516428Y-89074318D02*
X179939762Y-88469556D01*
X180242143Y-89074318D02*
X180242143Y-87804318D01*
X180242143Y-87804318D02*
X179758333Y-87804318D01*
X179758333Y-87804318D02*
X179637381Y-87864794D01*
X179637381Y-87864794D02*
X179576904Y-87925270D01*
X179576904Y-87925270D02*
X179516428Y-88046222D01*
X179516428Y-88046222D02*
X179516428Y-88227651D01*
X179516428Y-88227651D02*
X179576904Y-88348603D01*
X179576904Y-88348603D02*
X179637381Y-88409080D01*
X179637381Y-88409080D02*
X179758333Y-88469556D01*
X179758333Y-88469556D02*
X180242143Y-88469556D01*
X178306904Y-89074318D02*
X179032619Y-89074318D01*
X178669762Y-89074318D02*
X178669762Y-87804318D01*
X178669762Y-87804318D02*
X178790714Y-87985746D01*
X178790714Y-87985746D02*
X178911666Y-88106699D01*
X178911666Y-88106699D02*
X179032619Y-88167175D01*
X177823095Y-87925270D02*
X177762619Y-87864794D01*
X177762619Y-87864794D02*
X177641666Y-87804318D01*
X177641666Y-87804318D02*
X177339285Y-87804318D01*
X177339285Y-87804318D02*
X177218333Y-87864794D01*
X177218333Y-87864794D02*
X177157857Y-87925270D01*
X177157857Y-87925270D02*
X177097380Y-88046222D01*
X177097380Y-88046222D02*
X177097380Y-88167175D01*
X177097380Y-88167175D02*
X177157857Y-88348603D01*
X177157857Y-88348603D02*
X177883571Y-89074318D01*
X177883571Y-89074318D02*
X177097380Y-89074318D01*
D10*
X135759580Y-57357142D02*
X135807200Y-57309523D01*
X135807200Y-57309523D02*
X135854819Y-57166666D01*
X135854819Y-57166666D02*
X135854819Y-57071428D01*
X135854819Y-57071428D02*
X135807200Y-56928571D01*
X135807200Y-56928571D02*
X135711961Y-56833333D01*
X135711961Y-56833333D02*
X135616723Y-56785714D01*
X135616723Y-56785714D02*
X135426247Y-56738095D01*
X135426247Y-56738095D02*
X135283390Y-56738095D01*
X135283390Y-56738095D02*
X135092914Y-56785714D01*
X135092914Y-56785714D02*
X134997676Y-56833333D01*
X134997676Y-56833333D02*
X134902438Y-56928571D01*
X134902438Y-56928571D02*
X134854819Y-57071428D01*
X134854819Y-57071428D02*
X134854819Y-57166666D01*
X134854819Y-57166666D02*
X134902438Y-57309523D01*
X134902438Y-57309523D02*
X134950057Y-57357142D01*
X135854819Y-58309523D02*
X135854819Y-57738095D01*
X135854819Y-58023809D02*
X134854819Y-58023809D01*
X134854819Y-58023809D02*
X134997676Y-57928571D01*
X134997676Y-57928571D02*
X135092914Y-57833333D01*
X135092914Y-57833333D02*
X135140533Y-57738095D01*
X135188152Y-59166666D02*
X135854819Y-59166666D01*
X134807200Y-58928571D02*
X135521485Y-58690476D01*
X135521485Y-58690476D02*
X135521485Y-59309523D01*
D11*
X179566428Y-69024318D02*
X179989762Y-68419556D01*
X180292143Y-69024318D02*
X180292143Y-67754318D01*
X180292143Y-67754318D02*
X179808333Y-67754318D01*
X179808333Y-67754318D02*
X179687381Y-67814794D01*
X179687381Y-67814794D02*
X179626904Y-67875270D01*
X179626904Y-67875270D02*
X179566428Y-67996222D01*
X179566428Y-67996222D02*
X179566428Y-68177651D01*
X179566428Y-68177651D02*
X179626904Y-68298603D01*
X179626904Y-68298603D02*
X179687381Y-68359080D01*
X179687381Y-68359080D02*
X179808333Y-68419556D01*
X179808333Y-68419556D02*
X180292143Y-68419556D01*
X178356904Y-69024318D02*
X179082619Y-69024318D01*
X178719762Y-69024318D02*
X178719762Y-67754318D01*
X178719762Y-67754318D02*
X178840714Y-67935746D01*
X178840714Y-67935746D02*
X178961666Y-68056699D01*
X178961666Y-68056699D02*
X179082619Y-68117175D01*
X177207857Y-67754318D02*
X177812619Y-67754318D01*
X177812619Y-67754318D02*
X177873095Y-68359080D01*
X177873095Y-68359080D02*
X177812619Y-68298603D01*
X177812619Y-68298603D02*
X177691666Y-68238127D01*
X177691666Y-68238127D02*
X177389285Y-68238127D01*
X177389285Y-68238127D02*
X177268333Y-68298603D01*
X177268333Y-68298603D02*
X177207857Y-68359080D01*
X177207857Y-68359080D02*
X177147380Y-68480032D01*
X177147380Y-68480032D02*
X177147380Y-68782413D01*
X177147380Y-68782413D02*
X177207857Y-68903365D01*
X177207857Y-68903365D02*
X177268333Y-68963842D01*
X177268333Y-68963842D02*
X177389285Y-69024318D01*
X177389285Y-69024318D02*
X177691666Y-69024318D01*
X177691666Y-69024318D02*
X177812619Y-68963842D01*
X177812619Y-68963842D02*
X177873095Y-68903365D01*
D10*
X179154819Y-97357142D02*
X178678628Y-97023809D01*
X179154819Y-96785714D02*
X178154819Y-96785714D01*
X178154819Y-96785714D02*
X178154819Y-97166666D01*
X178154819Y-97166666D02*
X178202438Y-97261904D01*
X178202438Y-97261904D02*
X178250057Y-97309523D01*
X178250057Y-97309523D02*
X178345295Y-97357142D01*
X178345295Y-97357142D02*
X178488152Y-97357142D01*
X178488152Y-97357142D02*
X178583390Y-97309523D01*
X178583390Y-97309523D02*
X178631009Y-97261904D01*
X178631009Y-97261904D02*
X178678628Y-97166666D01*
X178678628Y-97166666D02*
X178678628Y-96785714D01*
X178488152Y-98214285D02*
X179154819Y-98214285D01*
X178107200Y-97976190D02*
X178821485Y-97738095D01*
X178821485Y-97738095D02*
X178821485Y-98357142D01*
X178250057Y-98690476D02*
X178202438Y-98738095D01*
X178202438Y-98738095D02*
X178154819Y-98833333D01*
X178154819Y-98833333D02*
X178154819Y-99071428D01*
X178154819Y-99071428D02*
X178202438Y-99166666D01*
X178202438Y-99166666D02*
X178250057Y-99214285D01*
X178250057Y-99214285D02*
X178345295Y-99261904D01*
X178345295Y-99261904D02*
X178440533Y-99261904D01*
X178440533Y-99261904D02*
X178583390Y-99214285D01*
X178583390Y-99214285D02*
X179154819Y-98642857D01*
X179154819Y-98642857D02*
X179154819Y-99261904D01*
X181454819Y-76357142D02*
X180978628Y-76023809D01*
X181454819Y-75785714D02*
X180454819Y-75785714D01*
X180454819Y-75785714D02*
X180454819Y-76166666D01*
X180454819Y-76166666D02*
X180502438Y-76261904D01*
X180502438Y-76261904D02*
X180550057Y-76309523D01*
X180550057Y-76309523D02*
X180645295Y-76357142D01*
X180645295Y-76357142D02*
X180788152Y-76357142D01*
X180788152Y-76357142D02*
X180883390Y-76309523D01*
X180883390Y-76309523D02*
X180931009Y-76261904D01*
X180931009Y-76261904D02*
X180978628Y-76166666D01*
X180978628Y-76166666D02*
X180978628Y-75785714D01*
X180788152Y-77214285D02*
X181454819Y-77214285D01*
X180407200Y-76976190D02*
X181121485Y-76738095D01*
X181121485Y-76738095D02*
X181121485Y-77357142D01*
X180454819Y-78166666D02*
X180454819Y-77976190D01*
X180454819Y-77976190D02*
X180502438Y-77880952D01*
X180502438Y-77880952D02*
X180550057Y-77833333D01*
X180550057Y-77833333D02*
X180692914Y-77738095D01*
X180692914Y-77738095D02*
X180883390Y-77690476D01*
X180883390Y-77690476D02*
X181264342Y-77690476D01*
X181264342Y-77690476D02*
X181359580Y-77738095D01*
X181359580Y-77738095D02*
X181407200Y-77785714D01*
X181407200Y-77785714D02*
X181454819Y-77880952D01*
X181454819Y-77880952D02*
X181454819Y-78071428D01*
X181454819Y-78071428D02*
X181407200Y-78166666D01*
X181407200Y-78166666D02*
X181359580Y-78214285D01*
X181359580Y-78214285D02*
X181264342Y-78261904D01*
X181264342Y-78261904D02*
X181026247Y-78261904D01*
X181026247Y-78261904D02*
X180931009Y-78214285D01*
X180931009Y-78214285D02*
X180883390Y-78166666D01*
X180883390Y-78166666D02*
X180835771Y-78071428D01*
X180835771Y-78071428D02*
X180835771Y-77880952D01*
X180835771Y-77880952D02*
X180883390Y-77785714D01*
X180883390Y-77785714D02*
X180931009Y-77738095D01*
X180931009Y-77738095D02*
X181026247Y-77690476D01*
X136759580Y-99333333D02*
X136807200Y-99285714D01*
X136807200Y-99285714D02*
X136854819Y-99142857D01*
X136854819Y-99142857D02*
X136854819Y-99047619D01*
X136854819Y-99047619D02*
X136807200Y-98904762D01*
X136807200Y-98904762D02*
X136711961Y-98809524D01*
X136711961Y-98809524D02*
X136616723Y-98761905D01*
X136616723Y-98761905D02*
X136426247Y-98714286D01*
X136426247Y-98714286D02*
X136283390Y-98714286D01*
X136283390Y-98714286D02*
X136092914Y-98761905D01*
X136092914Y-98761905D02*
X135997676Y-98809524D01*
X135997676Y-98809524D02*
X135902438Y-98904762D01*
X135902438Y-98904762D02*
X135854819Y-99047619D01*
X135854819Y-99047619D02*
X135854819Y-99142857D01*
X135854819Y-99142857D02*
X135902438Y-99285714D01*
X135902438Y-99285714D02*
X135950057Y-99333333D01*
X135854819Y-100238095D02*
X135854819Y-99761905D01*
X135854819Y-99761905D02*
X136331009Y-99714286D01*
X136331009Y-99714286D02*
X136283390Y-99761905D01*
X136283390Y-99761905D02*
X136235771Y-99857143D01*
X136235771Y-99857143D02*
X136235771Y-100095238D01*
X136235771Y-100095238D02*
X136283390Y-100190476D01*
X136283390Y-100190476D02*
X136331009Y-100238095D01*
X136331009Y-100238095D02*
X136426247Y-100285714D01*
X136426247Y-100285714D02*
X136664342Y-100285714D01*
X136664342Y-100285714D02*
X136759580Y-100238095D01*
X136759580Y-100238095D02*
X136807200Y-100190476D01*
X136807200Y-100190476D02*
X136854819Y-100095238D01*
X136854819Y-100095238D02*
X136854819Y-99857143D01*
X136854819Y-99857143D02*
X136807200Y-99761905D01*
X136807200Y-99761905D02*
X136759580Y-99714286D01*
X152079580Y-97957142D02*
X152127200Y-97909523D01*
X152127200Y-97909523D02*
X152174819Y-97766666D01*
X152174819Y-97766666D02*
X152174819Y-97671428D01*
X152174819Y-97671428D02*
X152127200Y-97528571D01*
X152127200Y-97528571D02*
X152031961Y-97433333D01*
X152031961Y-97433333D02*
X151936723Y-97385714D01*
X151936723Y-97385714D02*
X151746247Y-97338095D01*
X151746247Y-97338095D02*
X151603390Y-97338095D01*
X151603390Y-97338095D02*
X151412914Y-97385714D01*
X151412914Y-97385714D02*
X151317676Y-97433333D01*
X151317676Y-97433333D02*
X151222438Y-97528571D01*
X151222438Y-97528571D02*
X151174819Y-97671428D01*
X151174819Y-97671428D02*
X151174819Y-97766666D01*
X151174819Y-97766666D02*
X151222438Y-97909523D01*
X151222438Y-97909523D02*
X151270057Y-97957142D01*
X152174819Y-98909523D02*
X152174819Y-98338095D01*
X152174819Y-98623809D02*
X151174819Y-98623809D01*
X151174819Y-98623809D02*
X151317676Y-98528571D01*
X151317676Y-98528571D02*
X151412914Y-98433333D01*
X151412914Y-98433333D02*
X151460533Y-98338095D01*
X151174819Y-99814285D02*
X151174819Y-99338095D01*
X151174819Y-99338095D02*
X151651009Y-99290476D01*
X151651009Y-99290476D02*
X151603390Y-99338095D01*
X151603390Y-99338095D02*
X151555771Y-99433333D01*
X151555771Y-99433333D02*
X151555771Y-99671428D01*
X151555771Y-99671428D02*
X151603390Y-99766666D01*
X151603390Y-99766666D02*
X151651009Y-99814285D01*
X151651009Y-99814285D02*
X151746247Y-99861904D01*
X151746247Y-99861904D02*
X151984342Y-99861904D01*
X151984342Y-99861904D02*
X152079580Y-99814285D01*
X152079580Y-99814285D02*
X152127200Y-99766666D01*
X152127200Y-99766666D02*
X152174819Y-99671428D01*
X152174819Y-99671428D02*
X152174819Y-99433333D01*
X152174819Y-99433333D02*
X152127200Y-99338095D01*
X152127200Y-99338095D02*
X152079580Y-99290476D01*
X155042857Y-85154819D02*
X155376190Y-84678628D01*
X155614285Y-85154819D02*
X155614285Y-84154819D01*
X155614285Y-84154819D02*
X155233333Y-84154819D01*
X155233333Y-84154819D02*
X155138095Y-84202438D01*
X155138095Y-84202438D02*
X155090476Y-84250057D01*
X155090476Y-84250057D02*
X155042857Y-84345295D01*
X155042857Y-84345295D02*
X155042857Y-84488152D01*
X155042857Y-84488152D02*
X155090476Y-84583390D01*
X155090476Y-84583390D02*
X155138095Y-84631009D01*
X155138095Y-84631009D02*
X155233333Y-84678628D01*
X155233333Y-84678628D02*
X155614285Y-84678628D01*
X154709523Y-84154819D02*
X154090476Y-84154819D01*
X154090476Y-84154819D02*
X154423809Y-84535771D01*
X154423809Y-84535771D02*
X154280952Y-84535771D01*
X154280952Y-84535771D02*
X154185714Y-84583390D01*
X154185714Y-84583390D02*
X154138095Y-84631009D01*
X154138095Y-84631009D02*
X154090476Y-84726247D01*
X154090476Y-84726247D02*
X154090476Y-84964342D01*
X154090476Y-84964342D02*
X154138095Y-85059580D01*
X154138095Y-85059580D02*
X154185714Y-85107200D01*
X154185714Y-85107200D02*
X154280952Y-85154819D01*
X154280952Y-85154819D02*
X154566666Y-85154819D01*
X154566666Y-85154819D02*
X154661904Y-85107200D01*
X154661904Y-85107200D02*
X154709523Y-85059580D01*
X153233333Y-84488152D02*
X153233333Y-85154819D01*
X153471428Y-84107200D02*
X153709523Y-84821485D01*
X153709523Y-84821485D02*
X153090476Y-84821485D01*
X176954819Y-79357142D02*
X176478628Y-79023809D01*
X176954819Y-78785714D02*
X175954819Y-78785714D01*
X175954819Y-78785714D02*
X175954819Y-79166666D01*
X175954819Y-79166666D02*
X176002438Y-79261904D01*
X176002438Y-79261904D02*
X176050057Y-79309523D01*
X176050057Y-79309523D02*
X176145295Y-79357142D01*
X176145295Y-79357142D02*
X176288152Y-79357142D01*
X176288152Y-79357142D02*
X176383390Y-79309523D01*
X176383390Y-79309523D02*
X176431009Y-79261904D01*
X176431009Y-79261904D02*
X176478628Y-79166666D01*
X176478628Y-79166666D02*
X176478628Y-78785714D01*
X176288152Y-80214285D02*
X176954819Y-80214285D01*
X175907200Y-79976190D02*
X176621485Y-79738095D01*
X176621485Y-79738095D02*
X176621485Y-80357142D01*
X176954819Y-81261904D02*
X176954819Y-80690476D01*
X176954819Y-80976190D02*
X175954819Y-80976190D01*
X175954819Y-80976190D02*
X176097676Y-80880952D01*
X176097676Y-80880952D02*
X176192914Y-80785714D01*
X176192914Y-80785714D02*
X176240533Y-80690476D01*
X130154819Y-101438095D02*
X130964342Y-101438095D01*
X130964342Y-101438095D02*
X131059580Y-101485714D01*
X131059580Y-101485714D02*
X131107200Y-101533333D01*
X131107200Y-101533333D02*
X131154819Y-101628571D01*
X131154819Y-101628571D02*
X131154819Y-101819047D01*
X131154819Y-101819047D02*
X131107200Y-101914285D01*
X131107200Y-101914285D02*
X131059580Y-101961904D01*
X131059580Y-101961904D02*
X130964342Y-102009523D01*
X130964342Y-102009523D02*
X130154819Y-102009523D01*
X130488152Y-102914285D02*
X131154819Y-102914285D01*
X130107200Y-102676190D02*
X130821485Y-102438095D01*
X130821485Y-102438095D02*
X130821485Y-103057142D01*
X158642857Y-76759580D02*
X158690476Y-76807200D01*
X158690476Y-76807200D02*
X158833333Y-76854819D01*
X158833333Y-76854819D02*
X158928571Y-76854819D01*
X158928571Y-76854819D02*
X159071428Y-76807200D01*
X159071428Y-76807200D02*
X159166666Y-76711961D01*
X159166666Y-76711961D02*
X159214285Y-76616723D01*
X159214285Y-76616723D02*
X159261904Y-76426247D01*
X159261904Y-76426247D02*
X159261904Y-76283390D01*
X159261904Y-76283390D02*
X159214285Y-76092914D01*
X159214285Y-76092914D02*
X159166666Y-75997676D01*
X159166666Y-75997676D02*
X159071428Y-75902438D01*
X159071428Y-75902438D02*
X158928571Y-75854819D01*
X158928571Y-75854819D02*
X158833333Y-75854819D01*
X158833333Y-75854819D02*
X158690476Y-75902438D01*
X158690476Y-75902438D02*
X158642857Y-75950057D01*
X158261904Y-75950057D02*
X158214285Y-75902438D01*
X158214285Y-75902438D02*
X158119047Y-75854819D01*
X158119047Y-75854819D02*
X157880952Y-75854819D01*
X157880952Y-75854819D02*
X157785714Y-75902438D01*
X157785714Y-75902438D02*
X157738095Y-75950057D01*
X157738095Y-75950057D02*
X157690476Y-76045295D01*
X157690476Y-76045295D02*
X157690476Y-76140533D01*
X157690476Y-76140533D02*
X157738095Y-76283390D01*
X157738095Y-76283390D02*
X158309523Y-76854819D01*
X158309523Y-76854819D02*
X157690476Y-76854819D01*
X157071428Y-75854819D02*
X156976190Y-75854819D01*
X156976190Y-75854819D02*
X156880952Y-75902438D01*
X156880952Y-75902438D02*
X156833333Y-75950057D01*
X156833333Y-75950057D02*
X156785714Y-76045295D01*
X156785714Y-76045295D02*
X156738095Y-76235771D01*
X156738095Y-76235771D02*
X156738095Y-76473866D01*
X156738095Y-76473866D02*
X156785714Y-76664342D01*
X156785714Y-76664342D02*
X156833333Y-76759580D01*
X156833333Y-76759580D02*
X156880952Y-76807200D01*
X156880952Y-76807200D02*
X156976190Y-76854819D01*
X156976190Y-76854819D02*
X157071428Y-76854819D01*
X157071428Y-76854819D02*
X157166666Y-76807200D01*
X157166666Y-76807200D02*
X157214285Y-76759580D01*
X157214285Y-76759580D02*
X157261904Y-76664342D01*
X157261904Y-76664342D02*
X157309523Y-76473866D01*
X157309523Y-76473866D02*
X157309523Y-76235771D01*
X157309523Y-76235771D02*
X157261904Y-76045295D01*
X157261904Y-76045295D02*
X157214285Y-75950057D01*
X157214285Y-75950057D02*
X157166666Y-75902438D01*
X157166666Y-75902438D02*
X157071428Y-75854819D01*
X134528094Y-88014819D02*
X134528094Y-87014819D01*
X134528094Y-87014819D02*
X134289999Y-87014819D01*
X134289999Y-87014819D02*
X134147142Y-87062438D01*
X134147142Y-87062438D02*
X134051904Y-87157676D01*
X134051904Y-87157676D02*
X134004285Y-87252914D01*
X134004285Y-87252914D02*
X133956666Y-87443390D01*
X133956666Y-87443390D02*
X133956666Y-87586247D01*
X133956666Y-87586247D02*
X134004285Y-87776723D01*
X134004285Y-87776723D02*
X134051904Y-87871961D01*
X134051904Y-87871961D02*
X134147142Y-87967200D01*
X134147142Y-87967200D02*
X134289999Y-88014819D01*
X134289999Y-88014819D02*
X134528094Y-88014819D01*
X133575713Y-87110057D02*
X133528094Y-87062438D01*
X133528094Y-87062438D02*
X133432856Y-87014819D01*
X133432856Y-87014819D02*
X133194761Y-87014819D01*
X133194761Y-87014819D02*
X133099523Y-87062438D01*
X133099523Y-87062438D02*
X133051904Y-87110057D01*
X133051904Y-87110057D02*
X133004285Y-87205295D01*
X133004285Y-87205295D02*
X133004285Y-87300533D01*
X133004285Y-87300533D02*
X133051904Y-87443390D01*
X133051904Y-87443390D02*
X133623332Y-88014819D01*
X133623332Y-88014819D02*
X133004285Y-88014819D01*
X134805357Y-72259580D02*
X134852976Y-72307200D01*
X134852976Y-72307200D02*
X134995833Y-72354819D01*
X134995833Y-72354819D02*
X135091071Y-72354819D01*
X135091071Y-72354819D02*
X135233928Y-72307200D01*
X135233928Y-72307200D02*
X135329166Y-72211961D01*
X135329166Y-72211961D02*
X135376785Y-72116723D01*
X135376785Y-72116723D02*
X135424404Y-71926247D01*
X135424404Y-71926247D02*
X135424404Y-71783390D01*
X135424404Y-71783390D02*
X135376785Y-71592914D01*
X135376785Y-71592914D02*
X135329166Y-71497676D01*
X135329166Y-71497676D02*
X135233928Y-71402438D01*
X135233928Y-71402438D02*
X135091071Y-71354819D01*
X135091071Y-71354819D02*
X134995833Y-71354819D01*
X134995833Y-71354819D02*
X134852976Y-71402438D01*
X134852976Y-71402438D02*
X134805357Y-71450057D01*
X133852976Y-72354819D02*
X134424404Y-72354819D01*
X134138690Y-72354819D02*
X134138690Y-71354819D01*
X134138690Y-71354819D02*
X134233928Y-71497676D01*
X134233928Y-71497676D02*
X134329166Y-71592914D01*
X134329166Y-71592914D02*
X134424404Y-71640533D01*
X132900595Y-72354819D02*
X133472023Y-72354819D01*
X133186309Y-72354819D02*
X133186309Y-71354819D01*
X133186309Y-71354819D02*
X133281547Y-71497676D01*
X133281547Y-71497676D02*
X133376785Y-71592914D01*
X133376785Y-71592914D02*
X133472023Y-71640533D01*
X138509819Y-98357142D02*
X138033628Y-98023809D01*
X138509819Y-97785714D02*
X137509819Y-97785714D01*
X137509819Y-97785714D02*
X137509819Y-98166666D01*
X137509819Y-98166666D02*
X137557438Y-98261904D01*
X137557438Y-98261904D02*
X137605057Y-98309523D01*
X137605057Y-98309523D02*
X137700295Y-98357142D01*
X137700295Y-98357142D02*
X137843152Y-98357142D01*
X137843152Y-98357142D02*
X137938390Y-98309523D01*
X137938390Y-98309523D02*
X137986009Y-98261904D01*
X137986009Y-98261904D02*
X138033628Y-98166666D01*
X138033628Y-98166666D02*
X138033628Y-97785714D01*
X137605057Y-98738095D02*
X137557438Y-98785714D01*
X137557438Y-98785714D02*
X137509819Y-98880952D01*
X137509819Y-98880952D02*
X137509819Y-99119047D01*
X137509819Y-99119047D02*
X137557438Y-99214285D01*
X137557438Y-99214285D02*
X137605057Y-99261904D01*
X137605057Y-99261904D02*
X137700295Y-99309523D01*
X137700295Y-99309523D02*
X137795533Y-99309523D01*
X137795533Y-99309523D02*
X137938390Y-99261904D01*
X137938390Y-99261904D02*
X138509819Y-98690476D01*
X138509819Y-98690476D02*
X138509819Y-99309523D01*
X137509819Y-100214285D02*
X137509819Y-99738095D01*
X137509819Y-99738095D02*
X137986009Y-99690476D01*
X137986009Y-99690476D02*
X137938390Y-99738095D01*
X137938390Y-99738095D02*
X137890771Y-99833333D01*
X137890771Y-99833333D02*
X137890771Y-100071428D01*
X137890771Y-100071428D02*
X137938390Y-100166666D01*
X137938390Y-100166666D02*
X137986009Y-100214285D01*
X137986009Y-100214285D02*
X138081247Y-100261904D01*
X138081247Y-100261904D02*
X138319342Y-100261904D01*
X138319342Y-100261904D02*
X138414580Y-100214285D01*
X138414580Y-100214285D02*
X138462200Y-100166666D01*
X138462200Y-100166666D02*
X138509819Y-100071428D01*
X138509819Y-100071428D02*
X138509819Y-99833333D01*
X138509819Y-99833333D02*
X138462200Y-99738095D01*
X138462200Y-99738095D02*
X138414580Y-99690476D01*
X128242857Y-72259580D02*
X128290476Y-72307200D01*
X128290476Y-72307200D02*
X128433333Y-72354819D01*
X128433333Y-72354819D02*
X128528571Y-72354819D01*
X128528571Y-72354819D02*
X128671428Y-72307200D01*
X128671428Y-72307200D02*
X128766666Y-72211961D01*
X128766666Y-72211961D02*
X128814285Y-72116723D01*
X128814285Y-72116723D02*
X128861904Y-71926247D01*
X128861904Y-71926247D02*
X128861904Y-71783390D01*
X128861904Y-71783390D02*
X128814285Y-71592914D01*
X128814285Y-71592914D02*
X128766666Y-71497676D01*
X128766666Y-71497676D02*
X128671428Y-71402438D01*
X128671428Y-71402438D02*
X128528571Y-71354819D01*
X128528571Y-71354819D02*
X128433333Y-71354819D01*
X128433333Y-71354819D02*
X128290476Y-71402438D01*
X128290476Y-71402438D02*
X128242857Y-71450057D01*
X127290476Y-72354819D02*
X127861904Y-72354819D01*
X127576190Y-72354819D02*
X127576190Y-71354819D01*
X127576190Y-71354819D02*
X127671428Y-71497676D01*
X127671428Y-71497676D02*
X127766666Y-71592914D01*
X127766666Y-71592914D02*
X127861904Y-71640533D01*
X126671428Y-71354819D02*
X126576190Y-71354819D01*
X126576190Y-71354819D02*
X126480952Y-71402438D01*
X126480952Y-71402438D02*
X126433333Y-71450057D01*
X126433333Y-71450057D02*
X126385714Y-71545295D01*
X126385714Y-71545295D02*
X126338095Y-71735771D01*
X126338095Y-71735771D02*
X126338095Y-71973866D01*
X126338095Y-71973866D02*
X126385714Y-72164342D01*
X126385714Y-72164342D02*
X126433333Y-72259580D01*
X126433333Y-72259580D02*
X126480952Y-72307200D01*
X126480952Y-72307200D02*
X126576190Y-72354819D01*
X126576190Y-72354819D02*
X126671428Y-72354819D01*
X126671428Y-72354819D02*
X126766666Y-72307200D01*
X126766666Y-72307200D02*
X126814285Y-72259580D01*
X126814285Y-72259580D02*
X126861904Y-72164342D01*
X126861904Y-72164342D02*
X126909523Y-71973866D01*
X126909523Y-71973866D02*
X126909523Y-71735771D01*
X126909523Y-71735771D02*
X126861904Y-71545295D01*
X126861904Y-71545295D02*
X126814285Y-71450057D01*
X126814285Y-71450057D02*
X126766666Y-71402438D01*
X126766666Y-71402438D02*
X126671428Y-71354819D01*
D12*
%TO.C,C16*%
X169086233Y-90740000D02*
X169378767Y-90740000D01*
X169086233Y-91760000D02*
X169378767Y-91760000D01*
%TO.C,C7*%
X141090000Y-53653733D02*
X141090000Y-53946267D01*
X142110000Y-53653733D02*
X142110000Y-53946267D01*
%TO.C,C4*%
X128953733Y-76690000D02*
X129246267Y-76690000D01*
X128953733Y-77710000D02*
X129246267Y-77710000D01*
%TO.C,C2*%
X128966233Y-79690000D02*
X129258767Y-79690000D01*
X128966233Y-80710000D02*
X129258767Y-80710000D01*
%TO.C,C6*%
X134053733Y-67890000D02*
X134346267Y-67890000D01*
X134053733Y-68910000D02*
X134346267Y-68910000D01*
%TO.C,R19*%
X169487224Y-89227500D02*
X168977776Y-89227500D01*
X169487224Y-90272500D02*
X168977776Y-90272500D01*
%TO.C,C17*%
X169086233Y-70740000D02*
X169378767Y-70740000D01*
X169086233Y-71760000D02*
X169378767Y-71760000D01*
%TO.C,R24*%
X138977500Y-102467224D02*
X138977500Y-101957776D01*
X140022500Y-102467224D02*
X140022500Y-101957776D01*
%TO.C,C1*%
X129003733Y-81240000D02*
X129296267Y-81240000D01*
X129003733Y-82260000D02*
X129296267Y-82260000D01*
%TO.C,R22*%
X142577500Y-102467224D02*
X142577500Y-101957776D01*
X143622500Y-102467224D02*
X143622500Y-101957776D01*
%TO.C,R44*%
X177020000Y-56822936D02*
X177020000Y-61177064D01*
X180440000Y-56822936D02*
X180440000Y-61177064D01*
%TO.C,R32*%
X151454724Y-82577500D02*
X150945276Y-82577500D01*
X151454724Y-83622500D02*
X150945276Y-83622500D01*
%TO.C,R3*%
X129854724Y-84977500D02*
X129345276Y-84977500D01*
X129854724Y-86022500D02*
X129345276Y-86022500D01*
%TO.C,C8*%
X132853733Y-99190000D02*
X133146267Y-99190000D01*
X132853733Y-100210000D02*
X133146267Y-100210000D01*
%TO.C,R23*%
X140490000Y-102467224D02*
X140490000Y-101957776D01*
X141535000Y-102467224D02*
X141535000Y-101957776D01*
%TO.C,C9*%
X127683767Y-67890000D02*
X127391233Y-67890000D01*
X127683767Y-68910000D02*
X127391233Y-68910000D01*
%TO.C,C3*%
X128953733Y-78190000D02*
X129246267Y-78190000D01*
X128953733Y-79210000D02*
X129246267Y-79210000D01*
%TO.C,R10*%
X133177500Y-55092224D02*
X133177500Y-54582776D01*
X134222500Y-55092224D02*
X134222500Y-54582776D01*
%TO.C,R18*%
X169487224Y-69227500D02*
X168977776Y-69227500D01*
X169487224Y-70272500D02*
X168977776Y-70272500D01*
%TO.C,C12*%
X130390000Y-70753733D02*
X130390000Y-71046267D01*
X131410000Y-70753733D02*
X131410000Y-71046267D01*
%TO.C,C23*%
X139190000Y-66391233D02*
X139190000Y-66683767D01*
X140210000Y-66391233D02*
X140210000Y-66683767D01*
%TO.C,R20*%
X145577500Y-102467224D02*
X145577500Y-101957776D01*
X146622500Y-102467224D02*
X146622500Y-101957776D01*
%TO.C,R21*%
X144077500Y-102467224D02*
X144077500Y-101957776D01*
X145122500Y-102467224D02*
X145122500Y-101957776D01*
%TO.C,R11*%
X160945276Y-77477500D02*
X161454724Y-77477500D01*
X160945276Y-78522500D02*
X161454724Y-78522500D01*
%TO.C,C14*%
X134890000Y-54983767D02*
X134890000Y-54691233D01*
X135910000Y-54983767D02*
X135910000Y-54691233D01*
%TO.C,R42*%
X176990000Y-100177064D02*
X176990000Y-95822936D01*
X180410000Y-100177064D02*
X180410000Y-95822936D01*
%TO.C,R46*%
X179290000Y-79177064D02*
X179290000Y-74822936D01*
X182710000Y-79177064D02*
X182710000Y-74822936D01*
%TO.C,C5*%
X135890000Y-102346267D02*
X135890000Y-102053733D01*
X136910000Y-102346267D02*
X136910000Y-102053733D01*
%TO.C,C15*%
X151210000Y-101946267D02*
X151210000Y-101653733D01*
X152230000Y-101946267D02*
X152230000Y-101653733D01*
%TO.C,R34*%
X150945276Y-84177500D02*
X151454724Y-84177500D01*
X150945276Y-85222500D02*
X151454724Y-85222500D01*
%TO.C,R41*%
X174790000Y-77822936D02*
X174790000Y-82177064D01*
X178210000Y-77822936D02*
X178210000Y-82177064D01*
%TO.C,U4*%
X132490000Y-100640000D02*
X132490000Y-100690000D01*
X132490000Y-103710000D02*
X132490000Y-103760000D01*
X132490000Y-103760000D02*
X134310000Y-103760000D01*
X134310000Y-100640000D02*
X132490000Y-100640000D01*
X134310000Y-100690000D02*
X134310000Y-100640000D01*
X134310000Y-102590000D02*
X134310000Y-101810000D01*
X134310000Y-103760000D02*
X134310000Y-103710000D01*
X132190000Y-104040000D02*
X131710000Y-104040000D01*
X131950000Y-103710000D01*
X132190000Y-104040000D01*
G36*
X132190000Y-104040000D02*
G01*
X131710000Y-104040000D01*
X131950000Y-103710000D01*
X132190000Y-104040000D01*
G37*
%TO.C,C20*%
X161053733Y-75890000D02*
X161346267Y-75890000D01*
X161053733Y-76910000D02*
X161346267Y-76910000D01*
%TO.C,D2*%
X132660000Y-86500000D02*
X128650000Y-86500000D01*
X132660000Y-86500000D02*
X132660000Y-88500000D01*
X132660000Y-88500000D02*
X128650000Y-88500000D01*
%TO.C,C11*%
X134016233Y-72890000D02*
X134308767Y-72890000D01*
X134016233Y-73910000D02*
X134308767Y-73910000D01*
%TO.C,R25*%
X137475000Y-102467224D02*
X137475000Y-101957776D01*
X138520000Y-102467224D02*
X138520000Y-101957776D01*
%TO.C,C10*%
X127746267Y-72890000D02*
X127453733Y-72890000D01*
X127746267Y-73910000D02*
X127453733Y-73910000D01*
%TD*%
M02*
