%TF.GenerationSoftware,KiCad,Pcbnew,9.0.7*%
%TF.CreationDate,2026-03-17T16:13:23+01:00*%
%TF.ProjectId,power_logger,706f7765-725f-46c6-9f67-6765722e6b69,rev?*%
%TF.SameCoordinates,Original*%
%TF.FileFunction,Paste,Bot*%
%TF.FilePolarity,Positive*%
%FSLAX46Y46*%
G04 Gerber Fmt 4.6, Leading zero omitted, Abs format (unit mm)*
G04 Created by KiCad (PCBNEW 9.0.7) date 2026-03-17 16:13:23*
%MOMM*%
%LPD*%
G01*
G04 APERTURE LIST*
G04 Aperture macros list*
%AMRoundRect*
0 Rectangle with rounded corners*
0 $1 Rounding radius*
0 $2 $3 $4 $5 $6 $7 $8 $9 X,Y pos of 4 corners*
0 Add a 4 corners polygon primitive as box body*
4,1,4,$2,$3,$4,$5,$6,$7,$8,$9,$2,$3,0*
0 Add four circle primitives for the rounded corners*
1,1,$1+$1,$2,$3*
1,1,$1+$1,$4,$5*
1,1,$1+$1,$6,$7*
1,1,$1+$1,$8,$9*
0 Add four rect primitives between the rounded corners*
20,1,$1+$1,$2,$3,$4,$5,0*
20,1,$1+$1,$4,$5,$6,$7,0*
20,1,$1+$1,$6,$7,$8,$9,0*
20,1,$1+$1,$8,$9,$2,$3,0*%
G04 Aperture macros list end*
%ADD10RoundRect,0.237500X-0.300000X-0.237500X0.300000X-0.237500X0.300000X0.237500X-0.300000X0.237500X0*%
%ADD11RoundRect,0.237500X-0.237500X0.300000X-0.237500X-0.300000X0.237500X-0.300000X0.237500X0.300000X0*%
%ADD12RoundRect,0.237500X0.250000X0.237500X-0.250000X0.237500X-0.250000X-0.237500X0.250000X-0.237500X0*%
%ADD13RoundRect,0.237500X0.237500X-0.250000X0.237500X0.250000X-0.237500X0.250000X-0.237500X-0.250000X0*%
%ADD14RoundRect,0.249999X-1.425001X0.450001X-1.425001X-0.450001X1.425001X-0.450001X1.425001X0.450001X0*%
%ADD15RoundRect,0.237500X0.300000X0.237500X-0.300000X0.237500X-0.300000X-0.237500X0.300000X-0.237500X0*%
%ADD16RoundRect,0.237500X-0.250000X-0.237500X0.250000X-0.237500X0.250000X0.237500X-0.250000X0.237500X0*%
%ADD17R,7.450000X1.850000*%
%ADD18RoundRect,0.237500X0.237500X-0.300000X0.237500X0.300000X-0.237500X0.300000X-0.237500X-0.300000X0*%
%ADD19RoundRect,0.249999X1.425001X-0.450001X1.425001X0.450001X-1.425001X0.450001X-1.425001X-0.450001X0*%
%ADD20RoundRect,0.150000X-0.512500X-0.150000X0.512500X-0.150000X0.512500X0.150000X-0.512500X0.150000X0*%
%ADD21RoundRect,0.225000X0.225000X0.375000X-0.225000X0.375000X-0.225000X-0.375000X0.225000X-0.375000X0*%
G04 APERTURE END LIST*
D10*
%TO.C,C16*%
X168370000Y-91250000D03*
X170095000Y-91250000D03*
%TD*%
D11*
%TO.C,C7*%
X141600000Y-52937500D03*
X141600000Y-54662500D03*
%TD*%
D10*
%TO.C,C4*%
X128237500Y-77200000D03*
X129962500Y-77200000D03*
%TD*%
%TO.C,C2*%
X128250000Y-80200000D03*
X129975000Y-80200000D03*
%TD*%
%TO.C,C6*%
X133337500Y-68400000D03*
X135062500Y-68400000D03*
%TD*%
D12*
%TO.C,R19*%
X170145000Y-89750000D03*
X168320000Y-89750000D03*
%TD*%
D10*
%TO.C,C17*%
X168370000Y-71250000D03*
X170095000Y-71250000D03*
%TD*%
D13*
%TO.C,R24*%
X139500000Y-103125000D03*
X139500000Y-101300000D03*
%TD*%
D10*
%TO.C,C1*%
X128287500Y-81750000D03*
X130012500Y-81750000D03*
%TD*%
D13*
%TO.C,R22*%
X143100000Y-103125000D03*
X143100000Y-101300000D03*
%TD*%
D14*
%TO.C,R44*%
X178730000Y-55950000D03*
X178730000Y-62050000D03*
%TD*%
D12*
%TO.C,R32*%
X152112500Y-83100000D03*
X150287500Y-83100000D03*
%TD*%
%TO.C,R3*%
X130512500Y-85500000D03*
X128687500Y-85500000D03*
%TD*%
D10*
%TO.C,C8*%
X132137500Y-99700000D03*
X133862500Y-99700000D03*
%TD*%
D13*
%TO.C,R23*%
X141012500Y-103125000D03*
X141012500Y-101300000D03*
%TD*%
D15*
%TO.C,C9*%
X128400000Y-68400000D03*
X126675000Y-68400000D03*
%TD*%
D10*
%TO.C,C3*%
X128237500Y-78700000D03*
X129962500Y-78700000D03*
%TD*%
D13*
%TO.C,R10*%
X133700000Y-55750000D03*
X133700000Y-53925000D03*
%TD*%
D12*
%TO.C,R18*%
X170145000Y-69750000D03*
X168320000Y-69750000D03*
%TD*%
D11*
%TO.C,C12*%
X130900000Y-70037500D03*
X130900000Y-71762500D03*
%TD*%
%TO.C,C23*%
X139700000Y-65675000D03*
X139700000Y-67400000D03*
%TD*%
D13*
%TO.C,R20*%
X146100000Y-103125000D03*
X146100000Y-101300000D03*
%TD*%
%TO.C,R21*%
X144600000Y-103125000D03*
X144600000Y-101300000D03*
%TD*%
D16*
%TO.C,R11*%
X160287500Y-78000000D03*
X162112500Y-78000000D03*
%TD*%
D17*
%TO.C,R12*%
X178700000Y-91400000D03*
X178700000Y-85600000D03*
%TD*%
D18*
%TO.C,C14*%
X135400000Y-55700000D03*
X135400000Y-53975000D03*
%TD*%
D17*
%TO.C,R15*%
X178750000Y-71350000D03*
X178750000Y-65550000D03*
%TD*%
D19*
%TO.C,R42*%
X178700000Y-101050000D03*
X178700000Y-94950000D03*
%TD*%
%TO.C,R46*%
X181000000Y-80050000D03*
X181000000Y-73950000D03*
%TD*%
D18*
%TO.C,C5*%
X136400000Y-103062500D03*
X136400000Y-101337500D03*
%TD*%
%TO.C,C15*%
X151720000Y-102662500D03*
X151720000Y-100937500D03*
%TD*%
D16*
%TO.C,R34*%
X150287500Y-84700000D03*
X152112500Y-84700000D03*
%TD*%
D14*
%TO.C,R41*%
X176500000Y-76950000D03*
X176500000Y-83050000D03*
%TD*%
D20*
%TO.C,U4*%
X132262500Y-103150000D03*
X132262500Y-102200000D03*
X132262500Y-101250000D03*
X134537500Y-101250000D03*
X134537500Y-103150000D03*
%TD*%
D10*
%TO.C,C20*%
X160337500Y-76400000D03*
X162062500Y-76400000D03*
%TD*%
D21*
%TO.C,D2*%
X131950000Y-87500000D03*
X128650000Y-87500000D03*
%TD*%
D10*
%TO.C,C11*%
X133300000Y-73400000D03*
X135025000Y-73400000D03*
%TD*%
D13*
%TO.C,R25*%
X137997500Y-103125000D03*
X137997500Y-101300000D03*
%TD*%
D15*
%TO.C,C10*%
X128462500Y-73400000D03*
X126737500Y-73400000D03*
%TD*%
M02*
