%TF.GenerationSoftware,KiCad,Pcbnew,9.0.7*%
%TF.CreationDate,2026-03-17T16:13:23+01:00*%
%TF.ProjectId,power_logger,706f7765-725f-46c6-9f67-6765722e6b69,rev?*%
%TF.SameCoordinates,Original*%
%TF.FileFunction,Soldermask,Top*%
%TF.FilePolarity,Negative*%
%FSLAX46Y46*%
G04 Gerber Fmt 4.6, Leading zero omitted, Abs format (unit mm)*
G04 Created by KiCad (PCBNEW 9.0.7) date 2026-03-17 16:13:23*
%MOMM*%
%LPD*%
G01*
G04 APERTURE LIST*
G04 Aperture macros list*
%AMRoundRect*
0 Rectangle with rounded corners*
0 $1 Rounding radius*
0 $2 $3 $4 $5 $6 $7 $8 $9 X,Y pos of 4 corners*
0 Add a 4 corners polygon primitive as box body*
4,1,4,$2,$3,$4,$5,$6,$7,$8,$9,$2,$3,0*
0 Add four circle primitives for the rounded corners*
1,1,$1+$1,$2,$3*
1,1,$1+$1,$4,$5*
1,1,$1+$1,$6,$7*
1,1,$1+$1,$8,$9*
0 Add four rect primitives between the rounded corners*
20,1,$1+$1,$2,$3,$4,$5,0*
20,1,$1+$1,$4,$5,$6,$7,0*
20,1,$1+$1,$6,$7,$8,$9,0*
20,1,$1+$1,$8,$9,$2,$3,0*%
%AMFreePoly0*
4,1,23,0.550000,-0.750000,0.000000,-0.750000,0.000000,-0.745722,-0.065263,-0.745722,-0.191342,-0.711940,-0.304381,-0.646677,-0.396677,-0.554381,-0.461940,-0.441342,-0.495722,-0.315263,-0.495722,-0.250000,-0.500000,-0.250000,-0.500000,0.250000,-0.495722,0.250000,-0.495722,0.315263,-0.461940,0.441342,-0.396677,0.554381,-0.304381,0.646677,-0.191342,0.711940,-0.065263,0.745722,0.000000,0.745722,
0.000000,0.750000,0.550000,0.750000,0.550000,-0.750000,0.550000,-0.750000,$1*%
%AMFreePoly1*
4,1,23,0.000000,0.745722,0.065263,0.745722,0.191342,0.711940,0.304381,0.646677,0.396677,0.554381,0.461940,0.441342,0.495722,0.315263,0.495722,0.250000,0.500000,0.250000,0.500000,-0.250000,0.495722,-0.250000,0.495722,-0.315263,0.461940,-0.441342,0.396677,-0.554381,0.304381,-0.646677,0.191342,-0.711940,0.065263,-0.745722,0.000000,-0.745722,0.000000,-0.750000,-0.550000,-0.750000,
-0.550000,0.750000,0.000000,0.750000,0.000000,0.745722,0.000000,0.745722,$1*%
G04 Aperture macros list end*
%ADD10RoundRect,0.237500X0.250000X0.237500X-0.250000X0.237500X-0.250000X-0.237500X0.250000X-0.237500X0*%
%ADD11RoundRect,0.237500X-0.250000X-0.237500X0.250000X-0.237500X0.250000X0.237500X-0.250000X0.237500X0*%
%ADD12RoundRect,0.237500X0.237500X-0.300000X0.237500X0.300000X-0.237500X0.300000X-0.237500X-0.300000X0*%
%ADD13RoundRect,0.237500X0.237500X-0.250000X0.237500X0.250000X-0.237500X0.250000X-0.237500X-0.250000X0*%
%ADD14RoundRect,0.237500X-0.237500X0.300000X-0.237500X-0.300000X0.237500X-0.300000X0.237500X0.300000X0*%
%ADD15RoundRect,0.250000X-0.350000X-0.625000X0.350000X-0.625000X0.350000X0.625000X-0.350000X0.625000X0*%
%ADD16O,1.200000X1.750000*%
%ADD17RoundRect,0.250000X0.350000X0.625000X-0.350000X0.625000X-0.350000X-0.625000X0.350000X-0.625000X0*%
%ADD18RoundRect,0.237500X0.300000X0.237500X-0.300000X0.237500X-0.300000X-0.237500X0.300000X-0.237500X0*%
%ADD19RoundRect,0.250000X-0.625000X0.350000X-0.625000X-0.350000X0.625000X-0.350000X0.625000X0.350000X0*%
%ADD20O,1.750000X1.200000*%
%ADD21RoundRect,0.150000X-0.512500X-0.150000X0.512500X-0.150000X0.512500X0.150000X-0.512500X0.150000X0*%
%ADD22C,0.650000*%
%ADD23R,1.240000X0.600000*%
%ADD24R,1.240000X0.300000*%
%ADD25O,2.100000X1.000000*%
%ADD26O,1.800000X1.000000*%
%ADD27RoundRect,0.250001X-1.149999X1.149999X-1.149999X-1.149999X1.149999X-1.149999X1.149999X1.149999X0*%
%ADD28C,2.800000*%
%ADD29R,1.100000X1.800000*%
%ADD30FreePoly0,0.000000*%
%ADD31R,1.000000X1.500000*%
%ADD32FreePoly1,0.000000*%
%ADD33RoundRect,0.249999X-1.425001X0.450001X-1.425001X-0.450001X1.425001X-0.450001X1.425001X0.450001X0*%
%ADD34RoundRect,0.150000X-0.825000X-0.150000X0.825000X-0.150000X0.825000X0.150000X-0.825000X0.150000X0*%
%ADD35R,7.450000X1.850000*%
%ADD36RoundRect,0.150000X0.150000X-0.512500X0.150000X0.512500X-0.150000X0.512500X-0.150000X-0.512500X0*%
%ADD37RoundRect,0.075000X-0.650000X-0.075000X0.650000X-0.075000X0.650000X0.075000X-0.650000X0.075000X0*%
%ADD38C,3.200000*%
%ADD39R,0.850000X1.600000*%
%ADD40R,0.750000X1.600000*%
%ADD41R,1.610000X1.000000*%
%ADD42R,1.550000X1.850000*%
%ADD43R,1.900000X1.550000*%
%ADD44R,1.170000X2.300000*%
%ADD45RoundRect,0.237500X0.287500X0.237500X-0.287500X0.237500X-0.287500X-0.237500X0.287500X-0.237500X0*%
%ADD46RoundRect,0.237500X-0.237500X0.250000X-0.237500X-0.250000X0.237500X-0.250000X0.237500X0.250000X0*%
%ADD47RoundRect,0.250000X0.625000X-0.350000X0.625000X0.350000X-0.625000X0.350000X-0.625000X-0.350000X0*%
%ADD48R,1.500000X0.900000*%
%ADD49R,0.900000X1.500000*%
%ADD50C,0.600000*%
%ADD51R,3.900000X3.900000*%
%ADD52RoundRect,0.249999X1.425001X-0.450001X1.425001X0.450001X-1.425001X0.450001X-1.425001X-0.450001X0*%
%ADD53RoundRect,0.237500X-0.287500X-0.237500X0.287500X-0.237500X0.287500X0.237500X-0.287500X0.237500X0*%
%ADD54RoundRect,0.150000X-0.150000X0.825000X-0.150000X-0.825000X0.150000X-0.825000X0.150000X0.825000X0*%
%ADD55R,1.800000X1.100000*%
%ADD56RoundRect,0.162500X-0.837500X-0.162500X0.837500X-0.162500X0.837500X0.162500X-0.837500X0.162500X0*%
G04 APERTURE END LIST*
%TO.C,JP1*%
G36*
X167182500Y-84000000D02*
G01*
X168682500Y-84000000D01*
X168682500Y-85500000D01*
X167182500Y-85500000D01*
X167182500Y-84000000D01*
G37*
%TO.C,JP2*%
G36*
X169450000Y-60950000D02*
G01*
X170950000Y-60950000D01*
X170950000Y-62450000D01*
X169450000Y-62450000D01*
X169450000Y-60950000D01*
G37*
%TD*%
D10*
%TO.C,R13*%
X173745000Y-85550000D03*
X171920000Y-85550000D03*
%TD*%
D11*
%TO.C,R2*%
X126087500Y-100200000D03*
X127912500Y-100200000D03*
%TD*%
D12*
%TO.C,C21*%
X126450000Y-57762500D03*
X126450000Y-56037500D03*
%TD*%
D13*
%TO.C,R37*%
X127950000Y-57812500D03*
X127950000Y-55987500D03*
%TD*%
D14*
%TO.C,C19*%
X171932500Y-67587500D03*
X171932500Y-69312500D03*
%TD*%
D15*
%TO.C,J9*%
X152300000Y-93900000D03*
D16*
X154300000Y-93900000D03*
X156300000Y-93900000D03*
X158300000Y-93900000D03*
%TD*%
D17*
%TO.C,J1*%
X154400000Y-80600000D03*
D16*
X152400000Y-80600000D03*
%TD*%
D18*
%TO.C,C22*%
X133775000Y-107600000D03*
X132050000Y-107600000D03*
%TD*%
D19*
%TO.C,TH1*%
X121100000Y-59250000D03*
D20*
X121100000Y-61250000D03*
%TD*%
D21*
%TO.C,U3*%
X125862500Y-101950000D03*
X125862500Y-102900000D03*
X125862500Y-103850000D03*
X128137500Y-103850000D03*
X128137500Y-101950000D03*
%TD*%
D11*
%TO.C,R9*%
X152487500Y-76400000D03*
X154312500Y-76400000D03*
%TD*%
D22*
%TO.C,J10*%
X124580000Y-87930000D03*
X124580000Y-93710000D03*
D23*
X125700000Y-87620000D03*
X125700000Y-88420000D03*
D24*
X125700000Y-89570000D03*
X125700000Y-90570000D03*
X125700000Y-91070000D03*
X125700000Y-92070000D03*
D23*
X125700000Y-93220000D03*
X125700000Y-94020000D03*
X125700000Y-94020000D03*
X125700000Y-93220000D03*
D24*
X125700000Y-92570000D03*
X125700000Y-91570000D03*
X125700000Y-90070000D03*
X125700000Y-89070000D03*
D23*
X125700000Y-88420000D03*
X125700000Y-87620000D03*
D25*
X125100000Y-86500000D03*
D26*
X120900000Y-86500000D03*
D25*
X125100000Y-95140000D03*
D26*
X120900000Y-95140000D03*
%TD*%
D11*
%TO.C,R26*%
X131987500Y-109700000D03*
X133812500Y-109700000D03*
%TD*%
%TO.C,R30*%
X128387500Y-89970000D03*
X130212500Y-89970000D03*
%TD*%
D27*
%TO.C,J4*%
X188032500Y-63450000D03*
D28*
X188032500Y-68450000D03*
X188032500Y-73450000D03*
X188032500Y-78450000D03*
X188032500Y-83450000D03*
X188032500Y-88450000D03*
X188032500Y-93450000D03*
X188032500Y-98450000D03*
%TD*%
D19*
%TO.C,TH4*%
X121100000Y-80550000D03*
D20*
X121100000Y-82550000D03*
%TD*%
D29*
%TO.C,SW2*%
X163050000Y-74100000D03*
X163050000Y-80300000D03*
X159350000Y-74100000D03*
X159350000Y-80300000D03*
%TD*%
D10*
%TO.C,R4*%
X134512500Y-66400000D03*
X132687500Y-66400000D03*
%TD*%
D19*
%TO.C,TH2*%
X121100000Y-66350000D03*
D20*
X121100000Y-68350000D03*
%TD*%
D15*
%TO.C,J14*%
X137300000Y-93900000D03*
D16*
X139300000Y-93900000D03*
X141300000Y-93900000D03*
X143300000Y-93900000D03*
X145300000Y-93900000D03*
X147300000Y-93900000D03*
%TD*%
D19*
%TO.C,TH3*%
X121100000Y-73450000D03*
D20*
X121100000Y-75450000D03*
%TD*%
D11*
%TO.C,R31*%
X128375000Y-91570000D03*
X130200000Y-91570000D03*
%TD*%
D15*
%TO.C,J7*%
X151170000Y-108050000D03*
D16*
X153170000Y-108050000D03*
%TD*%
D30*
%TO.C,JP1*%
X166632500Y-84750000D03*
D31*
X167932500Y-84750000D03*
D32*
X169232500Y-84750000D03*
%TD*%
D17*
%TO.C,J13*%
X168932500Y-80000000D03*
D16*
X166932500Y-80000000D03*
%TD*%
D33*
%TO.C,R47*%
X181000000Y-76950000D03*
X181000000Y-83050000D03*
%TD*%
%TO.C,R45*%
X178732500Y-55950000D03*
X178732500Y-62050000D03*
%TD*%
D34*
%TO.C,U2*%
X149795000Y-99645000D03*
X149795000Y-100915000D03*
X149795000Y-102185000D03*
X149795000Y-103455000D03*
X154745000Y-103455000D03*
X154745000Y-102185000D03*
X154745000Y-100915000D03*
X154745000Y-99645000D03*
%TD*%
D17*
%TO.C,SW1*%
X136000000Y-80300000D03*
D16*
X134000000Y-80300000D03*
%TD*%
D35*
%TO.C,R35*%
X178732500Y-71350000D03*
X178732500Y-65550000D03*
%TD*%
D13*
%TO.C,R38*%
X129450000Y-57812500D03*
X129450000Y-55987500D03*
%TD*%
D36*
%TO.C,U5*%
X128200000Y-79700000D03*
X129150000Y-79700000D03*
X130100000Y-79700000D03*
X130100000Y-77425000D03*
X128200000Y-77425000D03*
%TD*%
D10*
%TO.C,R28*%
X130212500Y-88400000D03*
X128387500Y-88400000D03*
%TD*%
%TO.C,R33*%
X133812500Y-106000000D03*
X131987500Y-106000000D03*
%TD*%
D37*
%TO.C,U7*%
X165732500Y-68200000D03*
X165732500Y-68700000D03*
X165732500Y-69200000D03*
X165732500Y-69700000D03*
X165732500Y-70200000D03*
X170132500Y-70200000D03*
X170132500Y-69700000D03*
X170132500Y-69200000D03*
X170132500Y-68700000D03*
X170132500Y-68200000D03*
%TD*%
D38*
%TO.C,H2*%
X121100000Y-108600000D03*
%TD*%
D39*
%TO.C,J3*%
X138440000Y-99600000D03*
X139540000Y-99600000D03*
X140640000Y-99600000D03*
X141740000Y-99600000D03*
X142840000Y-99600000D03*
X143940000Y-99600000D03*
X145040000Y-99600000D03*
D40*
X146090000Y-99600000D03*
D41*
X135600000Y-106000000D03*
X135600000Y-109700000D03*
D42*
X135980000Y-99725000D03*
D43*
X139305000Y-110775000D03*
X145275000Y-110775000D03*
D44*
X147300000Y-99950000D03*
%TD*%
D10*
%TO.C,R1*%
X127900000Y-97000000D03*
X126075000Y-97000000D03*
%TD*%
D45*
%TO.C,D3*%
X144062500Y-74200000D03*
X142312500Y-74200000D03*
%TD*%
D46*
%TO.C,R39*%
X138200000Y-65687500D03*
X138200000Y-67512500D03*
%TD*%
D11*
%TO.C,R6*%
X127287500Y-75500000D03*
X129112500Y-75500000D03*
%TD*%
D10*
%TO.C,R14*%
X173745000Y-91350000D03*
X171920000Y-91350000D03*
%TD*%
D38*
%TO.C,H4*%
X189100000Y-53200000D03*
%TD*%
D46*
%TO.C,R40*%
X139700000Y-65687500D03*
X139700000Y-67512500D03*
%TD*%
D47*
%TO.C,J12*%
X163000000Y-64700000D03*
D20*
X163000000Y-62700000D03*
X163000000Y-60700000D03*
X163000000Y-58700000D03*
X163000000Y-56700000D03*
X163000000Y-54700000D03*
%TD*%
D37*
%TO.C,U8*%
X165732500Y-88150000D03*
X165732500Y-88650000D03*
X165732500Y-89150000D03*
X165732500Y-89650000D03*
X165732500Y-90150000D03*
X170132500Y-90150000D03*
X170132500Y-89650000D03*
X170132500Y-89150000D03*
X170132500Y-88650000D03*
X170132500Y-88150000D03*
%TD*%
D10*
%TO.C,R16*%
X173745000Y-65550000D03*
X171920000Y-65550000D03*
%TD*%
D35*
%TO.C,R27*%
X178700000Y-91400000D03*
X178700000Y-85600000D03*
%TD*%
D19*
%TO.C,J2*%
X121100000Y-100400000D03*
D20*
X121100000Y-102400000D03*
%TD*%
D10*
%TO.C,R7*%
X134512500Y-75400000D03*
X132687500Y-75400000D03*
%TD*%
D11*
%TO.C,R5*%
X127287500Y-66300000D03*
X129112500Y-66300000D03*
%TD*%
%TO.C,R8*%
X142287500Y-75800000D03*
X144112500Y-75800000D03*
%TD*%
D38*
%TO.C,H3*%
X189100000Y-108600000D03*
%TD*%
D17*
%TO.C,J5*%
X144200000Y-80300000D03*
D16*
X142200000Y-80300000D03*
%TD*%
D18*
%TO.C,C13*%
X154262500Y-73300000D03*
X152537500Y-73300000D03*
%TD*%
D38*
%TO.C,H1*%
X121100000Y-53200000D03*
%TD*%
D48*
%TO.C,U1*%
X141850000Y-53460000D03*
X141850000Y-54730000D03*
X141850000Y-56000000D03*
X141850000Y-57270000D03*
X141850000Y-58540000D03*
X141850000Y-59810000D03*
X141850000Y-61080000D03*
X141850000Y-62350000D03*
X141850000Y-63620000D03*
X141850000Y-64890000D03*
X141850000Y-66160000D03*
X141850000Y-67430000D03*
X141850000Y-68700000D03*
X141850000Y-69970000D03*
D49*
X143615000Y-71220000D03*
X144885000Y-71220000D03*
X146155000Y-71220000D03*
X147425000Y-71220000D03*
X148695000Y-71220000D03*
X149965000Y-71220000D03*
X151235000Y-71220000D03*
X152505000Y-71220000D03*
X153775000Y-71220000D03*
X155045000Y-71220000D03*
X156315000Y-71220000D03*
X157585000Y-71220000D03*
D48*
X159350000Y-69970000D03*
X159350000Y-68700000D03*
X159350000Y-67430000D03*
X159350000Y-66160000D03*
X159350000Y-64890000D03*
X159350000Y-63620000D03*
X159350000Y-62350000D03*
X159350000Y-61080000D03*
X159350000Y-59810000D03*
X159350000Y-58540000D03*
X159350000Y-57270000D03*
X159350000Y-56000000D03*
X159350000Y-54730000D03*
X159350000Y-53460000D03*
D50*
X147700000Y-60480000D03*
X147700000Y-61880000D03*
X148400000Y-59780000D03*
X148400000Y-61180000D03*
X148400000Y-62580000D03*
X149100000Y-60480000D03*
D51*
X149100000Y-61180000D03*
D50*
X149100000Y-61880000D03*
X149800000Y-59780000D03*
X149800000Y-61180000D03*
X149800000Y-62580000D03*
X150500000Y-60480000D03*
X150500000Y-61880000D03*
%TD*%
D52*
%TO.C,R43*%
X176500000Y-80100000D03*
X176500000Y-74000000D03*
%TD*%
D17*
%TO.C,J15*%
X171200000Y-56950000D03*
D16*
X169200000Y-56950000D03*
%TD*%
D53*
%TO.C,D1*%
X126162500Y-98600000D03*
X127912500Y-98600000D03*
%TD*%
D54*
%TO.C,U6*%
X134710000Y-68425000D03*
X133440000Y-68425000D03*
X132170000Y-68425000D03*
X130900000Y-68425000D03*
X129630000Y-68425000D03*
X128360000Y-68425000D03*
X127090000Y-68425000D03*
X127090000Y-73375000D03*
X128360000Y-73375000D03*
X129630000Y-73375000D03*
X130900000Y-73375000D03*
X132170000Y-73375000D03*
X133440000Y-73375000D03*
X134710000Y-73375000D03*
%TD*%
D30*
%TO.C,JP2*%
X168900000Y-61700000D03*
D31*
X170200000Y-61700000D03*
D32*
X171500000Y-61700000D03*
%TD*%
D17*
%TO.C,J6*%
X130150000Y-62050000D03*
D16*
X128150000Y-62050000D03*
%TD*%
D15*
%TO.C,J11*%
X152300000Y-87700000D03*
D16*
X154300000Y-87700000D03*
X156300000Y-87700000D03*
X158300000Y-87700000D03*
%TD*%
D55*
%TO.C,SW3*%
X131450000Y-53000000D03*
X137650000Y-53000000D03*
X131450000Y-56700000D03*
X137650000Y-56700000D03*
%TD*%
D10*
%TO.C,R36*%
X154312500Y-74850000D03*
X152487500Y-74850000D03*
%TD*%
D56*
%TO.C,Q1*%
X128890000Y-84907500D03*
X128890000Y-86807500D03*
X132310000Y-85857500D03*
%TD*%
D52*
%TO.C,R48*%
X178700000Y-101050000D03*
X178700000Y-94950000D03*
%TD*%
D10*
%TO.C,R17*%
X173745000Y-71350000D03*
X171920000Y-71350000D03*
%TD*%
D11*
%TO.C,R29*%
X128387500Y-93100000D03*
X130212500Y-93100000D03*
%TD*%
D14*
%TO.C,C18*%
X171932500Y-87587500D03*
X171932500Y-89312500D03*
%TD*%
M02*
